{"glyphs":{"0":{"ha":846,"x_min":71,"x_max":775,"o":"m 423 -14 q 597 40 517 -14 q 726 207 677 95 q 775 490 775 319 q 726 769 775 657 q 597 937 677 881 q 424 994 517 994 q 250 939 330 994 q 120 773 170 884 q 71 489 71 661 q 121 210 71 322 q 251 42 170 98 q 423 -14 331 -14 m 427 18 q 318 76 363 18 q 250 244 273 134 q 227 513 227 355 q 249 768 227 669 q 314 914 271 867 q 420 961 357 961 q 529 903 484 961 q 597 735 574 846 q 620 466 620 625 q 598 212 620 311 q 533 65 576 113 q 427 18 490 18 z "},"1":{"ha":513,"x_min":55,"x_max":463,"o":"m 330 981 l 277 981 l 55 857 l 55 836 l 196 876 l 196 127 q 186 72 196 92 q 147 41 176 52 q 64 23 119 31 l 64 0 l 463 0 l 463 23 q 379 41 408 31 q 340 72 351 52 q 330 127 330 92 l 330 981 z "},"2":{"ha":648,"x_min":26,"x_max":595,"o":"m 595 0 l 595 115 l 77 115 l 78 102 l 251 276 q 444 476 373 395 q 546 623 515 558 q 576 753 576 687 q 544 881 576 827 q 454 964 512 935 q 318 994 396 994 q 132 936 208 994 q 26 772 56 878 l 48 765 q 127 876 74 836 q 255 916 181 916 q 384 861 336 916 q 433 718 433 807 q 406 583 433 650 q 317 428 380 515 q 146 215 254 340 l 30 83 l 30 0 l 595 0 z "},"3":{"ha":696,"x_min":37,"x_max":625,"o":"m 294 -14 q 418 6 359 -14 q 524 65 477 27 q 597 158 570 104 q 625 279 625 212 q 589 426 625 361 q 488 528 553 490 q 336 565 423 565 l 336 561 q 469 602 411 570 q 560 682 527 633 q 593 787 593 730 q 562 897 593 851 q 475 968 531 943 q 343 994 419 994 q 211 967 269 994 q 113 894 153 941 q 55 785 74 847 l 76 777 q 160 880 104 844 q 288 916 216 916 q 411 872 365 916 q 457 751 457 829 q 388 611 457 669 q 165 526 318 553 l 165 501 q 196 506 178 504 q 230 507 214 507 q 360 478 304 507 q 447 395 416 450 q 479 265 479 341 q 451 138 480 192 q 374 54 422 83 q 266 24 325 24 q 171 42 214 24 q 100 90 127 59 q 70 160 73 121 l 43 160 q 63 111 43 130 q 110 92 83 92 q 159 112 138 92 q 179 161 179 132 q 158 212 179 191 q 107 232 138 232 q 58 212 79 232 q 37 160 37 192 q 72 72 37 111 q 165 9 106 32 q 294 -14 224 -14 z "},"4":{"ha":766,"x_min":29,"x_max":741,"o":"m 468 0 l 590 0 l 590 250 l 741 250 l 741 353 l 590 353 l 590 981 l 504 981 l 29 302 l 29 250 l 468 250 l 468 0 m 469 353 l 115 353 l 115 336 l 477 894 l 469 894 l 469 353 z "},"5":{"ha":703,"x_min":53,"x_max":641,"o":"m 304 -14 q 467 25 390 -14 q 592 137 544 64 q 641 312 641 210 q 605 460 641 395 q 505 563 568 525 q 363 600 442 600 q 245 582 298 600 q 158 532 193 563 q 104 462 122 500 l 121 475 l 201 862 l 604 862 l 604 979 l 182 979 l 88 446 l 109 446 q 184 512 136 488 q 294 536 231 536 q 401 503 355 536 q 471 412 446 469 q 496 282 496 355 q 466 141 496 199 q 387 54 435 83 q 282 24 338 24 q 143 65 196 24 q 86 160 90 106 l 59 160 q 79 110 59 130 q 126 91 99 91 q 175 111 155 91 q 195 161 195 131 q 174 212 195 191 q 123 232 153 232 q 74 212 95 232 q 53 160 53 191 q 84 77 53 117 q 173 11 116 37 q 304 -14 229 -14 z "},"6":{"ha":787,"x_min":68,"x_max":728,"o":"m 728 300 q 696 445 728 380 q 603 548 663 510 q 459 586 543 586 q 325 554 378 586 q 243 467 271 522 q 208 347 215 413 l 211 347 q 233 565 208 458 q 312 758 257 671 q 458 900 368 845 q 680 964 549 956 l 679 987 q 413 936 527 987 q 222 801 298 886 q 106 611 145 716 q 68 399 68 507 q 111 171 68 262 q 231 32 155 79 q 404 -14 307 -14 q 578 28 506 -14 q 690 142 651 71 q 728 300 728 214 m 585 267 q 564 140 585 197 q 502 51 543 84 q 404 18 462 18 q 297 62 339 18 q 236 172 256 106 q 216 304 216 238 q 271 465 216 407 q 404 524 326 524 q 505 489 465 524 q 565 395 545 454 q 585 267 585 337 z "},"7":{"ha":645,"x_min":29,"x_max":600,"o":"m 233 0 l 600 888 l 600 979 l 29 979 l 29 862 l 562 862 l 562 869 l 100 3 l 100 0 l 233 0 z "},"8":{"ha":802,"x_min":73,"x_max":729,"o":"m 399 -14 q 563 20 488 -14 q 684 115 638 54 q 729 256 729 176 q 671 421 729 353 q 498 543 613 490 l 391 592 q 263 683 302 634 q 223 799 223 731 q 270 915 223 869 q 401 961 317 961 q 497 932 458 961 q 557 856 536 903 q 578 752 578 808 q 545 632 578 686 q 452 552 512 578 l 468 546 q 589 594 537 563 q 669 670 640 626 q 697 766 697 713 q 662 884 697 832 q 560 964 626 935 q 405 994 494 994 q 250 961 318 994 q 143 871 182 928 q 104 740 104 814 q 160 587 104 650 q 308 480 216 524 l 414 431 q 566 328 524 379 q 608 202 608 276 q 550 71 608 123 q 404 18 493 18 q 295 48 343 18 q 220 130 248 78 q 193 249 193 182 q 230 388 193 330 q 342 475 266 447 l 324 482 q 190 430 246 466 q 103 343 134 395 q 73 230 73 292 q 116 98 73 153 q 234 15 160 43 q 399 -14 309 -14 z "},"9":{"ha":787,"x_min":59,"x_max":720,"o":"m 59 680 q 92 534 59 600 q 184 431 125 469 q 324 393 244 393 q 461 426 408 393 q 544 512 515 458 q 579 632 573 566 l 576 632 q 555 415 579 521 q 475 221 530 309 q 329 79 420 134 q 108 15 238 24 l 109 -7 q 375 43 260 -7 q 566 180 489 94 q 681 370 642 265 q 720 583 720 475 q 676 811 720 720 q 557 948 633 902 q 383 994 481 994 q 209 951 282 994 q 98 838 136 909 q 59 680 59 766 m 202 713 q 223 839 202 783 q 285 928 245 895 q 383 961 326 961 q 492 918 450 961 q 553 810 534 876 q 572 675 572 745 q 516 514 572 572 q 380 456 461 456 q 281 491 321 456 q 222 584 241 526 q 202 713 202 643 z "}," ":{"ha":306,"x_min":0,"x_max":0,"o":""},"A":{"ha":910,"x_min":-8,"x_max":918,"o":"m 787 161 l 486 983 l 426 983 l 135 194 q 92 92 111 127 q 50 43 73 57 q -8 23 28 28 l -8 0 l 249 0 l 249 23 q 179 45 200 30 q 160 95 157 61 q 183 191 162 129 l 405 836 l 394 836 l 632 162 q 649 85 650 113 q 628 42 648 56 q 563 23 607 28 l 563 0 l 918 0 l 918 23 q 862 41 884 28 q 823 82 840 54 q 787 161 806 110 m 219 351 l 606 351 l 595 384 l 231 384 l 219 351 z "},"Á":{"ha":910,"x_min":-8,"x_max":918,"o":"m 787 161 l 486 983 l 426 983 l 135 194 q 92 92 111 127 q 50 43 73 57 q -8 23 28 28 l -8 0 l 249 0 l 249 23 q 179 45 200 30 q 160 95 157 61 q 183 191 162 129 l 405 836 l 394 836 l 632 162 q 649 85 650 113 q 628 42 648 56 q 563 23 607 28 l 563 0 l 918 0 l 918 23 q 862 41 884 28 q 823 82 840 54 q 787 161 806 110 m 219 351 l 606 351 l 595 384 l 231 384 l 219 351 m 420 1042 l 624 1221 l 624 1225 l 483 1225 l 391 1043 l 420 1042 z "},"À":{"ha":910,"x_min":-8,"x_max":918,"o":"m 787 161 l 486 983 l 426 983 l 135 194 q 92 92 111 127 q 50 43 73 57 q -8 23 28 28 l -8 0 l 249 0 l 249 23 q 179 45 200 30 q 160 95 157 61 q 183 191 162 129 l 405 836 l 394 836 l 632 162 q 649 85 650 113 q 628 42 648 56 q 563 23 607 28 l 563 0 l 918 0 l 918 23 q 862 41 884 28 q 823 82 840 54 q 787 161 806 110 m 219 351 l 606 351 l 595 384 l 231 384 l 219 351 m 496 1042 l 525 1042 l 437 1224 l 291 1224 l 291 1221 l 496 1042 z "},"Ȁ":{"ha":910,"x_min":-8,"x_max":918,"o":"m 787 161 l 486 983 l 426 983 l 135 194 q 92 92 111 127 q 50 43 73 57 q -8 23 28 28 l -8 0 l 249 0 l 249 23 q 179 45 200 30 q 160 95 157 61 q 183 191 162 129 l 405 836 l 394 836 l 632 162 q 649 85 650 113 q 628 42 648 56 q 563 23 607 28 l 563 0 l 918 0 l 918 23 q 862 41 884 28 q 823 82 840 54 q 787 161 806 110 m 219 351 l 606 351 l 595 384 l 231 384 l 219 351 m 317 1224 l 189 1224 l 189 1221 l 379 1042 l 409 1042 l 317 1224 m 528 1224 l 408 1224 l 408 1221 l 551 1042 l 580 1042 l 528 1224 z "},"Â":{"ha":910,"x_min":-8,"x_max":918,"o":"m 787 161 l 486 983 l 426 983 l 135 194 q 92 92 111 127 q 50 43 73 57 q -8 23 28 28 l -8 0 l 249 0 l 249 23 q 179 45 200 30 q 160 95 157 61 q 183 191 162 129 l 405 836 l 394 836 l 632 162 q 649 85 650 113 q 628 42 648 56 q 563 23 607 28 l 563 0 l 918 0 l 918 23 q 862 41 884 28 q 823 82 840 54 q 787 161 806 110 m 219 351 l 606 351 l 595 384 l 231 384 l 219 351 m 318 1042 l 486 1160 l 432 1160 l 598 1042 l 628 1042 l 492 1224 l 427 1224 l 290 1042 l 318 1042 z "},"Ấ":{"ha":910,"x_min":-8,"x_max":918,"o":"m 787 161 l 486 983 l 426 983 l 135 194 q 92 92 111 127 q 50 43 73 57 q -8 23 28 28 l -8 0 l 249 0 l 249 23 q 179 45 200 30 q 160 95 157 61 q 183 191 162 129 l 405 836 l 394 836 l 632 162 q 649 85 650 113 q 628 42 648 56 q 563 23 607 28 l 563 0 l 918 0 l 918 23 q 862 41 884 28 q 823 82 840 54 q 787 161 806 110 m 219 351 l 606 351 l 595 384 l 231 384 l 219 351 m 283 1020 l 463 1084 l 443 1084 l 622 1020 l 622 1042 l 463 1155 l 441 1155 l 283 1042 l 283 1020 m 621 1229 l 621 1305 l 283 1200 l 283 1178 l 621 1229 z "},"Ầ":{"ha":910,"x_min":-8,"x_max":918,"o":"m 787 161 l 486 983 l 426 983 l 135 194 q 92 92 111 127 q 50 43 73 57 q -8 23 28 28 l -8 0 l 249 0 l 249 23 q 179 45 200 30 q 160 95 157 61 q 183 191 162 129 l 405 836 l 394 836 l 632 162 q 649 85 650 113 q 628 42 648 56 q 563 23 607 28 l 563 0 l 918 0 l 918 23 q 862 41 884 28 q 823 82 840 54 q 787 161 806 110 m 219 351 l 606 351 l 595 384 l 231 384 l 219 351 m 283 1020 l 463 1084 l 443 1084 l 622 1020 l 622 1042 l 463 1155 l 441 1155 l 283 1042 l 283 1020 m 283 1229 l 622 1178 l 622 1200 l 283 1305 l 283 1229 z "},"Ẫ":{"ha":910,"x_min":-8,"x_max":918,"o":"m 787 161 l 486 983 l 426 983 l 135 194 q 92 92 111 127 q 50 43 73 57 q -8 23 28 28 l -8 0 l 249 0 l 249 23 q 179 45 200 30 q 160 95 157 61 q 183 191 162 129 l 405 836 l 394 836 l 632 162 q 649 85 650 113 q 628 42 648 56 q 563 23 607 28 l 563 0 l 918 0 l 918 23 q 862 41 884 28 q 823 82 840 54 q 787 161 806 110 m 219 351 l 606 351 l 595 384 l 231 384 l 219 351 m 283 1020 l 463 1084 l 443 1084 l 622 1020 l 622 1042 l 463 1155 l 441 1155 l 283 1042 l 283 1020 m 527 1196 q 595 1221 569 1196 q 622 1297 622 1246 l 597 1297 q 582 1263 596 1273 q 546 1253 568 1253 q 517 1256 532 1253 q 482 1265 503 1259 l 463 1272 q 421 1282 441 1278 q 378 1286 401 1286 q 310 1261 336 1286 q 283 1186 283 1236 l 309 1186 q 323 1220 309 1210 q 359 1230 336 1230 q 388 1227 373 1230 q 423 1217 403 1224 l 443 1211 q 484 1200 463 1204 q 527 1196 504 1196 z "},"Ẩ":{"ha":910,"x_min":-8,"x_max":918,"o":"m 787 161 l 486 983 l 426 983 l 135 194 q 92 92 111 127 q 50 43 73 57 q -8 23 28 28 l -8 0 l 249 0 l 249 23 q 179 45 200 30 q 160 95 157 61 q 183 191 162 129 l 405 836 l 394 836 l 632 162 q 649 85 650 113 q 628 42 648 56 q 563 23 607 28 l 563 0 l 918 0 l 918 23 q 862 41 884 28 q 823 82 840 54 q 787 161 806 110 m 219 351 l 606 351 l 595 384 l 231 384 l 219 351 m 283 1020 l 463 1084 l 443 1084 l 622 1020 l 622 1042 l 463 1155 l 441 1155 l 283 1042 l 283 1020 m 596 1282 q 534 1268 559 1282 q 495 1240 509 1255 l 495 1221 q 522 1233 505 1228 q 559 1237 538 1237 q 604 1226 587 1237 q 620 1198 620 1216 q 605 1168 620 1181 q 560 1147 590 1156 l 581 1134 q 667 1163 637 1145 q 698 1214 698 1181 q 667 1264 698 1246 q 596 1282 635 1282 z "},"Ậ":{"ha":910,"x_min":-8,"x_max":918,"o":"m 787 161 l 486 983 l 426 983 l 135 194 q 92 92 111 127 q 50 43 73 57 q -8 23 28 28 l -8 0 l 249 0 l 249 23 q 179 45 200 30 q 160 95 157 61 q 183 191 162 129 l 405 836 l 394 836 l 632 162 q 649 85 650 113 q 628 42 648 56 q 563 23 607 28 l 563 0 l 918 0 l 918 23 q 862 41 884 28 q 823 82 840 54 q 787 161 806 110 m 219 351 l 606 351 l 595 384 l 231 384 l 219 351 m 318 1042 l 486 1160 l 432 1160 l 598 1042 l 628 1042 l 492 1224 l 427 1224 l 290 1042 l 318 1042 m 423 -133 q 377 -151 396 -133 q 359 -195 359 -170 q 377 -240 359 -221 q 423 -258 396 -258 q 469 -240 450 -258 q 488 -195 488 -221 q 469 -151 488 -170 q 423 -133 450 -133 z "},"Ǎ":{"ha":910,"x_min":-8,"x_max":918,"o":"m 787 161 l 486 983 l 426 983 l 135 194 q 92 92 111 127 q 50 43 73 57 q -8 23 28 28 l -8 0 l 249 0 l 249 23 q 179 45 200 30 q 160 95 157 61 q 183 191 162 129 l 405 836 l 394 836 l 632 162 q 649 85 650 113 q 628 42 648 56 q 563 23 607 28 l 563 0 l 918 0 l 918 23 q 862 41 884 28 q 823 82 840 54 q 787 161 806 110 m 219 351 l 606 351 l 595 384 l 231 384 l 219 351 m 599 1236 l 431 1120 l 485 1120 l 319 1236 l 289 1236 l 425 1055 l 490 1055 l 627 1236 l 599 1236 z "},"Ă":{"ha":910,"x_min":-8,"x_max":918,"o":"m 787 161 l 486 983 l 426 983 l 135 194 q 92 92 111 127 q 50 43 73 57 q -8 23 28 28 l -8 0 l 249 0 l 249 23 q 179 45 200 30 q 160 95 157 61 q 183 191 162 129 l 405 836 l 394 836 l 632 162 q 649 85 650 113 q 628 42 648 56 q 563 23 607 28 l 563 0 l 918 0 l 918 23 q 862 41 884 28 q 823 82 840 54 q 787 161 806 110 m 219 351 l 606 351 l 595 384 l 231 384 l 219 351 m 452 1077 q 538 1100 503 1077 q 592 1160 574 1123 q 611 1237 611 1197 q 609 1267 611 1253 l 585 1267 q 585 1266 585 1267 q 585 1264 585 1265 q 548 1186 585 1217 q 452 1156 511 1156 q 356 1186 393 1156 q 319 1264 319 1217 q 319 1266 319 1265 q 319 1267 319 1267 l 295 1267 q 293 1237 293 1253 q 312 1160 293 1197 q 366 1100 330 1123 q 452 1077 402 1077 z "},"Ắ":{"ha":910,"x_min":-8,"x_max":918,"o":"m 787 161 l 486 983 l 426 983 l 135 194 q 92 92 111 127 q 50 43 73 57 q -8 23 28 28 l -8 0 l 249 0 l 249 23 q 179 45 200 30 q 160 95 157 61 q 183 191 162 129 l 405 836 l 394 836 l 632 162 q 649 85 650 113 q 628 42 648 56 q 563 23 607 28 l 563 0 l 918 0 l 918 23 q 862 41 884 28 q 823 82 840 54 q 787 161 806 110 m 219 351 l 606 351 l 595 384 l 231 384 l 219 351 m 452 1047 q 577 1081 529 1047 q 621 1173 625 1116 l 596 1173 q 553 1130 593 1146 q 452 1114 513 1114 q 352 1130 392 1114 q 309 1173 311 1146 l 283 1173 q 328 1081 279 1116 q 452 1047 376 1047 m 621 1244 l 621 1320 l 283 1215 l 283 1193 l 621 1244 z "},"Ằ":{"ha":910,"x_min":-8,"x_max":918,"o":"m 787 161 l 486 983 l 426 983 l 135 194 q 92 92 111 127 q 50 43 73 57 q -8 23 28 28 l -8 0 l 249 0 l 249 23 q 179 45 200 30 q 160 95 157 61 q 183 191 162 129 l 405 836 l 394 836 l 632 162 q 649 85 650 113 q 628 42 648 56 q 563 23 607 28 l 563 0 l 918 0 l 918 23 q 862 41 884 28 q 823 82 840 54 q 787 161 806 110 m 219 351 l 606 351 l 595 384 l 231 384 l 219 351 m 452 1047 q 577 1081 529 1047 q 621 1173 625 1116 l 596 1173 q 553 1130 593 1146 q 452 1114 513 1114 q 352 1130 392 1114 q 309 1173 311 1146 l 283 1173 q 328 1081 279 1116 q 452 1047 376 1047 m 283 1244 l 622 1193 l 622 1215 l 283 1320 l 283 1244 z "},"Ẵ":{"ha":910,"x_min":-8,"x_max":918,"o":"m 787 161 l 486 983 l 426 983 l 135 194 q 92 92 111 127 q 50 43 73 57 q -8 23 28 28 l -8 0 l 249 0 l 249 23 q 179 45 200 30 q 160 95 157 61 q 183 191 162 129 l 405 836 l 394 836 l 632 162 q 649 85 650 113 q 628 42 648 56 q 563 23 607 28 l 563 0 l 918 0 l 918 23 q 862 41 884 28 q 823 82 840 54 q 787 161 806 110 m 219 351 l 606 351 l 595 384 l 231 384 l 219 351 m 452 1047 q 577 1081 529 1047 q 621 1173 625 1116 l 596 1173 q 553 1130 593 1146 q 452 1114 513 1114 q 352 1130 392 1114 q 309 1173 311 1146 l 283 1173 q 328 1081 279 1116 q 452 1047 376 1047 m 527 1211 q 595 1236 569 1211 q 622 1312 622 1261 l 597 1312 q 582 1278 596 1288 q 546 1267 568 1267 q 517 1271 532 1267 q 482 1280 503 1274 l 463 1287 q 421 1297 441 1293 q 378 1301 401 1301 q 310 1276 336 1301 q 283 1201 283 1251 l 309 1201 q 323 1235 309 1225 q 359 1245 336 1245 q 388 1242 373 1245 q 423 1232 403 1239 l 443 1226 q 484 1215 463 1219 q 527 1211 504 1211 z "},"Ẳ":{"ha":910,"x_min":-8,"x_max":918,"o":"m 787 161 l 486 983 l 426 983 l 135 194 q 92 92 111 127 q 50 43 73 57 q -8 23 28 28 l -8 0 l 249 0 l 249 23 q 179 45 200 30 q 160 95 157 61 q 183 191 162 129 l 405 836 l 394 836 l 632 162 q 649 85 650 113 q 628 42 648 56 q 563 23 607 28 l 563 0 l 918 0 l 918 23 q 862 41 884 28 q 823 82 840 54 q 787 161 806 110 m 219 351 l 606 351 l 595 384 l 231 384 l 219 351 m 452 1047 q 577 1081 529 1047 q 621 1173 625 1116 l 596 1173 q 553 1130 593 1146 q 452 1114 513 1114 q 352 1130 392 1114 q 309 1173 311 1146 l 283 1173 q 328 1081 279 1116 q 452 1047 376 1047 m 448 1316 q 382 1302 408 1316 q 341 1274 356 1289 l 341 1255 q 369 1266 351 1261 q 408 1271 387 1271 q 454 1260 437 1271 q 471 1232 471 1250 q 456 1201 471 1214 q 410 1181 440 1189 l 431 1167 q 521 1197 490 1179 q 553 1247 553 1215 q 521 1298 553 1280 q 448 1316 489 1316 z "},"Ặ":{"ha":910,"x_min":-8,"x_max":918,"o":"m 787 161 l 486 983 l 426 983 l 135 194 q 92 92 111 127 q 50 43 73 57 q -8 23 28 28 l -8 0 l 249 0 l 249 23 q 179 45 200 30 q 160 95 157 61 q 183 191 162 129 l 405 836 l 394 836 l 632 162 q 649 85 650 113 q 628 42 648 56 q 563 23 607 28 l 563 0 l 918 0 l 918 23 q 862 41 884 28 q 823 82 840 54 q 787 161 806 110 m 219 351 l 606 351 l 595 384 l 231 384 l 219 351 m 452 1077 q 538 1100 503 1077 q 592 1160 574 1123 q 611 1237 611 1197 q 609 1267 611 1253 l 585 1267 q 585 1266 585 1267 q 585 1264 585 1265 q 548 1186 585 1217 q 452 1156 511 1156 q 356 1186 393 1156 q 319 1264 319 1217 q 319 1266 319 1265 q 319 1267 319 1267 l 295 1267 q 293 1237 293 1253 q 312 1160 293 1197 q 366 1100 330 1123 q 452 1077 402 1077 m 423 -133 q 377 -151 396 -133 q 359 -195 359 -170 q 377 -240 359 -221 q 423 -258 396 -258 q 469 -240 450 -258 q 488 -195 488 -221 q 469 -151 488 -170 q 423 -133 450 -133 z "},"Ȃ":{"ha":910,"x_min":-8,"x_max":918,"o":"m 787 161 l 486 983 l 426 983 l 135 194 q 92 92 111 127 q 50 43 73 57 q -8 23 28 28 l -8 0 l 249 0 l 249 23 q 179 45 200 30 q 160 95 157 61 q 183 191 162 129 l 405 836 l 394 836 l 632 162 q 649 85 650 113 q 628 42 648 56 q 563 23 607 28 l 563 0 l 918 0 l 918 23 q 862 41 884 28 q 823 82 840 54 q 787 161 806 110 m 219 351 l 606 351 l 595 384 l 231 384 l 219 351 m 452 1267 q 366 1244 401 1267 q 312 1185 330 1221 q 293 1107 293 1148 q 295 1077 293 1091 l 319 1077 q 319 1079 319 1078 q 319 1080 319 1080 q 356 1159 319 1128 q 452 1189 393 1189 q 548 1159 511 1189 q 585 1080 585 1128 q 585 1079 585 1080 q 585 1077 585 1078 l 609 1077 q 611 1107 611 1091 q 592 1185 611 1148 q 538 1244 574 1221 q 452 1267 503 1267 z "},"Ä":{"ha":910,"x_min":-8,"x_max":918,"o":"m 787 161 l 486 983 l 426 983 l 135 194 q 92 92 111 127 q 50 43 73 57 q -8 23 28 28 l -8 0 l 249 0 l 249 23 q 179 45 200 30 q 160 95 157 61 q 183 191 162 129 l 405 836 l 394 836 l 632 162 q 649 85 650 113 q 628 42 648 56 q 563 23 607 28 l 563 0 l 918 0 l 918 23 q 862 41 884 28 q 823 82 840 54 q 787 161 806 110 m 219 351 l 606 351 l 595 384 l 231 384 l 219 351 z "},"Ǟ":{"ha":910,"x_min":-8,"x_max":918,"o":"m 787 161 l 486 983 l 426 983 l 135 194 q 92 92 111 127 q 50 43 73 57 q -8 23 28 28 l -8 0 l 249 0 l 249 23 q 179 45 200 30 q 160 95 157 61 q 183 191 162 129 l 405 836 l 394 836 l 632 162 q 649 85 650 113 q 628 42 648 56 q 563 23 607 28 l 563 0 l 918 0 l 918 23 q 862 41 884 28 q 823 82 840 54 q 787 161 806 110 m 219 351 l 606 351 l 595 384 l 231 384 l 219 351 m 358 1062 q 396 1076 381 1062 q 412 1109 412 1089 q 396 1143 412 1129 q 358 1157 381 1157 l 355 1157 q 316 1143 332 1157 q 301 1109 301 1129 q 316 1076 301 1089 q 355 1062 332 1062 l 358 1062 m 550 1062 q 588 1076 573 1062 q 604 1109 604 1089 q 588 1143 604 1129 q 550 1157 573 1157 l 547 1157 q 508 1143 524 1157 q 493 1109 493 1129 q 508 1076 493 1089 q 547 1062 524 1062 l 550 1062 m 283 1228 l 622 1228 l 622 1284 l 283 1284 l 283 1228 z "},"Ã":{"ha":910,"x_min":-8,"x_max":918,"o":"m 787 161 l 486 983 l 426 983 l 135 194 q 92 92 111 127 q 50 43 73 57 q -8 23 28 28 l -8 0 l 249 0 l 249 23 q 179 45 200 30 q 160 95 157 61 q 183 191 162 129 l 405 836 l 394 836 l 632 162 q 649 85 650 113 q 628 42 648 56 q 563 23 607 28 l 563 0 l 918 0 l 918 23 q 862 41 884 28 q 823 82 840 54 q 787 161 806 110 m 219 351 l 606 351 l 595 384 l 231 384 l 219 351 m 524 1058 q 596 1093 567 1058 q 622 1215 625 1128 l 596 1215 q 582 1151 593 1168 q 550 1134 570 1134 q 523 1140 536 1134 q 493 1158 511 1145 l 473 1171 q 428 1199 449 1189 q 380 1209 406 1209 q 308 1174 337 1209 q 282 1053 279 1139 l 309 1053 q 323 1117 311 1099 q 355 1134 336 1134 q 382 1128 369 1134 q 412 1109 395 1122 l 431 1096 q 477 1068 456 1079 q 524 1058 498 1058 z "},"Ā":{"ha":910,"x_min":-8,"x_max":918,"o":"m 787 161 l 486 983 l 426 983 l 135 194 q 92 92 111 127 q 50 43 73 57 q -8 23 28 28 l -8 0 l 249 0 l 249 23 q 179 45 200 30 q 160 95 157 61 q 183 191 162 129 l 405 836 l 394 836 l 632 162 q 649 85 650 113 q 628 42 648 56 q 563 23 607 28 l 563 0 l 918 0 l 918 23 q 862 41 884 28 q 823 82 840 54 q 787 161 806 110 m 219 351 l 606 351 l 595 384 l 231 384 l 219 351 m 293 1087 l 612 1087 l 612 1156 l 293 1156 l 293 1087 z "},"Ả":{"ha":910,"x_min":-8,"x_max":918,"o":"m 787 161 l 486 983 l 426 983 l 135 194 q 92 92 111 127 q 50 43 73 57 q -8 23 28 28 l -8 0 l 249 0 l 249 23 q 179 45 200 30 q 160 95 157 61 q 183 191 162 129 l 405 836 l 394 836 l 632 162 q 649 85 650 113 q 628 42 648 56 q 563 23 607 28 l 563 0 l 918 0 l 918 23 q 862 41 884 28 q 823 82 840 54 q 787 161 806 110 m 219 351 l 606 351 l 595 384 l 231 384 l 219 351 m 467 1254 q 393 1235 423 1254 q 347 1189 362 1216 l 347 1170 q 379 1190 359 1182 q 422 1198 399 1198 q 472 1184 454 1198 q 490 1147 490 1170 q 470 1099 490 1122 q 412 1051 450 1076 l 437 1051 q 541 1112 511 1082 q 570 1175 570 1141 q 541 1232 570 1210 q 467 1254 513 1254 z "},"Å":{"ha":910,"x_min":-8,"x_max":918,"o":"m 787 161 l 486 983 l 426 983 l 135 194 q 92 92 111 127 q 50 43 73 57 q -8 23 28 28 l -8 0 l 249 0 l 249 23 q 179 45 200 30 q 160 95 157 61 q 183 191 162 129 l 405 836 l 394 836 l 632 162 q 649 85 650 113 q 628 42 648 56 q 563 23 607 28 l 563 0 l 918 0 l 918 23 q 862 41 884 28 q 823 82 840 54 q 787 161 806 110 m 219 351 l 606 351 l 595 384 l 231 384 l 219 351 m 304 1167 q 349 1087 304 1116 q 452 1059 394 1059 q 556 1087 511 1059 q 601 1167 601 1116 q 556 1247 601 1217 q 452 1276 511 1276 q 349 1247 393 1276 q 304 1167 304 1217 m 393 1167 q 409 1227 393 1204 q 452 1251 425 1251 q 495 1227 479 1251 q 512 1167 512 1203 q 495 1106 512 1130 q 452 1083 479 1083 q 409 1106 425 1083 q 393 1167 393 1130 z "},"Ǻ":{"ha":910,"x_min":-8,"x_max":918,"o":"m 787 161 l 486 983 l 426 983 l 135 194 q 92 92 111 127 q 50 43 73 57 q -8 23 28 28 l -8 0 l 249 0 l 249 23 q 179 45 200 30 q 160 95 157 61 q 183 191 162 129 l 405 836 l 394 836 l 632 162 q 649 85 650 113 q 628 42 648 56 q 563 23 607 28 l 563 0 l 918 0 l 918 23 q 862 41 884 28 q 823 82 840 54 q 787 161 806 110 m 219 351 l 606 351 l 595 384 l 231 384 l 219 351 m 466 1041 q 559 1057 524 1041 q 595 1099 595 1072 q 559 1141 595 1125 q 466 1156 524 1156 l 438 1156 q 345 1141 380 1156 q 309 1099 309 1125 q 345 1057 309 1072 q 438 1041 380 1041 l 466 1041 m 464 1061 l 440 1061 q 395 1099 395 1061 q 440 1137 395 1137 l 464 1137 q 498 1126 486 1137 q 509 1099 509 1116 q 497 1071 509 1082 q 464 1061 486 1061 m 621 1232 l 621 1309 l 283 1203 l 283 1181 l 621 1232 z "},"Ḁ":{"ha":910,"x_min":-8,"x_max":918,"o":"m 787 161 l 486 983 l 426 983 l 135 194 q 92 92 111 127 q 50 43 73 57 q -8 23 28 28 l -8 0 l 249 0 l 249 23 q 179 45 200 30 q 160 95 157 61 q 183 191 162 129 l 405 836 l 394 836 l 632 162 q 649 85 650 113 q 628 42 648 56 q 563 23 607 28 l 563 0 l 918 0 l 918 23 q 862 41 884 28 q 823 82 840 54 q 787 161 806 110 m 219 351 l 606 351 l 595 384 l 231 384 l 219 351 m 259 -196 q 309 -278 259 -248 q 423 -307 358 -307 q 538 -278 488 -307 q 587 -195 587 -248 q 538 -114 587 -144 q 423 -84 489 -84 q 308 -114 357 -84 q 259 -196 259 -144 m 357 -196 q 375 -134 357 -158 q 423 -110 393 -110 q 471 -134 453 -110 q 490 -195 490 -158 q 471 -258 490 -235 q 423 -281 453 -281 q 375 -258 393 -281 q 357 -196 357 -234 z "},"Ȧ":{"ha":910,"x_min":-8,"x_max":918,"o":"m 787 161 l 486 983 l 426 983 l 135 194 q 92 92 111 127 q 50 43 73 57 q -8 23 28 28 l -8 0 l 249 0 l 249 23 q 179 45 200 30 q 160 95 157 61 q 183 191 162 129 l 405 836 l 394 836 l 632 162 q 649 85 650 113 q 628 42 648 56 q 563 23 607 28 l 563 0 l 918 0 l 918 23 q 862 41 884 28 q 823 82 840 54 q 787 161 806 110 m 219 351 l 606 351 l 595 384 l 231 384 l 219 351 m 452 1071 q 498 1089 479 1071 q 517 1134 517 1108 q 498 1178 517 1160 q 452 1196 479 1196 q 407 1178 425 1196 q 388 1134 388 1160 q 407 1089 388 1108 q 452 1071 425 1071 z "},"Ǡ":{"ha":910,"x_min":-8,"x_max":918,"o":"m 787 161 l 486 983 l 426 983 l 135 194 q 92 92 111 127 q 50 43 73 57 q -8 23 28 28 l -8 0 l 249 0 l 249 23 q 179 45 200 30 q 160 95 157 61 q 183 191 162 129 l 405 836 l 394 836 l 632 162 q 649 85 650 113 q 628 42 648 56 q 563 23 607 28 l 563 0 l 918 0 l 918 23 q 862 41 884 28 q 823 82 840 54 q 787 161 806 110 m 219 351 l 606 351 l 595 384 l 231 384 l 219 351 m 452 1059 q 493 1074 477 1059 q 510 1109 510 1088 q 493 1145 510 1131 q 452 1160 477 1160 q 411 1145 428 1160 q 395 1109 395 1131 q 411 1074 395 1088 q 452 1059 428 1059 m 283 1213 l 622 1213 l 622 1270 l 283 1270 l 283 1213 z "},"Ạ":{"ha":910,"x_min":-8,"x_max":918,"o":"m 787 161 l 486 983 l 426 983 l 135 194 q 92 92 111 127 q 50 43 73 57 q -8 23 28 28 l -8 0 l 249 0 l 249 23 q 179 45 200 30 q 160 95 157 61 q 183 191 162 129 l 405 836 l 394 836 l 632 162 q 649 85 650 113 q 628 42 648 56 q 563 23 607 28 l 563 0 l 918 0 l 918 23 q 862 41 884 28 q 823 82 840 54 q 787 161 806 110 m 219 351 l 606 351 l 595 384 l 231 384 l 219 351 m 423 -133 q 377 -151 396 -133 q 359 -195 359 -170 q 377 -240 359 -221 q 423 -258 396 -258 q 469 -240 450 -258 q 488 -195 488 -221 q 469 -151 488 -170 q 423 -133 450 -133 z "},"Ą":{"ha":910,"x_min":-8,"x_max":918,"o":"m 787 161 l 486 983 l 426 983 l 135 194 q 92 92 111 127 q 50 43 73 57 q -8 23 28 28 l -8 0 l 249 0 l 249 23 q 179 45 200 30 q 160 95 157 61 q 183 191 162 129 l 405 836 l 394 836 l 632 162 q 649 85 650 113 q 628 42 648 56 q 563 23 607 28 l 563 0 l 918 0 l 918 23 q 862 41 884 28 q 823 82 840 54 q 787 161 806 110 m 219 351 l 606 351 l 595 384 l 231 384 l 219 351 m 751 -324 q 823 -306 791 -324 q 867 -259 854 -288 l 867 -236 q 844 -253 858 -246 q 812 -260 830 -260 q 751 -222 776 -260 q 726 -129 726 -184 q 735 -56 726 -90 q 760 1 744 -22 l 738 1 q 656 -95 686 -43 q 627 -201 627 -146 q 662 -291 627 -257 q 751 -324 698 -324 z "},"B":{"ha":878,"x_min":38,"x_max":819,"o":"m 819 279 q 727 457 819 395 q 488 527 635 520 q 629 559 564 533 q 733 632 694 585 q 773 747 773 679 q 670 921 773 862 q 391 979 567 979 l 38 979 l 38 956 q 100 942 80 950 q 127 917 121 933 q 134 870 134 900 l 134 109 q 127 63 134 79 q 100 38 121 46 q 38 23 80 29 l 38 0 l 391 0 q 551 16 474 0 q 688 67 627 33 q 784 154 749 101 q 819 279 819 206 m 662 269 q 584 95 662 156 q 362 30 505 34 l 281 27 l 281 505 l 405 503 q 595 438 529 503 q 662 269 662 374 m 621 734 q 565 585 621 637 q 405 532 509 533 l 281 532 l 281 952 l 362 949 q 563 885 504 945 q 621 734 621 825 z "},"Ḇ":{"ha":878,"x_min":38,"x_max":819,"o":"m 819 279 q 727 457 819 395 q 488 527 635 520 q 629 559 564 533 q 733 632 694 585 q 773 747 773 679 q 670 921 773 862 q 391 979 567 979 l 38 979 l 38 956 q 100 942 80 950 q 127 917 121 933 q 134 870 134 900 l 134 109 q 127 63 134 79 q 100 38 121 46 q 38 23 80 29 l 38 0 l 391 0 q 551 16 474 0 q 688 67 627 33 q 784 154 749 101 q 819 279 819 206 m 662 269 q 584 95 662 156 q 362 30 505 34 l 281 27 l 281 505 l 405 503 q 595 438 529 503 q 662 269 662 374 m 621 734 q 565 585 621 637 q 405 532 509 533 l 281 532 l 281 952 l 362 949 q 563 885 504 945 q 621 734 621 825 z "},"Ḃ":{"ha":878,"x_min":38,"x_max":819,"o":"m 819 279 q 727 457 819 395 q 488 527 635 520 q 629 559 564 533 q 733 632 694 585 q 773 747 773 679 q 670 921 773 862 q 391 979 567 979 l 38 979 l 38 956 q 100 942 80 950 q 127 917 121 933 q 134 870 134 900 l 134 109 q 127 63 134 79 q 100 38 121 46 q 38 23 80 29 l 38 0 l 391 0 q 551 16 474 0 q 688 67 627 33 q 784 154 749 101 q 819 279 819 206 m 662 269 q 584 95 662 156 q 362 30 505 34 l 281 27 l 281 505 l 405 503 q 595 438 529 503 q 662 269 662 374 m 621 734 q 565 585 621 637 q 405 532 509 533 l 281 532 l 281 952 l 362 949 q 563 885 504 945 q 621 734 621 825 m 438 1071 q 484 1089 465 1071 q 503 1134 503 1108 q 484 1178 503 1160 q 438 1196 465 1196 q 392 1178 411 1196 q 374 1134 374 1160 q 392 1089 374 1108 q 438 1071 411 1071 z "},"Ḅ":{"ha":878,"x_min":38,"x_max":819,"o":"m 819 279 q 727 457 819 395 q 488 527 635 520 q 629 559 564 533 q 733 632 694 585 q 773 747 773 679 q 670 921 773 862 q 391 979 567 979 l 38 979 l 38 956 q 100 942 80 950 q 127 917 121 933 q 134 870 134 900 l 134 109 q 127 63 134 79 q 100 38 121 46 q 38 23 80 29 l 38 0 l 391 0 q 551 16 474 0 q 688 67 627 33 q 784 154 749 101 q 819 279 819 206 m 662 269 q 584 95 662 156 q 362 30 505 34 l 281 27 l 281 505 l 405 503 q 595 438 529 503 q 662 269 662 374 m 621 734 q 565 585 621 637 q 405 532 509 533 l 281 532 l 281 952 l 362 949 q 563 885 504 945 q 621 734 621 825 m 439 -133 q 393 -151 412 -133 q 374 -195 374 -170 q 393 -240 374 -221 q 439 -258 412 -258 q 485 -240 466 -258 q 503 -195 503 -221 q 485 -151 503 -170 q 439 -133 466 -133 z "},"C":{"ha":945,"x_min":64,"x_max":886,"o":"m 64 497 q 102 285 64 379 q 208 124 140 191 q 368 21 276 57 q 566 -14 459 -14 q 699 -3 637 -14 q 807 25 761 8 q 877 60 854 42 l 886 281 l 865 281 q 804 132 845 190 q 704 47 763 75 q 572 20 645 20 q 425 59 488 20 q 317 167 361 98 q 251 324 273 235 q 229 511 229 412 q 269 748 229 647 q 386 904 310 848 q 568 960 462 960 q 707 930 648 960 q 805 842 766 900 q 861 702 844 785 l 883 702 l 873 924 q 760 973 836 952 q 561 994 683 994 q 369 961 458 994 q 210 865 279 928 q 103 709 142 802 q 64 497 64 617 z "},"Ć":{"ha":945,"x_min":64,"x_max":886,"o":"m 64 497 q 102 285 64 379 q 208 124 140 191 q 368 21 276 57 q 566 -14 459 -14 q 699 -3 637 -14 q 807 25 761 8 q 877 60 854 42 l 886 281 l 865 281 q 804 132 845 190 q 704 47 763 75 q 572 20 645 20 q 425 59 488 20 q 317 167 361 98 q 251 324 273 235 q 229 511 229 412 q 269 748 229 647 q 386 904 310 848 q 568 960 462 960 q 707 930 648 960 q 805 842 766 900 q 861 702 844 785 l 883 702 l 873 924 q 760 973 836 952 q 561 994 683 994 q 369 961 458 994 q 210 865 279 928 q 103 709 142 802 q 64 497 64 617 m 531 1042 l 734 1221 l 734 1225 l 593 1225 l 502 1043 l 531 1042 z "},"Ĉ":{"ha":945,"x_min":64,"x_max":886,"o":"m 64 497 q 102 285 64 379 q 208 124 140 191 q 368 21 276 57 q 566 -14 459 -14 q 699 -3 637 -14 q 807 25 761 8 q 877 60 854 42 l 886 281 l 865 281 q 804 132 845 190 q 704 47 763 75 q 572 20 645 20 q 425 59 488 20 q 317 167 361 98 q 251 324 273 235 q 229 511 229 412 q 269 748 229 647 q 386 904 310 848 q 568 960 462 960 q 707 930 648 960 q 805 842 766 900 q 861 702 844 785 l 883 702 l 873 924 q 760 973 836 952 q 561 994 683 994 q 369 961 458 994 q 210 865 279 928 q 103 709 142 802 q 64 497 64 617 m 429 1042 l 596 1160 l 543 1160 l 709 1042 l 739 1042 l 602 1224 l 537 1224 l 401 1042 l 429 1042 z "},"Č":{"ha":945,"x_min":64,"x_max":886,"o":"m 64 497 q 102 285 64 379 q 208 124 140 191 q 368 21 276 57 q 566 -14 459 -14 q 699 -3 637 -14 q 807 25 761 8 q 877 60 854 42 l 886 281 l 865 281 q 804 132 845 190 q 704 47 763 75 q 572 20 645 20 q 425 59 488 20 q 317 167 361 98 q 251 324 273 235 q 229 511 229 412 q 269 748 229 647 q 386 904 310 848 q 568 960 462 960 q 707 930 648 960 q 805 842 766 900 q 861 702 844 785 l 883 702 l 873 924 q 760 973 836 952 q 561 994 683 994 q 369 961 458 994 q 210 865 279 928 q 103 709 142 802 q 64 497 64 617 m 709 1236 l 542 1120 l 595 1120 l 429 1236 l 399 1236 l 536 1055 l 601 1055 l 737 1236 l 709 1236 z "},"Ċ":{"ha":945,"x_min":64,"x_max":886,"o":"m 64 497 q 102 285 64 379 q 208 124 140 191 q 368 21 276 57 q 566 -14 459 -14 q 699 -3 637 -14 q 807 25 761 8 q 877 60 854 42 l 886 281 l 865 281 q 804 132 845 190 q 704 47 763 75 q 572 20 645 20 q 425 59 488 20 q 317 167 361 98 q 251 324 273 235 q 229 511 229 412 q 269 748 229 647 q 386 904 310 848 q 568 960 462 960 q 707 930 648 960 q 805 842 766 900 q 861 702 844 785 l 883 702 l 873 924 q 760 973 836 952 q 561 994 683 994 q 369 961 458 994 q 210 865 279 928 q 103 709 142 802 q 64 497 64 617 m 563 1071 q 609 1089 590 1071 q 627 1134 627 1108 q 609 1178 627 1160 q 563 1196 590 1196 q 517 1178 536 1196 q 498 1134 498 1160 q 517 1089 498 1108 q 563 1071 536 1071 z "},"Ç":{"ha":945,"x_min":64,"x_max":886,"o":"m 64 497 q 102 285 64 379 q 208 124 140 191 q 368 21 276 57 q 566 -14 459 -14 q 699 -3 637 -14 q 807 25 761 8 q 877 60 854 42 l 886 281 l 865 281 q 804 132 845 190 q 704 47 763 75 q 572 20 645 20 q 425 59 488 20 q 317 167 361 98 q 251 324 273 235 q 229 511 229 412 q 269 748 229 647 q 386 904 310 848 q 568 960 462 960 q 707 930 648 960 q 805 842 766 900 q 861 702 844 785 l 883 702 l 873 924 q 760 973 836 952 q 561 994 683 994 q 369 961 458 994 q 210 865 279 928 q 103 709 142 802 q 64 497 64 617 m 552 -305 q 620 -292 588 -305 q 672 -253 652 -279 q 692 -191 692 -227 q 674 -131 692 -156 q 628 -91 657 -105 q 565 -77 600 -77 q 538 -80 551 -77 q 517 -87 526 -82 l 515 -113 l 593 -5 l 593 7 l 570 7 l 473 -121 l 473 -144 q 508 -138 487 -138 q 562 -152 540 -138 q 585 -194 585 -167 q 563 -236 585 -221 q 510 -252 542 -252 q 463 -245 486 -252 q 425 -227 439 -238 l 425 -250 q 474 -290 440 -274 q 552 -305 509 -305 z "},"Ḉ":{"ha":945,"x_min":64,"x_max":886,"o":"m 64 497 q 102 285 64 379 q 208 124 140 191 q 368 21 276 57 q 566 -14 459 -14 q 699 -3 637 -14 q 807 25 761 8 q 877 60 854 42 l 886 281 l 865 281 q 804 132 845 190 q 704 47 763 75 q 572 20 645 20 q 425 59 488 20 q 317 167 361 98 q 251 324 273 235 q 229 511 229 412 q 269 748 229 647 q 386 904 310 848 q 568 960 462 960 q 707 930 648 960 q 805 842 766 900 q 861 702 844 785 l 883 702 l 873 924 q 760 973 836 952 q 561 994 683 994 q 369 961 458 994 q 210 865 279 928 q 103 709 142 802 q 64 497 64 617 m 552 -305 q 620 -292 588 -305 q 672 -253 652 -279 q 692 -191 692 -227 q 674 -131 692 -156 q 628 -91 657 -105 q 565 -77 600 -77 q 538 -80 551 -77 q 517 -87 526 -82 l 515 -113 l 593 -5 l 593 7 l 570 7 l 473 -121 l 473 -144 q 508 -138 487 -138 q 562 -152 540 -138 q 585 -194 585 -167 q 563 -236 585 -221 q 510 -252 542 -252 q 463 -245 486 -252 q 425 -227 439 -238 l 425 -250 q 474 -290 440 -274 q 552 -305 509 -305 m 531 1042 l 734 1221 l 734 1225 l 593 1225 l 502 1043 l 531 1042 z "},"D":{"ha":1018,"x_min":38,"x_max":960,"o":"m 960 507 q 885 765 960 659 q 677 925 810 870 q 372 979 545 979 l 38 979 l 38 956 q 100 942 80 950 q 127 917 121 933 q 134 870 134 900 l 134 109 q 127 63 134 79 q 100 38 121 46 q 38 23 80 29 l 38 0 l 372 0 q 597 33 491 0 q 784 129 703 65 q 913 288 866 193 q 960 507 960 382 m 797 493 q 744 249 797 351 q 591 90 691 146 q 351 29 492 34 l 281 27 l 281 952 l 351 950 q 593 889 493 946 q 745 730 692 831 q 797 493 798 629 z "},"Ḓ":{"ha":1018,"x_min":38,"x_max":960,"o":"m 960 507 q 885 765 960 659 q 677 925 810 870 q 372 979 545 979 l 38 979 l 38 956 q 100 942 80 950 q 127 917 121 933 q 134 870 134 900 l 134 109 q 127 63 134 79 q 100 38 121 46 q 38 23 80 29 l 38 0 l 372 0 q 597 33 491 0 q 784 129 703 65 q 913 288 866 193 q 960 507 960 382 m 797 493 q 744 249 797 351 q 591 90 691 146 q 351 29 492 34 l 281 27 l 281 952 l 351 950 q 593 889 493 946 q 745 730 692 831 q 797 493 798 629 z "},"Ď":{"ha":1018,"x_min":38,"x_max":960,"o":"m 960 507 q 885 765 960 659 q 677 925 810 870 q 372 979 545 979 l 38 979 l 38 956 q 100 942 80 950 q 127 917 121 933 q 134 870 134 900 l 134 109 q 127 63 134 79 q 100 38 121 46 q 38 23 80 29 l 38 0 l 372 0 q 597 33 491 0 q 784 129 703 65 q 913 288 866 193 q 960 507 960 382 m 797 493 q 744 249 797 351 q 591 90 691 146 q 351 29 492 34 l 281 27 l 281 952 l 351 950 q 593 889 493 946 q 745 730 692 831 q 797 493 798 629 m 634 1236 l 467 1120 l 520 1120 l 354 1236 l 324 1236 l 460 1055 l 526 1055 l 662 1236 l 634 1236 z "},"Ḏ":{"ha":1018,"x_min":38,"x_max":960,"o":"m 960 507 q 885 765 960 659 q 677 925 810 870 q 372 979 545 979 l 38 979 l 38 956 q 100 942 80 950 q 127 917 121 933 q 134 870 134 900 l 134 109 q 127 63 134 79 q 100 38 121 46 q 38 23 80 29 l 38 0 l 372 0 q 597 33 491 0 q 784 129 703 65 q 913 288 866 193 q 960 507 960 382 m 797 493 q 744 249 797 351 q 591 90 691 146 q 351 29 492 34 l 281 27 l 281 952 l 351 950 q 593 889 493 946 q 745 730 692 831 q 797 493 798 629 z "},"Ḋ":{"ha":1018,"x_min":38,"x_max":960,"o":"m 960 507 q 885 765 960 659 q 677 925 810 870 q 372 979 545 979 l 38 979 l 38 956 q 100 942 80 950 q 127 917 121 933 q 134 870 134 900 l 134 109 q 127 63 134 79 q 100 38 121 46 q 38 23 80 29 l 38 0 l 372 0 q 597 33 491 0 q 784 129 703 65 q 913 288 866 193 q 960 507 960 382 m 797 493 q 744 249 797 351 q 591 90 691 146 q 351 29 492 34 l 281 27 l 281 952 l 351 950 q 593 889 493 946 q 745 730 692 831 q 797 493 798 629 m 488 1071 q 533 1089 515 1071 q 552 1134 552 1108 q 533 1178 552 1160 q 488 1196 515 1196 q 442 1178 460 1196 q 423 1134 423 1160 q 442 1089 423 1108 q 488 1071 460 1071 z "},"Ḍ":{"ha":1018,"x_min":38,"x_max":960,"o":"m 960 507 q 885 765 960 659 q 677 925 810 870 q 372 979 545 979 l 38 979 l 38 956 q 100 942 80 950 q 127 917 121 933 q 134 870 134 900 l 134 109 q 127 63 134 79 q 100 38 121 46 q 38 23 80 29 l 38 0 l 372 0 q 597 33 491 0 q 784 129 703 65 q 913 288 866 193 q 960 507 960 382 m 797 493 q 744 249 797 351 q 591 90 691 146 q 351 29 492 34 l 281 27 l 281 952 l 351 950 q 593 889 493 946 q 745 730 692 831 q 797 493 798 629 m 479 -133 q 434 -151 452 -133 q 415 -195 415 -170 q 434 -240 415 -221 q 479 -258 452 -258 q 525 -240 507 -258 q 544 -195 544 -221 q 525 -151 544 -170 q 479 -133 507 -133 z "},"Ḑ":{"ha":1018,"x_min":38,"x_max":960,"o":"m 960 507 q 885 765 960 659 q 677 925 810 870 q 372 979 545 979 l 38 979 l 38 956 q 100 942 80 950 q 127 917 121 933 q 134 870 134 900 l 134 109 q 127 63 134 79 q 100 38 121 46 q 38 23 80 29 l 38 0 l 372 0 q 597 33 491 0 q 784 129 703 65 q 913 288 866 193 q 960 507 960 382 m 797 493 q 744 249 797 351 q 591 90 691 146 q 351 29 492 34 l 281 27 l 281 952 l 351 950 q 593 889 493 946 q 745 730 692 831 q 797 493 798 629 m 476 -305 q 579 -275 539 -305 q 618 -195 618 -244 q 583 -115 618 -144 q 492 -85 547 -85 q 427 -101 453 -85 q 387 -136 400 -117 l 387 -157 q 410 -150 395 -153 q 441 -146 425 -146 q 494 -161 473 -146 q 515 -201 515 -175 q 494 -241 515 -227 q 440 -256 473 -256 q 389 -247 412 -256 q 349 -225 365 -238 l 349 -248 q 399 -289 364 -272 q 476 -305 433 -305 z "},"Ð":{"ha":1018,"x_min":38,"x_max":960,"o":"m 960 507 q 885 765 960 659 q 677 925 810 870 q 372 979 545 979 l 38 979 l 38 956 q 100 942 80 950 q 127 917 121 933 q 134 870 134 900 l 134 109 q 127 63 134 79 q 100 38 121 46 q 38 23 80 29 l 38 0 l 372 0 q 597 33 491 0 q 784 129 703 65 q 913 288 866 193 q 960 507 960 382 m 797 493 q 744 249 797 351 q 591 90 691 146 q 351 29 492 34 l 281 27 l 281 952 l 351 950 q 593 889 493 946 q 745 730 692 831 q 797 493 798 629 m 38 486 l 492 486 l 492 517 l 38 517 l 38 486 z "},"E":{"ha":814,"x_min":38,"x_max":772,"o":"m 726 979 l 38 979 l 38 956 q 100 942 80 950 q 127 917 121 933 q 134 870 134 900 l 134 109 q 127 63 134 79 q 100 38 121 46 q 38 23 80 29 l 38 0 l 759 0 l 772 258 l 750 258 q 717 148 736 191 q 665 82 697 105 q 581 48 632 58 q 454 34 530 37 l 281 27 l 281 488 l 472 484 q 536 470 514 483 q 570 429 559 458 q 591 349 582 400 l 611 349 l 611 654 l 591 654 q 569 574 581 604 q 535 533 557 545 q 472 519 513 521 l 281 515 l 281 952 l 427 947 q 548 933 499 944 q 629 901 597 923 q 682 842 661 880 q 715 748 702 805 l 737 748 l 726 979 z "},"É":{"ha":814,"x_min":38,"x_max":772,"o":"m 726 979 l 38 979 l 38 956 q 100 942 80 950 q 127 917 121 933 q 134 870 134 900 l 134 109 q 127 63 134 79 q 100 38 121 46 q 38 23 80 29 l 38 0 l 759 0 l 772 258 l 750 258 q 717 148 736 191 q 665 82 697 105 q 581 48 632 58 q 454 34 530 37 l 281 27 l 281 488 l 472 484 q 536 470 514 483 q 570 429 559 458 q 591 349 582 400 l 611 349 l 611 654 l 591 654 q 569 574 581 604 q 535 533 557 545 q 472 519 513 521 l 281 515 l 281 952 l 427 947 q 548 933 499 944 q 629 901 597 923 q 682 842 661 880 q 715 748 702 805 l 737 748 l 726 979 m 387 1042 l 590 1221 l 590 1225 l 449 1225 l 357 1043 l 387 1042 z "},"È":{"ha":814,"x_min":38,"x_max":772,"o":"m 726 979 l 38 979 l 38 956 q 100 942 80 950 q 127 917 121 933 q 134 870 134 900 l 134 109 q 127 63 134 79 q 100 38 121 46 q 38 23 80 29 l 38 0 l 759 0 l 772 258 l 750 258 q 717 148 736 191 q 665 82 697 105 q 581 48 632 58 q 454 34 530 37 l 281 27 l 281 488 l 472 484 q 536 470 514 483 q 570 429 559 458 q 591 349 582 400 l 611 349 l 611 654 l 591 654 q 569 574 581 604 q 535 533 557 545 q 472 519 513 521 l 281 515 l 281 952 l 427 947 q 548 933 499 944 q 629 901 597 923 q 682 842 661 880 q 715 748 702 805 l 737 748 l 726 979 m 463 1042 l 491 1042 l 404 1224 l 257 1224 l 257 1221 l 463 1042 z "},"Ȅ":{"ha":814,"x_min":38,"x_max":772,"o":"m 726 979 l 38 979 l 38 956 q 100 942 80 950 q 127 917 121 933 q 134 870 134 900 l 134 109 q 127 63 134 79 q 100 38 121 46 q 38 23 80 29 l 38 0 l 759 0 l 772 258 l 750 258 q 717 148 736 191 q 665 82 697 105 q 581 48 632 58 q 454 34 530 37 l 281 27 l 281 488 l 472 484 q 536 470 514 483 q 570 429 559 458 q 591 349 582 400 l 611 349 l 611 654 l 591 654 q 569 574 581 604 q 535 533 557 545 q 472 519 513 521 l 281 515 l 281 952 l 427 947 q 548 933 499 944 q 629 901 597 923 q 682 842 661 880 q 715 748 702 805 l 737 748 l 726 979 m 283 1224 l 155 1224 l 155 1221 l 345 1042 l 375 1042 l 283 1224 m 494 1224 l 374 1224 l 374 1221 l 517 1042 l 546 1042 l 494 1224 z "},"Ê":{"ha":814,"x_min":38,"x_max":772,"o":"m 726 979 l 38 979 l 38 956 q 100 942 80 950 q 127 917 121 933 q 134 870 134 900 l 134 109 q 127 63 134 79 q 100 38 121 46 q 38 23 80 29 l 38 0 l 759 0 l 772 258 l 750 258 q 717 148 736 191 q 665 82 697 105 q 581 48 632 58 q 454 34 530 37 l 281 27 l 281 488 l 472 484 q 536 470 514 483 q 570 429 559 458 q 591 349 582 400 l 611 349 l 611 654 l 591 654 q 569 574 581 604 q 535 533 557 545 q 472 519 513 521 l 281 515 l 281 952 l 427 947 q 548 933 499 944 q 629 901 597 923 q 682 842 661 880 q 715 748 702 805 l 737 748 l 726 979 m 284 1042 l 452 1160 l 398 1160 l 564 1042 l 594 1042 l 458 1224 l 393 1224 l 256 1042 l 284 1042 z "},"Ế":{"ha":814,"x_min":38,"x_max":772,"o":"m 726 979 l 38 979 l 38 956 q 100 942 80 950 q 127 917 121 933 q 134 870 134 900 l 134 109 q 127 63 134 79 q 100 38 121 46 q 38 23 80 29 l 38 0 l 759 0 l 772 258 l 750 258 q 717 148 736 191 q 665 82 697 105 q 581 48 632 58 q 454 34 530 37 l 281 27 l 281 488 l 472 484 q 536 470 514 483 q 570 429 559 458 q 591 349 582 400 l 611 349 l 611 654 l 591 654 q 569 574 581 604 q 535 533 557 545 q 472 519 513 521 l 281 515 l 281 952 l 427 947 q 548 933 499 944 q 629 901 597 923 q 682 842 661 880 q 715 748 702 805 l 737 748 l 726 979 m 250 1020 l 429 1084 l 409 1084 l 588 1020 l 588 1042 l 429 1155 l 408 1155 l 250 1042 l 250 1020 m 587 1229 l 587 1305 l 249 1200 l 249 1178 l 587 1229 z "},"Ề":{"ha":814,"x_min":38,"x_max":772,"o":"m 726 979 l 38 979 l 38 956 q 100 942 80 950 q 127 917 121 933 q 134 870 134 900 l 134 109 q 127 63 134 79 q 100 38 121 46 q 38 23 80 29 l 38 0 l 759 0 l 772 258 l 750 258 q 717 148 736 191 q 665 82 697 105 q 581 48 632 58 q 454 34 530 37 l 281 27 l 281 488 l 472 484 q 536 470 514 483 q 570 429 559 458 q 591 349 582 400 l 611 349 l 611 654 l 591 654 q 569 574 581 604 q 535 533 557 545 q 472 519 513 521 l 281 515 l 281 952 l 427 947 q 548 933 499 944 q 629 901 597 923 q 682 842 661 880 q 715 748 702 805 l 737 748 l 726 979 m 250 1020 l 429 1084 l 409 1084 l 588 1020 l 588 1042 l 429 1155 l 408 1155 l 250 1042 l 250 1020 m 250 1229 l 588 1178 l 588 1200 l 250 1305 l 250 1229 z "},"Ễ":{"ha":814,"x_min":38,"x_max":772,"o":"m 726 979 l 38 979 l 38 956 q 100 942 80 950 q 127 917 121 933 q 134 870 134 900 l 134 109 q 127 63 134 79 q 100 38 121 46 q 38 23 80 29 l 38 0 l 759 0 l 772 258 l 750 258 q 717 148 736 191 q 665 82 697 105 q 581 48 632 58 q 454 34 530 37 l 281 27 l 281 488 l 472 484 q 536 470 514 483 q 570 429 559 458 q 591 349 582 400 l 611 349 l 611 654 l 591 654 q 569 574 581 604 q 535 533 557 545 q 472 519 513 521 l 281 515 l 281 952 l 427 947 q 548 933 499 944 q 629 901 597 923 q 682 842 661 880 q 715 748 702 805 l 737 748 l 726 979 m 250 1020 l 429 1084 l 409 1084 l 588 1020 l 588 1042 l 429 1155 l 408 1155 l 250 1042 l 250 1020 m 493 1196 q 562 1221 535 1196 q 588 1297 588 1246 l 563 1297 q 548 1263 562 1273 q 512 1253 534 1253 q 484 1256 498 1253 q 448 1265 469 1259 l 429 1272 q 387 1282 408 1278 q 344 1286 367 1286 q 276 1261 302 1286 q 250 1186 249 1236 l 275 1186 q 289 1220 275 1210 q 326 1230 302 1230 q 354 1227 339 1230 q 389 1217 369 1224 l 409 1211 q 450 1200 429 1204 q 493 1196 470 1196 z "},"Ể":{"ha":814,"x_min":38,"x_max":772,"o":"m 726 979 l 38 979 l 38 956 q 100 942 80 950 q 127 917 121 933 q 134 870 134 900 l 134 109 q 127 63 134 79 q 100 38 121 46 q 38 23 80 29 l 38 0 l 759 0 l 772 258 l 750 258 q 717 148 736 191 q 665 82 697 105 q 581 48 632 58 q 454 34 530 37 l 281 27 l 281 488 l 472 484 q 536 470 514 483 q 570 429 559 458 q 591 349 582 400 l 611 349 l 611 654 l 591 654 q 569 574 581 604 q 535 533 557 545 q 472 519 513 521 l 281 515 l 281 952 l 427 947 q 548 933 499 944 q 629 901 597 923 q 682 842 661 880 q 715 748 702 805 l 737 748 l 726 979 m 250 1020 l 429 1084 l 409 1084 l 588 1020 l 588 1042 l 429 1155 l 408 1155 l 250 1042 l 250 1020 m 562 1282 q 500 1268 525 1282 q 461 1240 475 1255 l 461 1221 q 488 1233 471 1228 q 526 1237 505 1237 q 570 1226 553 1237 q 586 1198 586 1216 q 571 1168 586 1181 q 526 1147 556 1156 l 547 1134 q 633 1163 603 1145 q 664 1214 664 1181 q 633 1264 664 1246 q 562 1282 602 1282 z "},"Ệ":{"ha":814,"x_min":38,"x_max":772,"o":"m 726 979 l 38 979 l 38 956 q 100 942 80 950 q 127 917 121 933 q 134 870 134 900 l 134 109 q 127 63 134 79 q 100 38 121 46 q 38 23 80 29 l 38 0 l 759 0 l 772 258 l 750 258 q 717 148 736 191 q 665 82 697 105 q 581 48 632 58 q 454 34 530 37 l 281 27 l 281 488 l 472 484 q 536 470 514 483 q 570 429 559 458 q 591 349 582 400 l 611 349 l 611 654 l 591 654 q 569 574 581 604 q 535 533 557 545 q 472 519 513 521 l 281 515 l 281 952 l 427 947 q 548 933 499 944 q 629 901 597 923 q 682 842 661 880 q 715 748 702 805 l 737 748 l 726 979 m 284 1042 l 452 1160 l 398 1160 l 564 1042 l 594 1042 l 458 1224 l 393 1224 l 256 1042 l 284 1042 m 416 -133 q 371 -151 389 -133 q 352 -195 352 -170 q 371 -240 352 -221 q 416 -258 389 -258 q 462 -240 444 -258 q 481 -195 481 -221 q 462 -151 481 -170 q 416 -133 444 -133 z "},"Ḙ":{"ha":814,"x_min":38,"x_max":772,"o":"m 726 979 l 38 979 l 38 956 q 100 942 80 950 q 127 917 121 933 q 134 870 134 900 l 134 109 q 127 63 134 79 q 100 38 121 46 q 38 23 80 29 l 38 0 l 759 0 l 772 258 l 750 258 q 717 148 736 191 q 665 82 697 105 q 581 48 632 58 q 454 34 530 37 l 281 27 l 281 488 l 472 484 q 536 470 514 483 q 570 429 559 458 q 591 349 582 400 l 611 349 l 611 654 l 591 654 q 569 574 581 604 q 535 533 557 545 q 472 519 513 521 l 281 515 l 281 952 l 427 947 q 548 933 499 944 q 629 901 597 923 q 682 842 661 880 q 715 748 702 805 l 737 748 l 726 979 z "},"Ě":{"ha":814,"x_min":38,"x_max":772,"o":"m 726 979 l 38 979 l 38 956 q 100 942 80 950 q 127 917 121 933 q 134 870 134 900 l 134 109 q 127 63 134 79 q 100 38 121 46 q 38 23 80 29 l 38 0 l 759 0 l 772 258 l 750 258 q 717 148 736 191 q 665 82 697 105 q 581 48 632 58 q 454 34 530 37 l 281 27 l 281 488 l 472 484 q 536 470 514 483 q 570 429 559 458 q 591 349 582 400 l 611 349 l 611 654 l 591 654 q 569 574 581 604 q 535 533 557 545 q 472 519 513 521 l 281 515 l 281 952 l 427 947 q 548 933 499 944 q 629 901 597 923 q 682 842 661 880 q 715 748 702 805 l 737 748 l 726 979 m 565 1236 l 397 1120 l 451 1120 l 285 1236 l 255 1236 l 391 1055 l 456 1055 l 593 1236 l 565 1236 z "},"Ĕ":{"ha":814,"x_min":38,"x_max":772,"o":"m 726 979 l 38 979 l 38 956 q 100 942 80 950 q 127 917 121 933 q 134 870 134 900 l 134 109 q 127 63 134 79 q 100 38 121 46 q 38 23 80 29 l 38 0 l 759 0 l 772 258 l 750 258 q 717 148 736 191 q 665 82 697 105 q 581 48 632 58 q 454 34 530 37 l 281 27 l 281 488 l 472 484 q 536 470 514 483 q 570 429 559 458 q 591 349 582 400 l 611 349 l 611 654 l 591 654 q 569 574 581 604 q 535 533 557 545 q 472 519 513 521 l 281 515 l 281 952 l 427 947 q 548 933 499 944 q 629 901 597 923 q 682 842 661 880 q 715 748 702 805 l 737 748 l 726 979 m 418 1077 q 505 1100 469 1077 q 558 1160 540 1123 q 577 1237 577 1197 q 575 1267 577 1253 l 551 1267 q 551 1266 551 1267 q 551 1264 551 1265 q 514 1186 551 1217 q 418 1156 477 1156 q 322 1186 359 1156 q 285 1264 285 1217 q 285 1266 285 1265 q 285 1267 285 1267 l 261 1267 q 259 1237 259 1253 q 278 1160 259 1197 q 332 1100 296 1123 q 418 1077 368 1077 z "},"Ȇ":{"ha":814,"x_min":38,"x_max":772,"o":"m 726 979 l 38 979 l 38 956 q 100 942 80 950 q 127 917 121 933 q 134 870 134 900 l 134 109 q 127 63 134 79 q 100 38 121 46 q 38 23 80 29 l 38 0 l 759 0 l 772 258 l 750 258 q 717 148 736 191 q 665 82 697 105 q 581 48 632 58 q 454 34 530 37 l 281 27 l 281 488 l 472 484 q 536 470 514 483 q 570 429 559 458 q 591 349 582 400 l 611 349 l 611 654 l 591 654 q 569 574 581 604 q 535 533 557 545 q 472 519 513 521 l 281 515 l 281 952 l 427 947 q 548 933 499 944 q 629 901 597 923 q 682 842 661 880 q 715 748 702 805 l 737 748 l 726 979 m 418 1267 q 332 1244 367 1267 q 278 1185 296 1221 q 259 1107 259 1148 q 261 1077 259 1091 l 285 1077 q 285 1079 285 1078 q 285 1080 285 1080 q 322 1159 285 1128 q 418 1189 359 1189 q 514 1159 477 1189 q 551 1080 551 1128 q 551 1079 551 1080 q 551 1077 551 1078 l 575 1077 q 577 1107 577 1091 q 558 1185 577 1148 q 504 1244 540 1221 q 418 1267 469 1267 z "},"Ë":{"ha":814,"x_min":38,"x_max":772,"o":"m 726 979 l 38 979 l 38 956 q 100 942 80 950 q 127 917 121 933 q 134 870 134 900 l 134 109 q 127 63 134 79 q 100 38 121 46 q 38 23 80 29 l 38 0 l 759 0 l 772 258 l 750 258 q 717 148 736 191 q 665 82 697 105 q 581 48 632 58 q 454 34 530 37 l 281 27 l 281 488 l 472 484 q 536 470 514 483 q 570 429 559 458 q 591 349 582 400 l 611 349 l 611 654 l 591 654 q 569 574 581 604 q 535 533 557 545 q 472 519 513 521 l 281 515 l 281 952 l 427 947 q 548 933 499 944 q 629 901 597 923 q 682 842 661 880 q 715 748 702 805 l 737 748 l 726 979 z "},"Ẽ":{"ha":814,"x_min":38,"x_max":772,"o":"m 726 979 l 38 979 l 38 956 q 100 942 80 950 q 127 917 121 933 q 134 870 134 900 l 134 109 q 127 63 134 79 q 100 38 121 46 q 38 23 80 29 l 38 0 l 759 0 l 772 258 l 750 258 q 717 148 736 191 q 665 82 697 105 q 581 48 632 58 q 454 34 530 37 l 281 27 l 281 488 l 472 484 q 536 470 514 483 q 570 429 559 458 q 591 349 582 400 l 611 349 l 611 654 l 591 654 q 569 574 581 604 q 535 533 557 545 q 472 519 513 521 l 281 515 l 281 952 l 427 947 q 548 933 499 944 q 629 901 597 923 q 682 842 661 880 q 715 748 702 805 l 737 748 l 726 979 m 490 1058 q 562 1093 533 1058 q 588 1215 591 1128 l 562 1215 q 548 1151 559 1168 q 516 1134 536 1134 q 489 1140 502 1134 q 459 1158 477 1145 l 439 1171 q 394 1199 415 1189 q 347 1209 372 1209 q 274 1174 303 1209 q 248 1053 245 1139 l 275 1053 q 290 1117 277 1099 q 321 1134 302 1134 q 348 1128 335 1134 q 378 1109 361 1122 l 397 1096 q 443 1068 422 1079 q 490 1058 465 1058 z "},"Ḛ":{"ha":814,"x_min":38,"x_max":772,"o":"m 726 979 l 38 979 l 38 956 q 100 942 80 950 q 127 917 121 933 q 134 870 134 900 l 134 109 q 127 63 134 79 q 100 38 121 46 q 38 23 80 29 l 38 0 l 759 0 l 772 258 l 750 258 q 717 148 736 191 q 665 82 697 105 q 581 48 632 58 q 454 34 530 37 l 281 27 l 281 488 l 472 484 q 536 470 514 483 q 570 429 559 458 q 591 349 582 400 l 611 349 l 611 654 l 591 654 q 569 574 581 604 q 535 533 557 545 q 472 519 513 521 l 281 515 l 281 952 l 427 947 q 548 933 499 944 q 629 901 597 923 q 682 842 661 880 q 715 748 702 805 l 737 748 l 726 979 z "},"Ē":{"ha":814,"x_min":38,"x_max":772,"o":"m 726 979 l 38 979 l 38 956 q 100 942 80 950 q 127 917 121 933 q 134 870 134 900 l 134 109 q 127 63 134 79 q 100 38 121 46 q 38 23 80 29 l 38 0 l 759 0 l 772 258 l 750 258 q 717 148 736 191 q 665 82 697 105 q 581 48 632 58 q 454 34 530 37 l 281 27 l 281 488 l 472 484 q 536 470 514 483 q 570 429 559 458 q 591 349 582 400 l 611 349 l 611 654 l 591 654 q 569 574 581 604 q 535 533 557 545 q 472 519 513 521 l 281 515 l 281 952 l 427 947 q 548 933 499 944 q 629 901 597 923 q 682 842 661 880 q 715 748 702 805 l 737 748 l 726 979 m 259 1087 l 578 1087 l 578 1156 l 259 1156 l 259 1087 z "},"Ḗ":{"ha":814,"x_min":38,"x_max":772,"o":"m 726 979 l 38 979 l 38 956 q 100 942 80 950 q 127 917 121 933 q 134 870 134 900 l 134 109 q 127 63 134 79 q 100 38 121 46 q 38 23 80 29 l 38 0 l 759 0 l 772 258 l 750 258 q 717 148 736 191 q 665 82 697 105 q 581 48 632 58 q 454 34 530 37 l 281 27 l 281 488 l 472 484 q 536 470 514 483 q 570 429 559 458 q 591 349 582 400 l 611 349 l 611 654 l 591 654 q 569 574 581 604 q 535 533 557 545 q 472 519 513 521 l 281 515 l 281 952 l 427 947 q 548 933 499 944 q 629 901 597 923 q 682 842 661 880 q 715 748 702 805 l 737 748 l 726 979 m 249 1082 l 588 1082 l 588 1138 l 249 1138 l 249 1082 m 587 1244 l 587 1320 l 249 1215 l 249 1193 l 587 1244 z "},"Ḕ":{"ha":814,"x_min":38,"x_max":772,"o":"m 726 979 l 38 979 l 38 956 q 100 942 80 950 q 127 917 121 933 q 134 870 134 900 l 134 109 q 127 63 134 79 q 100 38 121 46 q 38 23 80 29 l 38 0 l 759 0 l 772 258 l 750 258 q 717 148 736 191 q 665 82 697 105 q 581 48 632 58 q 454 34 530 37 l 281 27 l 281 488 l 472 484 q 536 470 514 483 q 570 429 559 458 q 591 349 582 400 l 611 349 l 611 654 l 591 654 q 569 574 581 604 q 535 533 557 545 q 472 519 513 521 l 281 515 l 281 952 l 427 947 q 548 933 499 944 q 629 901 597 923 q 682 842 661 880 q 715 748 702 805 l 737 748 l 726 979 m 249 1082 l 588 1082 l 588 1138 l 249 1138 l 249 1082 m 250 1244 l 588 1193 l 588 1215 l 250 1320 l 250 1244 z "},"Ẻ":{"ha":814,"x_min":38,"x_max":772,"o":"m 726 979 l 38 979 l 38 956 q 100 942 80 950 q 127 917 121 933 q 134 870 134 900 l 134 109 q 127 63 134 79 q 100 38 121 46 q 38 23 80 29 l 38 0 l 759 0 l 772 258 l 750 258 q 717 148 736 191 q 665 82 697 105 q 581 48 632 58 q 454 34 530 37 l 281 27 l 281 488 l 472 484 q 536 470 514 483 q 570 429 559 458 q 591 349 582 400 l 611 349 l 611 654 l 591 654 q 569 574 581 604 q 535 533 557 545 q 472 519 513 521 l 281 515 l 281 952 l 427 947 q 548 933 499 944 q 629 901 597 923 q 682 842 661 880 q 715 748 702 805 l 737 748 l 726 979 m 433 1254 q 359 1235 389 1254 q 313 1189 328 1216 l 313 1170 q 345 1190 326 1182 q 389 1198 365 1198 q 438 1184 420 1198 q 456 1147 456 1170 q 436 1099 456 1122 q 378 1051 416 1076 l 404 1051 q 507 1112 477 1082 q 536 1175 536 1141 q 507 1232 536 1210 q 433 1254 479 1254 z "},"Ė":{"ha":814,"x_min":38,"x_max":772,"o":"m 726 979 l 38 979 l 38 956 q 100 942 80 950 q 127 917 121 933 q 134 870 134 900 l 134 109 q 127 63 134 79 q 100 38 121 46 q 38 23 80 29 l 38 0 l 759 0 l 772 258 l 750 258 q 717 148 736 191 q 665 82 697 105 q 581 48 632 58 q 454 34 530 37 l 281 27 l 281 488 l 472 484 q 536 470 514 483 q 570 429 559 458 q 591 349 582 400 l 611 349 l 611 654 l 591 654 q 569 574 581 604 q 535 533 557 545 q 472 519 513 521 l 281 515 l 281 952 l 427 947 q 548 933 499 944 q 629 901 597 923 q 682 842 661 880 q 715 748 702 805 l 737 748 l 726 979 m 418 1071 q 464 1089 446 1071 q 483 1134 483 1108 q 464 1178 483 1160 q 418 1196 446 1196 q 373 1178 391 1196 q 354 1134 354 1160 q 373 1089 354 1108 q 418 1071 391 1071 z "},"Ẹ":{"ha":814,"x_min":38,"x_max":772,"o":"m 726 979 l 38 979 l 38 956 q 100 942 80 950 q 127 917 121 933 q 134 870 134 900 l 134 109 q 127 63 134 79 q 100 38 121 46 q 38 23 80 29 l 38 0 l 759 0 l 772 258 l 750 258 q 717 148 736 191 q 665 82 697 105 q 581 48 632 58 q 454 34 530 37 l 281 27 l 281 488 l 472 484 q 536 470 514 483 q 570 429 559 458 q 591 349 582 400 l 611 349 l 611 654 l 591 654 q 569 574 581 604 q 535 533 557 545 q 472 519 513 521 l 281 515 l 281 952 l 427 947 q 548 933 499 944 q 629 901 597 923 q 682 842 661 880 q 715 748 702 805 l 737 748 l 726 979 m 416 -133 q 371 -151 389 -133 q 352 -195 352 -170 q 371 -240 352 -221 q 416 -258 389 -258 q 462 -240 444 -258 q 481 -195 481 -221 q 462 -151 481 -170 q 416 -133 444 -133 z "},"Ȩ":{"ha":814,"x_min":38,"x_max":772,"o":"m 726 979 l 38 979 l 38 956 q 100 942 80 950 q 127 917 121 933 q 134 870 134 900 l 134 109 q 127 63 134 79 q 100 38 121 46 q 38 23 80 29 l 38 0 l 759 0 l 772 258 l 750 258 q 717 148 736 191 q 665 82 697 105 q 581 48 632 58 q 454 34 530 37 l 281 27 l 281 488 l 472 484 q 536 470 514 483 q 570 429 559 458 q 591 349 582 400 l 611 349 l 611 654 l 591 654 q 569 574 581 604 q 535 533 557 545 q 472 519 513 521 l 281 515 l 281 952 l 427 947 q 548 933 499 944 q 629 901 597 923 q 682 842 661 880 q 715 748 702 805 l 737 748 l 726 979 m 397 -305 q 465 -292 433 -305 q 516 -253 496 -279 q 536 -191 536 -227 q 519 -131 536 -156 q 473 -91 502 -105 q 410 -77 444 -77 q 383 -80 396 -77 q 362 -87 370 -82 l 359 -113 l 437 -5 l 437 7 l 415 7 l 317 -121 l 318 -144 q 353 -138 332 -138 q 407 -152 385 -138 q 429 -194 429 -167 q 408 -236 429 -221 q 355 -252 387 -252 q 307 -245 331 -252 q 270 -227 283 -238 l 269 -250 q 319 -290 285 -274 q 397 -305 353 -305 z "},"Ḝ":{"ha":814,"x_min":38,"x_max":772,"o":"m 726 979 l 38 979 l 38 956 q 100 942 80 950 q 127 917 121 933 q 134 870 134 900 l 134 109 q 127 63 134 79 q 100 38 121 46 q 38 23 80 29 l 38 0 l 759 0 l 772 258 l 750 258 q 717 148 736 191 q 665 82 697 105 q 581 48 632 58 q 454 34 530 37 l 281 27 l 281 488 l 472 484 q 536 470 514 483 q 570 429 559 458 q 591 349 582 400 l 611 349 l 611 654 l 591 654 q 569 574 581 604 q 535 533 557 545 q 472 519 513 521 l 281 515 l 281 952 l 427 947 q 548 933 499 944 q 629 901 597 923 q 682 842 661 880 q 715 748 702 805 l 737 748 l 726 979 m 397 -305 q 465 -292 433 -305 q 516 -253 496 -279 q 536 -191 536 -227 q 519 -131 536 -156 q 473 -91 502 -105 q 410 -77 444 -77 q 383 -80 396 -77 q 362 -87 370 -82 l 359 -113 l 437 -5 l 437 7 l 415 7 l 317 -121 l 318 -144 q 353 -138 332 -138 q 407 -152 385 -138 q 429 -194 429 -167 q 408 -236 429 -221 q 355 -252 387 -252 q 307 -245 331 -252 q 270 -227 283 -238 l 269 -250 q 319 -290 285 -274 q 397 -305 353 -305 m 418 1077 q 505 1100 469 1077 q 558 1160 540 1123 q 577 1237 577 1197 q 575 1267 577 1253 l 551 1267 q 551 1266 551 1267 q 551 1264 551 1265 q 514 1186 551 1217 q 418 1156 477 1156 q 322 1186 359 1156 q 285 1264 285 1217 q 285 1266 285 1265 q 285 1267 285 1267 l 261 1267 q 259 1237 259 1253 q 278 1160 259 1197 q 332 1100 296 1123 q 418 1077 368 1077 z "},"Ę":{"ha":814,"x_min":38,"x_max":772,"o":"m 726 979 l 38 979 l 38 956 q 100 942 80 950 q 127 917 121 933 q 134 870 134 900 l 134 109 q 127 63 134 79 q 100 38 121 46 q 38 23 80 29 l 38 0 l 759 0 l 772 258 l 750 258 q 717 148 736 191 q 665 82 697 105 q 581 48 632 58 q 454 34 530 37 l 281 27 l 281 488 l 472 484 q 536 470 514 483 q 570 429 559 458 q 591 349 582 400 l 611 349 l 611 654 l 591 654 q 569 574 581 604 q 535 533 557 545 q 472 519 513 521 l 281 515 l 281 952 l 427 947 q 548 933 499 944 q 629 901 597 923 q 682 842 661 880 q 715 748 702 805 l 737 748 l 726 979 m 656 -324 q 727 -306 696 -324 q 772 -259 758 -288 l 771 -236 q 748 -253 762 -246 q 717 -260 734 -260 q 655 -222 680 -260 q 630 -129 630 -184 q 639 -56 630 -90 q 665 1 648 -22 l 642 1 q 561 -95 591 -43 q 531 -201 531 -146 q 567 -291 531 -257 q 656 -324 602 -324 z "},"F":{"ha":740,"x_min":38,"x_max":711,"o":"m 701 979 l 38 979 l 38 956 q 100 942 80 950 q 127 917 121 933 q 134 870 134 900 l 134 109 q 127 63 134 79 q 100 38 121 46 q 38 23 80 29 l 38 0 l 385 0 l 385 23 q 317 39 340 29 q 288 67 295 48 q 281 119 281 85 l 281 483 l 444 479 q 508 465 486 477 q 541 424 530 452 q 562 344 553 395 l 582 344 l 582 649 l 562 649 q 540 569 551 597 q 507 528 528 540 q 444 514 485 515 l 281 510 l 281 952 l 413 947 q 529 934 481 944 q 607 902 576 924 q 657 843 637 880 q 690 748 677 806 l 711 748 l 701 979 z "},"Ḟ":{"ha":740,"x_min":38,"x_max":711,"o":"m 701 979 l 38 979 l 38 956 q 100 942 80 950 q 127 917 121 933 q 134 870 134 900 l 134 109 q 127 63 134 79 q 100 38 121 46 q 38 23 80 29 l 38 0 l 385 0 l 385 23 q 317 39 340 29 q 288 67 295 48 q 281 119 281 85 l 281 483 l 444 479 q 508 465 486 477 q 541 424 530 452 q 562 344 553 395 l 582 344 l 582 649 l 562 649 q 540 569 551 597 q 507 528 528 540 q 444 514 485 515 l 281 510 l 281 952 l 413 947 q 529 934 481 944 q 607 902 576 924 q 657 843 637 880 q 690 748 677 806 l 711 748 l 701 979 m 401 1071 q 447 1089 428 1071 q 465 1134 465 1108 q 447 1178 465 1160 q 401 1196 428 1196 q 355 1178 374 1196 q 336 1134 336 1160 q 355 1089 336 1108 q 401 1071 374 1071 z "},"G":{"ha":1025,"x_min":64,"x_max":1008,"o":"m 64 497 q 102 286 64 380 q 209 124 140 191 q 369 21 277 57 q 570 -14 461 -14 q 762 14 669 -14 q 913 87 855 41 l 913 344 q 920 393 913 376 q 947 417 926 410 q 1008 429 967 425 l 1008 452 l 677 452 l 677 429 q 742 417 721 425 q 770 393 764 410 q 777 344 777 376 l 777 77 q 694 35 746 51 q 576 20 642 20 q 427 59 492 20 q 318 167 362 98 q 251 324 274 235 q 229 511 229 412 q 270 748 229 647 q 387 904 311 848 q 570 960 464 960 q 711 930 651 960 q 810 843 771 900 q 868 703 850 785 l 889 703 l 880 924 q 765 973 842 952 q 564 994 688 994 q 371 961 461 994 q 211 865 280 928 q 103 710 142 802 q 64 497 64 617 z "},"Ǵ":{"ha":1025,"x_min":64,"x_max":1008,"o":"m 64 497 q 102 286 64 380 q 209 124 140 191 q 369 21 277 57 q 570 -14 461 -14 q 762 14 669 -14 q 913 87 855 41 l 913 344 q 920 393 913 376 q 947 417 926 410 q 1008 429 967 425 l 1008 452 l 677 452 l 677 429 q 742 417 721 425 q 770 393 764 410 q 777 344 777 376 l 777 77 q 694 35 746 51 q 576 20 642 20 q 427 59 492 20 q 318 167 362 98 q 251 324 274 235 q 229 511 229 412 q 270 748 229 647 q 387 904 311 848 q 570 960 464 960 q 711 930 651 960 q 810 843 771 900 q 868 703 850 785 l 889 703 l 880 924 q 765 973 842 952 q 564 994 688 994 q 371 961 461 994 q 211 865 280 928 q 103 710 142 802 q 64 497 64 617 m 529 1042 l 732 1221 l 732 1225 l 591 1225 l 500 1043 l 529 1042 z "},"Ĝ":{"ha":1025,"x_min":64,"x_max":1008,"o":"m 64 497 q 102 286 64 380 q 209 124 140 191 q 369 21 277 57 q 570 -14 461 -14 q 762 14 669 -14 q 913 87 855 41 l 913 344 q 920 393 913 376 q 947 417 926 410 q 1008 429 967 425 l 1008 452 l 677 452 l 677 429 q 742 417 721 425 q 770 393 764 410 q 777 344 777 376 l 777 77 q 694 35 746 51 q 576 20 642 20 q 427 59 492 20 q 318 167 362 98 q 251 324 274 235 q 229 511 229 412 q 270 748 229 647 q 387 904 311 848 q 570 960 464 960 q 711 930 651 960 q 810 843 771 900 q 868 703 850 785 l 889 703 l 880 924 q 765 973 842 952 q 564 994 688 994 q 371 961 461 994 q 211 865 280 928 q 103 710 142 802 q 64 497 64 617 m 427 1042 l 594 1160 l 541 1160 l 707 1042 l 736 1042 l 600 1224 l 535 1224 l 399 1042 l 427 1042 z "},"Ǧ":{"ha":1025,"x_min":64,"x_max":1008,"o":"m 64 497 q 102 286 64 380 q 209 124 140 191 q 369 21 277 57 q 570 -14 461 -14 q 762 14 669 -14 q 913 87 855 41 l 913 344 q 920 393 913 376 q 947 417 926 410 q 1008 429 967 425 l 1008 452 l 677 452 l 677 429 q 742 417 721 425 q 770 393 764 410 q 777 344 777 376 l 777 77 q 694 35 746 51 q 576 20 642 20 q 427 59 492 20 q 318 167 362 98 q 251 324 274 235 q 229 511 229 412 q 270 748 229 647 q 387 904 311 848 q 570 960 464 960 q 711 930 651 960 q 810 843 771 900 q 868 703 850 785 l 889 703 l 880 924 q 765 973 842 952 q 564 994 688 994 q 371 961 461 994 q 211 865 280 928 q 103 710 142 802 q 64 497 64 617 m 707 1236 l 540 1120 l 593 1120 l 427 1236 l 397 1236 l 534 1055 l 599 1055 l 735 1236 l 707 1236 z "},"Ğ":{"ha":1025,"x_min":64,"x_max":1008,"o":"m 64 497 q 102 286 64 380 q 209 124 140 191 q 369 21 277 57 q 570 -14 461 -14 q 762 14 669 -14 q 913 87 855 41 l 913 344 q 920 393 913 376 q 947 417 926 410 q 1008 429 967 425 l 1008 452 l 677 452 l 677 429 q 742 417 721 425 q 770 393 764 410 q 777 344 777 376 l 777 77 q 694 35 746 51 q 576 20 642 20 q 427 59 492 20 q 318 167 362 98 q 251 324 274 235 q 229 511 229 412 q 270 748 229 647 q 387 904 311 848 q 570 960 464 960 q 711 930 651 960 q 810 843 771 900 q 868 703 850 785 l 889 703 l 880 924 q 765 973 842 952 q 564 994 688 994 q 371 961 461 994 q 211 865 280 928 q 103 710 142 802 q 64 497 64 617 m 561 1077 q 647 1100 612 1077 q 701 1160 682 1123 q 720 1237 720 1197 q 718 1267 720 1253 l 694 1267 q 694 1266 694 1267 q 694 1264 694 1265 q 657 1186 694 1217 q 560 1156 620 1156 q 464 1186 501 1156 q 427 1264 427 1217 q 427 1266 427 1265 q 427 1267 427 1267 l 404 1267 q 401 1237 401 1253 q 420 1160 401 1197 q 475 1100 439 1123 q 561 1077 511 1077 z "},"Ḡ":{"ha":1025,"x_min":64,"x_max":1008,"o":"m 64 497 q 102 286 64 380 q 209 124 140 191 q 369 21 277 57 q 570 -14 461 -14 q 762 14 669 -14 q 913 87 855 41 l 913 344 q 920 393 913 376 q 947 417 926 410 q 1008 429 967 425 l 1008 452 l 677 452 l 677 429 q 742 417 721 425 q 770 393 764 410 q 777 344 777 376 l 777 77 q 694 35 746 51 q 576 20 642 20 q 427 59 492 20 q 318 167 362 98 q 251 324 274 235 q 229 511 229 412 q 270 748 229 647 q 387 904 311 848 q 570 960 464 960 q 711 930 651 960 q 810 843 771 900 q 868 703 850 785 l 889 703 l 880 924 q 765 973 842 952 q 564 994 688 994 q 371 961 461 994 q 211 865 280 928 q 103 710 142 802 q 64 497 64 617 m 401 1087 l 721 1087 l 721 1156 l 401 1156 l 401 1087 z "},"Ġ":{"ha":1025,"x_min":64,"x_max":1008,"o":"m 64 497 q 102 286 64 380 q 209 124 140 191 q 369 21 277 57 q 570 -14 461 -14 q 762 14 669 -14 q 913 87 855 41 l 913 344 q 920 393 913 376 q 947 417 926 410 q 1008 429 967 425 l 1008 452 l 677 452 l 677 429 q 742 417 721 425 q 770 393 764 410 q 777 344 777 376 l 777 77 q 694 35 746 51 q 576 20 642 20 q 427 59 492 20 q 318 167 362 98 q 251 324 274 235 q 229 511 229 412 q 270 748 229 647 q 387 904 311 848 q 570 960 464 960 q 711 930 651 960 q 810 843 771 900 q 868 703 850 785 l 889 703 l 880 924 q 765 973 842 952 q 564 994 688 994 q 371 961 461 994 q 211 865 280 928 q 103 710 142 802 q 64 497 64 617 m 561 1071 q 607 1089 588 1071 q 625 1134 625 1108 q 607 1178 625 1160 q 561 1196 588 1196 q 515 1178 534 1196 q 496 1134 496 1160 q 515 1089 496 1108 q 561 1071 534 1071 z "},"Ģ":{"ha":1025,"x_min":64,"x_max":1008,"o":"m 64 497 q 102 286 64 380 q 209 124 140 191 q 369 21 277 57 q 570 -14 461 -14 q 762 14 669 -14 q 913 87 855 41 l 913 344 q 920 393 913 376 q 947 417 926 410 q 1008 429 967 425 l 1008 452 l 677 452 l 677 429 q 742 417 721 425 q 770 393 764 410 q 777 344 777 376 l 777 77 q 694 35 746 51 q 576 20 642 20 q 427 59 492 20 q 318 167 362 98 q 251 324 274 235 q 229 511 229 412 q 270 748 229 647 q 387 904 311 848 q 570 960 464 960 q 711 930 651 960 q 810 843 771 900 q 868 703 850 785 l 889 703 l 880 924 q 765 973 842 952 q 564 994 688 994 q 371 961 461 994 q 211 865 280 928 q 103 710 142 802 q 64 497 64 617 m 564 -305 q 667 -275 627 -305 q 707 -195 707 -244 q 671 -115 707 -144 q 581 -85 635 -85 q 515 -101 541 -85 q 475 -136 488 -117 l 475 -157 q 498 -150 484 -153 q 529 -146 513 -146 q 582 -161 561 -146 q 603 -201 603 -175 q 582 -241 603 -227 q 528 -256 561 -256 q 477 -247 500 -256 q 437 -225 453 -238 l 437 -248 q 487 -289 452 -272 q 564 -305 522 -305 z "},"H":{"ha":1051,"x_min":38,"x_max":1013,"o":"m 281 105 l 281 874 q 288 918 281 903 q 314 942 294 934 q 373 956 334 950 l 373 979 l 38 979 l 38 956 q 100 942 80 950 q 127 917 121 933 q 134 870 134 900 l 134 109 q 127 63 134 79 q 100 38 121 46 q 38 23 80 29 l 38 0 l 373 0 l 373 23 q 314 37 334 29 q 288 61 294 45 q 281 105 281 77 m 917 109 l 917 870 q 924 917 917 901 q 952 942 931 933 q 1013 956 972 950 l 1013 979 l 678 979 l 678 956 q 738 942 718 950 q 764 919 758 934 q 770 874 770 903 l 770 105 q 764 61 770 77 q 738 37 758 45 q 678 23 718 29 l 678 0 l 1013 0 l 1013 23 q 952 38 972 29 q 924 63 931 46 q 917 109 917 79 m 208 486 l 844 486 l 844 517 l 208 517 l 208 486 z "},"Ĥ":{"ha":1051,"x_min":38,"x_max":1013,"o":"m 281 105 l 281 874 q 288 918 281 903 q 314 942 294 934 q 373 956 334 950 l 373 979 l 38 979 l 38 956 q 100 942 80 950 q 127 917 121 933 q 134 870 134 900 l 134 109 q 127 63 134 79 q 100 38 121 46 q 38 23 80 29 l 38 0 l 373 0 l 373 23 q 314 37 334 29 q 288 61 294 45 q 281 105 281 77 m 917 109 l 917 870 q 924 917 917 901 q 952 942 931 933 q 1013 956 972 950 l 1013 979 l 678 979 l 678 956 q 738 942 718 950 q 764 919 758 934 q 770 874 770 903 l 770 105 q 764 61 770 77 q 738 37 758 45 q 678 23 718 29 l 678 0 l 1013 0 l 1013 23 q 952 38 972 29 q 924 63 931 46 q 917 109 917 79 m 208 486 l 844 486 l 844 517 l 208 517 l 208 486 m 392 1042 l 559 1160 l 506 1160 l 672 1042 l 702 1042 l 566 1224 l 500 1224 l 364 1042 l 392 1042 z "},"Ȟ":{"ha":1051,"x_min":38,"x_max":1013,"o":"m 281 105 l 281 874 q 288 918 281 903 q 314 942 294 934 q 373 956 334 950 l 373 979 l 38 979 l 38 956 q 100 942 80 950 q 127 917 121 933 q 134 870 134 900 l 134 109 q 127 63 134 79 q 100 38 121 46 q 38 23 80 29 l 38 0 l 373 0 l 373 23 q 314 37 334 29 q 288 61 294 45 q 281 105 281 77 m 917 109 l 917 870 q 924 917 917 901 q 952 942 931 933 q 1013 956 972 950 l 1013 979 l 678 979 l 678 956 q 738 942 718 950 q 764 919 758 934 q 770 874 770 903 l 770 105 q 764 61 770 77 q 738 37 758 45 q 678 23 718 29 l 678 0 l 1013 0 l 1013 23 q 952 38 972 29 q 924 63 931 46 q 917 109 917 79 m 208 486 l 844 486 l 844 517 l 208 517 l 208 486 m 673 1236 l 505 1120 l 559 1120 l 393 1236 l 363 1236 l 499 1055 l 564 1055 l 701 1236 l 673 1236 z "},"Ḫ":{"ha":1051,"x_min":38,"x_max":1013,"o":"m 281 105 l 281 874 q 288 918 281 903 q 314 942 294 934 q 373 956 334 950 l 373 979 l 38 979 l 38 956 q 100 942 80 950 q 127 917 121 933 q 134 870 134 900 l 134 109 q 127 63 134 79 q 100 38 121 46 q 38 23 80 29 l 38 0 l 373 0 l 373 23 q 314 37 334 29 q 288 61 294 45 q 281 105 281 77 m 917 109 l 917 870 q 924 917 917 901 q 952 942 931 933 q 1013 956 972 950 l 1013 979 l 678 979 l 678 956 q 738 942 718 950 q 764 919 758 934 q 770 874 770 903 l 770 105 q 764 61 770 77 q 738 37 758 45 q 678 23 718 29 l 678 0 l 1013 0 l 1013 23 q 952 38 972 29 q 924 63 931 46 q 917 109 917 79 m 208 486 l 844 486 l 844 517 l 208 517 l 208 486 z "},"Ḧ":{"ha":1051,"x_min":38,"x_max":1013,"o":"m 281 105 l 281 874 q 288 918 281 903 q 314 942 294 934 q 373 956 334 950 l 373 979 l 38 979 l 38 956 q 100 942 80 950 q 127 917 121 933 q 134 870 134 900 l 134 109 q 127 63 134 79 q 100 38 121 46 q 38 23 80 29 l 38 0 l 373 0 l 373 23 q 314 37 334 29 q 288 61 294 45 q 281 105 281 77 m 917 109 l 917 870 q 924 917 917 901 q 952 942 931 933 q 1013 956 972 950 l 1013 979 l 678 979 l 678 956 q 738 942 718 950 q 764 919 758 934 q 770 874 770 903 l 770 105 q 764 61 770 77 q 738 37 758 45 q 678 23 718 29 l 678 0 l 1013 0 l 1013 23 q 952 38 972 29 q 924 63 931 46 q 917 109 917 79 m 208 486 l 844 486 l 844 517 l 208 517 l 208 486 z "},"Ḣ":{"ha":1051,"x_min":38,"x_max":1013,"o":"m 281 105 l 281 874 q 288 918 281 903 q 314 942 294 934 q 373 956 334 950 l 373 979 l 38 979 l 38 956 q 100 942 80 950 q 127 917 121 933 q 134 870 134 900 l 134 109 q 127 63 134 79 q 100 38 121 46 q 38 23 80 29 l 38 0 l 373 0 l 373 23 q 314 37 334 29 q 288 61 294 45 q 281 105 281 77 m 917 109 l 917 870 q 924 917 917 901 q 952 942 931 933 q 1013 956 972 950 l 1013 979 l 678 979 l 678 956 q 738 942 718 950 q 764 919 758 934 q 770 874 770 903 l 770 105 q 764 61 770 77 q 738 37 758 45 q 678 23 718 29 l 678 0 l 1013 0 l 1013 23 q 952 38 972 29 q 924 63 931 46 q 917 109 917 79 m 208 486 l 844 486 l 844 517 l 208 517 l 208 486 m 526 1071 q 572 1089 553 1071 q 591 1134 591 1108 q 572 1178 591 1160 q 526 1196 553 1196 q 480 1178 499 1196 q 462 1134 462 1160 q 480 1089 462 1108 q 526 1071 499 1071 z "},"Ḥ":{"ha":1051,"x_min":38,"x_max":1013,"o":"m 281 105 l 281 874 q 288 918 281 903 q 314 942 294 934 q 373 956 334 950 l 373 979 l 38 979 l 38 956 q 100 942 80 950 q 127 917 121 933 q 134 870 134 900 l 134 109 q 127 63 134 79 q 100 38 121 46 q 38 23 80 29 l 38 0 l 373 0 l 373 23 q 314 37 334 29 q 288 61 294 45 q 281 105 281 77 m 917 109 l 917 870 q 924 917 917 901 q 952 942 931 933 q 1013 956 972 950 l 1013 979 l 678 979 l 678 956 q 738 942 718 950 q 764 919 758 934 q 770 874 770 903 l 770 105 q 764 61 770 77 q 738 37 758 45 q 678 23 718 29 l 678 0 l 1013 0 l 1013 23 q 952 38 972 29 q 924 63 931 46 q 917 109 917 79 m 208 486 l 844 486 l 844 517 l 208 517 l 208 486 m 526 -133 q 480 -151 499 -133 q 462 -195 462 -170 q 480 -240 462 -221 q 526 -258 499 -258 q 572 -240 553 -258 q 591 -195 591 -221 q 572 -151 591 -170 q 526 -133 553 -133 z "},"Ḩ":{"ha":1051,"x_min":38,"x_max":1013,"o":"m 186 -305 q 254 -292 222 -305 q 306 -253 286 -279 q 326 -191 326 -227 q 308 -131 326 -156 q 262 -91 291 -105 q 199 -77 233 -77 q 172 -80 185 -77 q 151 -87 159 -82 l 149 -113 l 227 0 l 227 12 l 204 12 l 107 -121 l 107 -144 q 142 -138 121 -138 q 196 -152 174 -138 q 218 -194 218 -167 q 197 -236 218 -221 q 144 -252 176 -252 q 96 -245 120 -252 q 59 -227 73 -238 l 58 -250 q 108 -290 74 -274 q 186 -305 142 -305 m 281 105 l 281 874 q 288 918 281 903 q 314 942 294 934 q 373 956 334 950 l 373 979 l 38 979 l 38 956 q 100 942 80 950 q 127 917 121 933 q 134 870 134 900 l 134 109 q 127 63 134 79 q 100 38 121 46 q 38 23 80 29 l 38 0 l 373 0 l 373 23 q 314 37 334 29 q 288 61 294 45 q 281 105 281 77 m 917 109 l 917 870 q 924 917 917 901 q 952 942 931 933 q 1013 956 972 950 l 1013 979 l 678 979 l 678 956 q 738 942 718 950 q 764 919 758 934 q 770 874 770 903 l 770 105 q 764 61 770 77 q 738 37 758 45 q 678 23 718 29 l 678 0 l 1013 0 l 1013 23 q 952 38 972 29 q 924 63 931 46 q 917 109 917 79 m 208 486 l 844 486 l 844 517 l 208 517 l 208 486 z "},"Ħ":{"ha":1051,"x_min":38,"x_max":1013,"o":"m 281 105 l 281 874 q 288 918 281 903 q 314 942 294 934 q 373 956 334 950 l 373 979 l 38 979 l 38 956 q 100 942 80 950 q 127 917 121 933 q 134 870 134 900 l 134 109 q 127 63 134 79 q 100 38 121 46 q 38 23 80 29 l 38 0 l 373 0 l 373 23 q 314 37 334 29 q 288 61 294 45 q 281 105 281 77 m 917 109 l 917 870 q 924 917 917 901 q 952 942 931 933 q 1013 956 972 950 l 1013 979 l 678 979 l 678 956 q 738 942 718 950 q 764 919 758 934 q 770 874 770 903 l 770 105 q 764 61 770 77 q 738 37 758 45 q 678 23 718 29 l 678 0 l 1013 0 l 1013 23 q 952 38 972 29 q 924 63 931 46 q 917 109 917 79 m 208 486 l 844 486 l 844 517 l 208 517 l 208 486 m 38 721 l 1013 721 l 1013 753 l 38 753 l 38 721 z "},"I":{"ha":415,"x_min":38,"x_max":377,"o":"m 281 109 l 281 870 q 288 917 281 900 q 315 942 294 933 q 377 956 336 950 l 377 979 l 38 979 l 38 956 q 100 942 80 950 q 127 917 121 933 q 134 870 134 900 l 134 109 q 127 63 134 79 q 100 38 121 46 q 38 23 80 29 l 38 0 l 377 0 l 377 23 q 315 38 336 29 q 288 63 294 46 q 281 109 281 79 z "},"Í":{"ha":415,"x_min":38,"x_max":379,"o":"m 281 109 l 281 870 q 288 917 281 900 q 315 942 294 933 q 377 956 336 950 l 377 979 l 38 979 l 38 956 q 100 942 80 950 q 127 917 121 933 q 134 870 134 900 l 134 109 q 127 63 134 79 q 100 38 121 46 q 38 23 80 29 l 38 0 l 377 0 l 377 23 q 315 38 336 29 q 288 63 294 46 q 281 109 281 79 m 176 1042 l 379 1221 l 379 1225 l 238 1225 l 146 1043 l 176 1042 z "},"Ì":{"ha":415,"x_min":38,"x_max":377,"o":"m 281 109 l 281 870 q 288 917 281 900 q 315 942 294 933 q 377 956 336 950 l 377 979 l 38 979 l 38 956 q 100 942 80 950 q 127 917 121 933 q 134 870 134 900 l 134 109 q 127 63 134 79 q 100 38 121 46 q 38 23 80 29 l 38 0 l 377 0 l 377 23 q 315 38 336 29 q 288 63 294 46 q 281 109 281 79 m 252 1042 l 280 1042 l 193 1224 l 46 1224 l 46 1221 l 252 1042 z "},"Ȉ":{"ha":415,"x_min":-56,"x_max":377,"o":"m 281 109 l 281 870 q 288 917 281 900 q 315 942 294 933 q 377 956 336 950 l 377 979 l 38 979 l 38 956 q 100 942 80 950 q 127 917 121 933 q 134 870 134 900 l 134 109 q 127 63 134 79 q 100 38 121 46 q 38 23 80 29 l 38 0 l 377 0 l 377 23 q 315 38 336 29 q 288 63 294 46 q 281 109 281 79 m 73 1224 l -56 1224 l -56 1221 l 134 1042 l 164 1042 l 73 1224 m 283 1224 l 163 1224 l 163 1221 l 307 1042 l 335 1042 l 283 1224 z "},"Î":{"ha":415,"x_min":38,"x_max":383,"o":"m 281 109 l 281 870 q 288 917 281 900 q 315 942 294 933 q 377 956 336 950 l 377 979 l 38 979 l 38 956 q 100 942 80 950 q 127 917 121 933 q 134 870 134 900 l 134 109 q 127 63 134 79 q 100 38 121 46 q 38 23 80 29 l 38 0 l 377 0 l 377 23 q 315 38 336 29 q 288 63 294 46 q 281 109 281 79 m 73 1042 l 241 1160 l 187 1160 l 353 1042 l 383 1042 l 247 1224 l 182 1224 l 45 1042 l 73 1042 z "},"Ǐ":{"ha":415,"x_min":38,"x_max":382,"o":"m 281 109 l 281 870 q 288 917 281 900 q 315 942 294 933 q 377 956 336 950 l 377 979 l 38 979 l 38 956 q 100 942 80 950 q 127 917 121 933 q 134 870 134 900 l 134 109 q 127 63 134 79 q 100 38 121 46 q 38 23 80 29 l 38 0 l 377 0 l 377 23 q 315 38 336 29 q 288 63 294 46 q 281 109 281 79 m 354 1236 l 186 1120 l 240 1120 l 74 1236 l 44 1236 l 180 1055 l 245 1055 l 382 1236 l 354 1236 z "},"Ĭ":{"ha":415,"x_min":38,"x_max":377,"o":"m 281 109 l 281 870 q 288 917 281 900 q 315 942 294 933 q 377 956 336 950 l 377 979 l 38 979 l 38 956 q 100 942 80 950 q 127 917 121 933 q 134 870 134 900 l 134 109 q 127 63 134 79 q 100 38 121 46 q 38 23 80 29 l 38 0 l 377 0 l 377 23 q 315 38 336 29 q 288 63 294 46 q 281 109 281 79 m 208 1077 q 294 1100 258 1077 q 348 1160 329 1123 q 366 1237 366 1197 q 364 1267 366 1253 l 340 1267 q 340 1266 340 1267 q 340 1264 340 1265 q 303 1186 340 1217 q 207 1156 267 1156 q 111 1186 148 1156 q 74 1264 74 1217 q 74 1266 74 1265 q 74 1267 74 1267 l 50 1267 q 48 1237 48 1253 q 67 1160 48 1197 q 121 1100 85 1123 q 208 1077 157 1077 z "},"Ȋ":{"ha":415,"x_min":38,"x_max":377,"o":"m 281 109 l 281 870 q 288 917 281 900 q 315 942 294 933 q 377 956 336 950 l 377 979 l 38 979 l 38 956 q 100 942 80 950 q 127 917 121 933 q 134 870 134 900 l 134 109 q 127 63 134 79 q 100 38 121 46 q 38 23 80 29 l 38 0 l 377 0 l 377 23 q 315 38 336 29 q 288 63 294 46 q 281 109 281 79 m 207 1267 q 121 1244 156 1267 q 67 1185 85 1221 q 48 1107 48 1148 q 50 1077 48 1091 l 74 1077 q 74 1079 74 1078 q 74 1080 74 1080 q 111 1159 74 1128 q 207 1189 148 1189 q 303 1159 267 1189 q 340 1080 340 1128 q 340 1079 340 1080 q 340 1077 340 1078 l 364 1077 q 366 1107 366 1091 q 348 1185 366 1148 q 293 1244 329 1221 q 207 1267 258 1267 z "},"Ï":{"ha":415,"x_min":38,"x_max":377,"o":"m 281 109 l 281 870 q 288 917 281 900 q 315 942 294 933 q 377 956 336 950 l 377 979 l 38 979 l 38 956 q 100 942 80 950 q 127 917 121 933 q 134 870 134 900 l 134 109 q 127 63 134 79 q 100 38 121 46 q 38 23 80 29 l 38 0 l 377 0 l 377 23 q 315 38 336 29 q 288 63 294 46 q 281 109 281 79 z "},"Ḯ":{"ha":415,"x_min":38,"x_max":377,"o":"m 281 109 l 281 870 q 288 917 281 900 q 315 942 294 933 q 377 956 336 950 l 377 979 l 38 979 l 38 956 q 100 942 80 950 q 127 917 121 933 q 134 870 134 900 l 134 109 q 127 63 134 79 q 100 38 121 46 q 38 23 80 29 l 38 0 l 377 0 l 377 23 q 315 38 336 29 q 288 63 294 46 q 281 109 281 79 m 113 1062 q 152 1076 136 1062 q 167 1109 167 1089 q 152 1143 167 1129 q 113 1157 136 1157 l 110 1157 q 72 1143 87 1157 q 56 1109 56 1129 q 72 1076 56 1089 q 110 1062 87 1062 l 113 1062 m 305 1062 q 343 1076 328 1062 q 359 1109 359 1089 q 343 1143 359 1129 q 305 1157 328 1157 l 302 1157 q 263 1143 279 1157 q 248 1109 248 1129 q 263 1076 248 1089 q 302 1062 279 1062 l 305 1062 m 376 1243 l 376 1320 l 38 1214 l 38 1192 l 376 1243 z "},"Ĩ":{"ha":415,"x_min":35,"x_max":380,"o":"m 281 109 l 281 870 q 288 917 281 900 q 315 942 294 933 q 377 956 336 950 l 377 979 l 38 979 l 38 956 q 100 942 80 950 q 127 917 121 933 q 134 870 134 900 l 134 109 q 127 63 134 79 q 100 38 121 46 q 38 23 80 29 l 38 0 l 377 0 l 377 23 q 315 38 336 29 q 288 63 294 46 q 281 109 281 79 m 279 1058 q 351 1093 322 1058 q 377 1215 380 1128 l 351 1215 q 337 1151 349 1168 q 305 1134 325 1134 q 278 1140 291 1134 q 248 1158 266 1145 l 229 1171 q 183 1199 204 1189 q 136 1209 161 1209 q 63 1174 92 1209 q 37 1053 35 1139 l 64 1053 q 79 1117 66 1099 q 110 1134 91 1134 q 137 1128 124 1134 q 167 1109 150 1122 l 186 1096 q 232 1068 211 1079 q 279 1058 254 1058 z "},"Ḭ":{"ha":415,"x_min":38,"x_max":377,"o":"m 281 109 l 281 870 q 288 917 281 900 q 315 942 294 933 q 377 956 336 950 l 377 979 l 38 979 l 38 956 q 100 942 80 950 q 127 917 121 933 q 134 870 134 900 l 134 109 q 127 63 134 79 q 100 38 121 46 q 38 23 80 29 l 38 0 l 377 0 l 377 23 q 315 38 336 29 q 288 63 294 46 q 281 109 281 79 z "},"Ī":{"ha":415,"x_min":38,"x_max":377,"o":"m 281 109 l 281 870 q 288 917 281 900 q 315 942 294 933 q 377 956 336 950 l 377 979 l 38 979 l 38 956 q 100 942 80 950 q 127 917 121 933 q 134 870 134 900 l 134 109 q 127 63 134 79 q 100 38 121 46 q 38 23 80 29 l 38 0 l 377 0 l 377 23 q 315 38 336 29 q 288 63 294 46 q 281 109 281 79 m 48 1087 l 368 1087 l 368 1156 l 48 1156 l 48 1087 z "},"Ỉ":{"ha":415,"x_min":38,"x_max":377,"o":"m 281 109 l 281 870 q 288 917 281 900 q 315 942 294 933 q 377 956 336 950 l 377 979 l 38 979 l 38 956 q 100 942 80 950 q 127 917 121 933 q 134 870 134 900 l 134 109 q 127 63 134 79 q 100 38 121 46 q 38 23 80 29 l 38 0 l 377 0 l 377 23 q 315 38 336 29 q 288 63 294 46 q 281 109 281 79 m 222 1254 q 148 1235 178 1254 q 102 1189 117 1216 l 102 1170 q 134 1190 115 1182 q 178 1198 154 1198 q 228 1184 210 1198 q 245 1147 245 1170 q 225 1099 245 1122 q 168 1051 205 1076 l 193 1051 q 296 1112 267 1082 q 325 1175 325 1141 q 296 1232 325 1210 q 222 1254 268 1254 z "},"İ":{"ha":415,"x_min":38,"x_max":377,"o":"m 281 109 l 281 870 q 288 917 281 900 q 315 942 294 933 q 377 956 336 950 l 377 979 l 38 979 l 38 956 q 100 942 80 950 q 127 917 121 933 q 134 870 134 900 l 134 109 q 127 63 134 79 q 100 38 121 46 q 38 23 80 29 l 38 0 l 377 0 l 377 23 q 315 38 336 29 q 288 63 294 46 q 281 109 281 79 m 208 1071 q 253 1089 235 1071 q 272 1134 272 1108 q 253 1178 272 1160 q 208 1196 235 1196 q 162 1178 180 1196 q 143 1134 143 1160 q 162 1089 143 1108 q 208 1071 180 1071 z "},"Ị":{"ha":415,"x_min":38,"x_max":377,"o":"m 281 109 l 281 870 q 288 917 281 900 q 315 942 294 933 q 377 956 336 950 l 377 979 l 38 979 l 38 956 q 100 942 80 950 q 127 917 121 933 q 134 870 134 900 l 134 109 q 127 63 134 79 q 100 38 121 46 q 38 23 80 29 l 38 0 l 377 0 l 377 23 q 315 38 336 29 q 288 63 294 46 q 281 109 281 79 m 207 -133 q 161 -151 180 -133 q 142 -195 142 -170 q 161 -240 142 -221 q 207 -258 180 -258 q 253 -240 234 -258 q 271 -195 271 -221 q 253 -151 271 -170 q 207 -133 234 -133 z "},"Į":{"ha":415,"x_min":38,"x_max":377,"o":"m 281 109 l 281 870 q 288 917 281 900 q 315 942 294 933 q 377 956 336 950 l 377 979 l 38 979 l 38 956 q 100 942 80 950 q 127 917 121 933 q 134 870 134 900 l 134 109 q 127 63 134 79 q 100 38 121 46 q 38 23 80 29 l 38 0 l 377 0 l 377 23 q 315 38 336 29 q 288 63 294 46 q 281 109 281 79 m 221 -324 q 293 -306 261 -324 q 337 -259 324 -288 l 336 -236 q 314 -253 328 -246 q 283 -260 300 -260 q 221 -222 245 -260 q 196 -129 196 -184 q 205 -56 196 -90 q 230 1 214 -22 l 208 1 q 126 -95 157 -43 q 96 -201 96 -146 q 132 -291 96 -257 q 221 -324 168 -324 z "},"J":{"ha":415,"x_min":-58,"x_max":377,"o":"m 281 165 l 281 870 q 288 917 281 900 q 315 942 294 933 q 377 956 336 950 l 377 979 l 38 979 l 38 956 q 100 942 80 950 q 127 917 121 933 q 134 870 134 900 l 134 186 q 116 -9 134 71 q 56 -146 98 -89 q -58 -252 14 -204 l -47 -272 q 130 -164 56 -221 q 242 -29 203 -108 q 281 165 281 50 z "},"Ĵ":{"ha":415,"x_min":-58,"x_max":383,"o":"m 281 165 l 281 870 q 288 917 281 900 q 315 942 294 933 q 377 956 336 950 l 377 979 l 38 979 l 38 956 q 100 942 80 950 q 127 917 121 933 q 134 870 134 900 l 134 186 q 116 -9 134 71 q 56 -146 98 -89 q -58 -252 14 -204 l -47 -272 q 130 -164 56 -221 q 242 -29 203 -108 q 281 165 281 50 m 73 1042 l 241 1160 l 187 1160 l 353 1042 l 383 1042 l 247 1224 l 182 1224 l 45 1042 l 73 1042 z "},"K":{"ha":896,"x_min":38,"x_max":898,"o":"m 281 105 l 281 874 q 288 918 281 903 q 314 942 294 934 q 373 956 334 950 l 373 979 l 38 979 l 38 956 q 100 942 80 950 q 127 917 121 933 q 134 870 134 900 l 134 109 q 127 63 134 79 q 100 38 121 46 q 38 23 80 29 l 38 0 l 373 0 l 373 23 q 314 37 334 29 q 288 61 294 45 q 281 105 281 77 m 689 0 l 898 0 l 898 22 q 852 45 874 29 q 800 100 829 62 q 725 210 770 138 l 473 616 l 461 582 l 669 806 q 731 869 703 843 q 783 912 759 895 q 832 940 808 930 q 882 956 856 950 l 882 979 l 610 979 l 610 956 q 685 920 682 949 q 632 825 687 890 l 368 512 l 689 0 m 398 495 l 398 525 l 248 524 l 248 496 l 398 495 z "},"Ḱ":{"ha":896,"x_min":38,"x_max":898,"o":"m 281 105 l 281 874 q 288 918 281 903 q 314 942 294 934 q 373 956 334 950 l 373 979 l 38 979 l 38 956 q 100 942 80 950 q 127 917 121 933 q 134 870 134 900 l 134 109 q 127 63 134 79 q 100 38 121 46 q 38 23 80 29 l 38 0 l 373 0 l 373 23 q 314 37 334 29 q 288 61 294 45 q 281 105 281 77 m 689 0 l 898 0 l 898 22 q 852 45 874 29 q 800 100 829 62 q 725 210 770 138 l 473 616 l 461 582 l 669 806 q 731 869 703 843 q 783 912 759 895 q 832 940 808 930 q 882 956 856 950 l 882 979 l 610 979 l 610 956 q 685 920 682 949 q 632 825 687 890 l 368 512 l 689 0 m 398 495 l 398 525 l 248 524 l 248 496 l 398 495 m 432 1042 l 635 1221 l 635 1225 l 494 1225 l 403 1043 l 432 1042 z "},"Ǩ":{"ha":896,"x_min":38,"x_max":898,"o":"m 281 105 l 281 874 q 288 918 281 903 q 314 942 294 934 q 373 956 334 950 l 373 979 l 38 979 l 38 956 q 100 942 80 950 q 127 917 121 933 q 134 870 134 900 l 134 109 q 127 63 134 79 q 100 38 121 46 q 38 23 80 29 l 38 0 l 373 0 l 373 23 q 314 37 334 29 q 288 61 294 45 q 281 105 281 77 m 689 0 l 898 0 l 898 22 q 852 45 874 29 q 800 100 829 62 q 725 210 770 138 l 473 616 l 461 582 l 669 806 q 731 869 703 843 q 783 912 759 895 q 832 940 808 930 q 882 956 856 950 l 882 979 l 610 979 l 610 956 q 685 920 682 949 q 632 825 687 890 l 368 512 l 689 0 m 398 495 l 398 525 l 248 524 l 248 496 l 398 495 m 610 1236 l 443 1120 l 496 1120 l 330 1236 l 300 1236 l 437 1055 l 502 1055 l 638 1236 l 610 1236 z "},"Ḵ":{"ha":896,"x_min":38,"x_max":898,"o":"m 281 105 l 281 874 q 288 918 281 903 q 314 942 294 934 q 373 956 334 950 l 373 979 l 38 979 l 38 956 q 100 942 80 950 q 127 917 121 933 q 134 870 134 900 l 134 109 q 127 63 134 79 q 100 38 121 46 q 38 23 80 29 l 38 0 l 373 0 l 373 23 q 314 37 334 29 q 288 61 294 45 q 281 105 281 77 m 689 0 l 898 0 l 898 22 q 852 45 874 29 q 800 100 829 62 q 725 210 770 138 l 473 616 l 461 582 l 669 806 q 731 869 703 843 q 783 912 759 895 q 832 940 808 930 q 882 956 856 950 l 882 979 l 610 979 l 610 956 q 685 920 682 949 q 632 825 687 890 l 368 512 l 689 0 m 398 495 l 398 525 l 248 524 l 248 496 l 398 495 z "},"Ḳ":{"ha":896,"x_min":38,"x_max":898,"o":"m 281 105 l 281 874 q 288 918 281 903 q 314 942 294 934 q 373 956 334 950 l 373 979 l 38 979 l 38 956 q 100 942 80 950 q 127 917 121 933 q 134 870 134 900 l 134 109 q 127 63 134 79 q 100 38 121 46 q 38 23 80 29 l 38 0 l 373 0 l 373 23 q 314 37 334 29 q 288 61 294 45 q 281 105 281 77 m 689 0 l 898 0 l 898 22 q 852 45 874 29 q 800 100 829 62 q 725 210 770 138 l 473 616 l 461 582 l 669 806 q 731 869 703 843 q 783 912 759 895 q 832 940 808 930 q 882 956 856 950 l 882 979 l 610 979 l 610 956 q 685 920 682 949 q 632 825 687 890 l 368 512 l 689 0 m 398 495 l 398 525 l 248 524 l 248 496 l 398 495 m 483 -133 q 437 -151 456 -133 q 418 -195 418 -170 q 437 -240 418 -221 q 483 -258 456 -258 q 529 -240 510 -258 q 547 -195 547 -221 q 529 -151 547 -170 q 483 -133 510 -133 z "},"Ķ":{"ha":896,"x_min":38,"x_max":898,"o":"m 281 105 l 281 874 q 288 918 281 903 q 314 942 294 934 q 373 956 334 950 l 373 979 l 38 979 l 38 956 q 100 942 80 950 q 127 917 121 933 q 134 870 134 900 l 134 109 q 127 63 134 79 q 100 38 121 46 q 38 23 80 29 l 38 0 l 373 0 l 373 23 q 314 37 334 29 q 288 61 294 45 q 281 105 281 77 m 689 0 l 898 0 l 898 22 q 852 45 874 29 q 800 100 829 62 q 725 210 770 138 l 473 616 l 461 582 l 669 806 q 731 869 703 843 q 783 912 759 895 q 832 940 808 930 q 882 956 856 950 l 882 979 l 610 979 l 610 956 q 685 920 682 949 q 632 825 687 890 l 368 512 l 689 0 m 398 495 l 398 525 l 248 524 l 248 496 l 398 495 m 479 -305 q 582 -275 543 -305 q 622 -195 622 -244 q 586 -115 622 -144 q 496 -85 551 -85 q 430 -101 456 -85 q 390 -136 404 -117 l 390 -157 q 413 -150 399 -153 q 444 -146 428 -146 q 497 -161 476 -146 q 518 -201 518 -175 q 497 -241 518 -227 q 444 -256 476 -256 q 392 -247 416 -256 q 352 -225 368 -238 l 352 -248 q 402 -289 368 -272 q 479 -305 437 -305 z "},"L":{"ha":750,"x_min":38,"x_max":723,"o":"m 710 0 l 723 267 l 701 267 q 664 152 686 197 q 610 82 643 107 q 528 46 578 57 q 407 32 479 35 l 281 27 l 281 861 q 288 912 281 894 q 317 941 295 931 q 385 956 340 951 l 385 979 l 38 979 l 38 956 q 100 942 80 950 q 127 917 121 933 q 134 870 134 900 l 134 109 q 127 63 134 79 q 100 38 121 46 q 38 23 80 29 l 38 0 l 710 0 z "},"Ĺ":{"ha":750,"x_min":38,"x_max":723,"o":"m 710 0 l 723 267 l 701 267 q 664 152 686 197 q 610 82 643 107 q 528 46 578 57 q 407 32 479 35 l 281 27 l 281 861 q 288 912 281 894 q 317 941 295 931 q 385 956 340 951 l 385 979 l 38 979 l 38 956 q 100 942 80 950 q 127 917 121 933 q 134 870 134 900 l 134 109 q 127 63 134 79 q 100 38 121 46 q 38 23 80 29 l 38 0 l 710 0 m 177 1042 l 380 1221 l 380 1225 l 239 1225 l 148 1043 l 177 1042 z "},"Ḽ":{"ha":750,"x_min":38,"x_max":723,"o":"m 710 0 l 723 267 l 701 267 q 664 152 686 197 q 610 82 643 107 q 528 46 578 57 q 407 32 479 35 l 281 27 l 281 861 q 288 912 281 894 q 317 941 295 931 q 385 956 340 951 l 385 979 l 38 979 l 38 956 q 100 942 80 950 q 127 917 121 933 q 134 870 134 900 l 134 109 q 127 63 134 79 q 100 38 121 46 q 38 23 80 29 l 38 0 l 710 0 z "},"Ľ":{"ha":750,"x_min":38,"x_max":723,"o":"m 710 0 l 723 267 l 701 267 q 664 152 686 197 q 610 82 643 107 q 528 46 578 57 q 407 32 479 35 l 281 27 l 281 861 q 288 912 281 894 q 317 941 295 931 q 385 956 340 951 l 385 979 l 38 979 l 38 956 q 100 942 80 950 q 127 917 121 933 q 134 870 134 900 l 134 109 q 127 63 134 79 q 100 38 121 46 q 38 23 80 29 l 38 0 l 710 0 m 533 750 l 654 1022 l 541 1022 l 511 750 l 533 750 z "},"Ḻ":{"ha":750,"x_min":38,"x_max":723,"o":"m 710 0 l 723 267 l 701 267 q 664 152 686 197 q 610 82 643 107 q 528 46 578 57 q 407 32 479 35 l 281 27 l 281 861 q 288 912 281 894 q 317 941 295 931 q 385 956 340 951 l 385 979 l 38 979 l 38 956 q 100 942 80 950 q 127 917 121 933 q 134 870 134 900 l 134 109 q 127 63 134 79 q 100 38 121 46 q 38 23 80 29 l 38 0 l 710 0 z "},"Ŀ":{"ha":750,"x_min":38,"x_max":723,"o":"m 710 0 l 723 267 l 701 267 q 664 152 686 197 q 610 82 643 107 q 528 46 578 57 q 407 32 479 35 l 281 27 l 281 861 q 288 912 281 894 q 317 941 295 931 q 385 956 340 951 l 385 979 l 38 979 l 38 956 q 100 942 80 950 q 127 917 121 933 q 134 870 134 900 l 134 109 q 127 63 134 79 q 100 38 121 46 q 38 23 80 29 l 38 0 l 710 0 m 536 475 q 590 497 568 475 q 612 549 612 518 q 590 601 612 580 q 536 623 568 623 q 483 601 505 623 q 460 549 460 580 q 483 497 460 518 q 536 475 505 475 z "},"Ḷ":{"ha":750,"x_min":38,"x_max":723,"o":"m 710 0 l 723 267 l 701 267 q 664 152 686 197 q 610 82 643 107 q 528 46 578 57 q 407 32 479 35 l 281 27 l 281 861 q 288 912 281 894 q 317 941 295 931 q 385 956 340 951 l 385 979 l 38 979 l 38 956 q 100 942 80 950 q 127 917 121 933 q 134 870 134 900 l 134 109 q 127 63 134 79 q 100 38 121 46 q 38 23 80 29 l 38 0 l 710 0 m 396 -133 q 350 -151 369 -133 q 332 -195 332 -170 q 350 -240 332 -221 q 396 -258 369 -258 q 442 -240 423 -258 q 460 -195 460 -221 q 442 -151 460 -170 q 396 -133 423 -133 z "},"Ḹ":{"ha":750,"x_min":38,"x_max":723,"o":"m 710 0 l 723 267 l 701 267 q 664 152 686 197 q 610 82 643 107 q 528 46 578 57 q 407 32 479 35 l 281 27 l 281 861 q 288 912 281 894 q 317 941 295 931 q 385 956 340 951 l 385 979 l 38 979 l 38 956 q 100 942 80 950 q 127 917 121 933 q 134 870 134 900 l 134 109 q 127 63 134 79 q 100 38 121 46 q 38 23 80 29 l 38 0 l 710 0 m 396 -133 q 350 -151 369 -133 q 332 -195 332 -170 q 350 -240 332 -221 q 396 -258 369 -258 q 442 -240 423 -258 q 460 -195 460 -221 q 442 -151 460 -170 q 396 -133 423 -133 m 50 1087 l 369 1087 l 369 1156 l 50 1156 l 50 1087 z "},"Ļ":{"ha":750,"x_min":38,"x_max":723,"o":"m 710 0 l 723 267 l 701 267 q 664 152 686 197 q 610 82 643 107 q 528 46 578 57 q 407 32 479 35 l 281 27 l 281 861 q 288 912 281 894 q 317 941 295 931 q 385 956 340 951 l 385 979 l 38 979 l 38 956 q 100 942 80 950 q 127 917 121 933 q 134 870 134 900 l 134 109 q 127 63 134 79 q 100 38 121 46 q 38 23 80 29 l 38 0 l 710 0 m 393 -305 q 495 -275 456 -305 q 535 -195 535 -244 q 499 -115 535 -144 q 409 -85 464 -85 q 343 -101 370 -85 q 303 -136 317 -117 l 303 -157 q 327 -150 312 -153 q 357 -146 341 -146 q 410 -161 389 -146 q 431 -201 431 -175 q 410 -241 431 -227 q 357 -256 389 -256 q 305 -247 329 -256 q 265 -225 281 -238 l 265 -248 q 315 -289 281 -272 q 393 -305 350 -305 z "},"Ł":{"ha":750,"x_min":38,"x_max":723,"o":"m 710 0 l 723 267 l 701 267 q 664 152 686 197 q 610 82 643 107 q 528 46 578 57 q 407 32 479 35 l 281 27 l 281 861 q 288 912 281 894 q 317 941 295 931 q 385 956 340 951 l 385 979 l 38 979 l 38 956 q 100 942 80 950 q 127 917 121 933 q 134 870 134 900 l 134 109 q 127 63 134 79 q 100 38 121 46 q 38 23 80 29 l 38 0 l 710 0 m 38 429 l 524 575 l 524 609 l 38 463 l 38 429 z "},"M":{"ha":1200,"x_min":13,"x_max":1171,"o":"m 292 979 l 57 979 l 57 956 q 113 938 93 950 q 140 905 132 926 q 146 846 147 883 l 119 168 q 109 85 117 115 q 79 42 100 56 q 13 23 57 29 l 13 0 l 266 0 l 266 23 q 201 42 222 29 q 174 85 180 56 q 168 170 168 115 l 178 892 l 172 892 l 523 0 l 576 0 l 626 143 l 613 143 l 292 979 m 899 979 l 600 143 l 626 143 l 913 892 l 905 892 l 930 108 q 924 61 931 77 q 898 36 918 44 q 838 23 878 28 l 838 0 l 1171 0 l 1171 23 q 1111 37 1131 28 q 1084 61 1090 45 q 1076 109 1078 78 l 1050 870 q 1056 917 1050 900 q 1083 942 1063 933 q 1141 956 1103 951 l 1141 979 l 899 979 z "},"Ḿ":{"ha":1200,"x_min":13,"x_max":1171,"o":"m 292 979 l 57 979 l 57 956 q 113 938 93 950 q 140 905 132 926 q 146 846 147 883 l 119 168 q 109 85 117 115 q 79 42 100 56 q 13 23 57 29 l 13 0 l 266 0 l 266 23 q 201 42 222 29 q 174 85 180 56 q 168 170 168 115 l 178 892 l 172 892 l 523 0 l 576 0 l 626 143 l 613 143 l 292 979 m 899 979 l 600 143 l 626 143 l 913 892 l 905 892 l 930 108 q 924 61 931 77 q 898 36 918 44 q 838 23 878 28 l 838 0 l 1171 0 l 1171 23 q 1111 37 1131 28 q 1084 61 1090 45 q 1076 109 1078 78 l 1050 870 q 1056 917 1050 900 q 1083 942 1063 933 q 1141 956 1103 951 l 1141 979 l 899 979 m 567 1042 l 770 1221 l 770 1225 l 629 1225 l 538 1043 l 567 1042 z "},"Ṁ":{"ha":1200,"x_min":13,"x_max":1171,"o":"m 292 979 l 57 979 l 57 956 q 113 938 93 950 q 140 905 132 926 q 146 846 147 883 l 119 168 q 109 85 117 115 q 79 42 100 56 q 13 23 57 29 l 13 0 l 266 0 l 266 23 q 201 42 222 29 q 174 85 180 56 q 168 170 168 115 l 178 892 l 172 892 l 523 0 l 576 0 l 626 143 l 613 143 l 292 979 m 899 979 l 600 143 l 626 143 l 913 892 l 905 892 l 930 108 q 924 61 931 77 q 898 36 918 44 q 838 23 878 28 l 838 0 l 1171 0 l 1171 23 q 1111 37 1131 28 q 1084 61 1090 45 q 1076 109 1078 78 l 1050 870 q 1056 917 1050 900 q 1083 942 1063 933 q 1141 956 1103 951 l 1141 979 l 899 979 m 599 1071 q 645 1089 626 1071 q 663 1134 663 1108 q 645 1178 663 1160 q 599 1196 626 1196 q 553 1178 572 1196 q 534 1134 534 1160 q 553 1089 534 1108 q 599 1071 572 1071 z "},"Ṃ":{"ha":1200,"x_min":13,"x_max":1171,"o":"m 292 979 l 57 979 l 57 956 q 113 938 93 950 q 140 905 132 926 q 146 846 147 883 l 119 168 q 109 85 117 115 q 79 42 100 56 q 13 23 57 29 l 13 0 l 266 0 l 266 23 q 201 42 222 29 q 174 85 180 56 q 168 170 168 115 l 178 892 l 172 892 l 523 0 l 576 0 l 626 143 l 613 143 l 292 979 m 899 979 l 600 143 l 626 143 l 913 892 l 905 892 l 930 108 q 924 61 931 77 q 898 36 918 44 q 838 23 878 28 l 838 0 l 1171 0 l 1171 23 q 1111 37 1131 28 q 1084 61 1090 45 q 1076 109 1078 78 l 1050 870 q 1056 917 1050 900 q 1083 942 1063 933 q 1141 956 1103 951 l 1141 979 l 899 979 m 550 -133 q 504 -151 523 -133 q 486 -195 486 -170 q 504 -240 486 -221 q 550 -258 523 -258 q 596 -240 577 -258 q 614 -195 614 -221 q 596 -151 614 -170 q 550 -133 577 -133 z "},"N":{"ha":980,"x_min":12,"x_max":964,"o":"m 256 979 l 29 979 l 29 956 q 85 937 65 949 q 113 904 105 925 q 121 846 121 883 l 114 176 q 107 88 114 119 q 78 43 100 57 q 12 23 56 29 l 12 0 l 269 0 l 269 23 q 202 42 224 28 q 172 87 180 56 q 164 176 165 118 l 152 890 l 142 890 l 786 0 l 857 0 l 863 804 q 870 891 863 861 q 899 936 878 922 q 964 956 921 950 l 964 979 l 709 979 l 709 956 q 775 937 753 951 q 804 893 797 924 q 813 804 812 862 l 826 174 l 836 174 l 256 979 z "},"Ń":{"ha":980,"x_min":12,"x_max":964,"o":"m 256 979 l 29 979 l 29 956 q 85 937 65 949 q 113 904 105 925 q 121 846 121 883 l 114 176 q 107 88 114 119 q 78 43 100 57 q 12 23 56 29 l 12 0 l 269 0 l 269 23 q 202 42 224 28 q 172 87 180 56 q 164 176 165 118 l 152 890 l 142 890 l 786 0 l 857 0 l 863 804 q 870 891 863 861 q 899 936 878 922 q 964 956 921 950 l 964 979 l 709 979 l 709 956 q 775 937 753 951 q 804 893 797 924 q 813 804 812 862 l 826 174 l 836 174 l 256 979 m 476 1042 l 680 1221 l 680 1225 l 538 1225 l 447 1043 l 476 1042 z "},"Ǹ":{"ha":980,"x_min":12,"x_max":964,"o":"m 256 979 l 29 979 l 29 956 q 85 937 65 949 q 113 904 105 925 q 121 846 121 883 l 114 176 q 107 88 114 119 q 78 43 100 57 q 12 23 56 29 l 12 0 l 269 0 l 269 23 q 202 42 224 28 q 172 87 180 56 q 164 176 165 118 l 152 890 l 142 890 l 786 0 l 857 0 l 863 804 q 870 891 863 861 q 899 936 878 922 q 964 956 921 950 l 964 979 l 709 979 l 709 956 q 775 937 753 951 q 804 893 797 924 q 813 804 812 862 l 826 174 l 836 174 l 256 979 m 552 1042 l 581 1042 l 493 1224 l 347 1224 l 347 1221 l 552 1042 z "},"Ṋ":{"ha":980,"x_min":12,"x_max":964,"o":"m 256 979 l 29 979 l 29 956 q 85 937 65 949 q 113 904 105 925 q 121 846 121 883 l 114 176 q 107 88 114 119 q 78 43 100 57 q 12 23 56 29 l 12 0 l 269 0 l 269 23 q 202 42 224 28 q 172 87 180 56 q 164 176 165 118 l 152 890 l 142 890 l 786 0 l 857 0 l 863 804 q 870 891 863 861 q 899 936 878 922 q 964 956 921 950 l 964 979 l 709 979 l 709 956 q 775 937 753 951 q 804 893 797 924 q 813 804 812 862 l 826 174 l 836 174 l 256 979 z "},"Ň":{"ha":980,"x_min":12,"x_max":964,"o":"m 256 979 l 29 979 l 29 956 q 85 937 65 949 q 113 904 105 925 q 121 846 121 883 l 114 176 q 107 88 114 119 q 78 43 100 57 q 12 23 56 29 l 12 0 l 269 0 l 269 23 q 202 42 224 28 q 172 87 180 56 q 164 176 165 118 l 152 890 l 142 890 l 786 0 l 857 0 l 863 804 q 870 891 863 861 q 899 936 878 922 q 964 956 921 950 l 964 979 l 709 979 l 709 956 q 775 937 753 951 q 804 893 797 924 q 813 804 812 862 l 826 174 l 836 174 l 256 979 m 654 1236 l 487 1120 l 541 1120 l 374 1236 l 345 1236 l 481 1055 l 546 1055 l 682 1236 l 654 1236 z "},"Ñ":{"ha":980,"x_min":12,"x_max":964,"o":"m 256 979 l 29 979 l 29 956 q 85 937 65 949 q 113 904 105 925 q 121 846 121 883 l 114 176 q 107 88 114 119 q 78 43 100 57 q 12 23 56 29 l 12 0 l 269 0 l 269 23 q 202 42 224 28 q 172 87 180 56 q 164 176 165 118 l 152 890 l 142 890 l 786 0 l 857 0 l 863 804 q 870 891 863 861 q 899 936 878 922 q 964 956 921 950 l 964 979 l 709 979 l 709 956 q 775 937 753 951 q 804 893 797 924 q 813 804 812 862 l 826 174 l 836 174 l 256 979 m 579 1058 q 652 1093 623 1058 q 677 1215 681 1128 l 652 1215 q 637 1151 649 1168 q 606 1134 625 1134 q 579 1140 591 1134 q 549 1158 566 1145 l 529 1171 q 483 1199 505 1189 q 436 1209 462 1209 q 364 1174 393 1209 q 338 1053 335 1139 l 364 1053 q 379 1117 367 1099 q 410 1134 391 1134 q 437 1128 425 1134 q 467 1109 450 1122 l 487 1096 q 533 1068 511 1079 q 579 1058 554 1058 z "},"Ṉ":{"ha":980,"x_min":12,"x_max":964,"o":"m 256 979 l 29 979 l 29 956 q 85 937 65 949 q 113 904 105 925 q 121 846 121 883 l 114 176 q 107 88 114 119 q 78 43 100 57 q 12 23 56 29 l 12 0 l 269 0 l 269 23 q 202 42 224 28 q 172 87 180 56 q 164 176 165 118 l 152 890 l 142 890 l 786 0 l 857 0 l 863 804 q 870 891 863 861 q 899 936 878 922 q 964 956 921 950 l 964 979 l 709 979 l 709 956 q 775 937 753 951 q 804 893 797 924 q 813 804 812 862 l 826 174 l 836 174 l 256 979 z "},"Ṅ":{"ha":980,"x_min":12,"x_max":964,"o":"m 256 979 l 29 979 l 29 956 q 85 937 65 949 q 113 904 105 925 q 121 846 121 883 l 114 176 q 107 88 114 119 q 78 43 100 57 q 12 23 56 29 l 12 0 l 269 0 l 269 23 q 202 42 224 28 q 172 87 180 56 q 164 176 165 118 l 152 890 l 142 890 l 786 0 l 857 0 l 863 804 q 870 891 863 861 q 899 936 878 922 q 964 956 921 950 l 964 979 l 709 979 l 709 956 q 775 937 753 951 q 804 893 797 924 q 813 804 812 862 l 826 174 l 836 174 l 256 979 m 508 1071 q 554 1089 535 1071 q 572 1134 572 1108 q 554 1178 572 1160 q 508 1196 535 1196 q 462 1178 481 1196 q 444 1134 444 1160 q 462 1089 444 1108 q 508 1071 481 1071 z "},"Ṇ":{"ha":980,"x_min":12,"x_max":964,"o":"m 256 979 l 29 979 l 29 956 q 85 937 65 949 q 113 904 105 925 q 121 846 121 883 l 114 176 q 107 88 114 119 q 78 43 100 57 q 12 23 56 29 l 12 0 l 269 0 l 269 23 q 202 42 224 28 q 172 87 180 56 q 164 176 165 118 l 152 890 l 142 890 l 786 0 l 857 0 l 863 804 q 870 891 863 861 q 899 936 878 922 q 964 956 921 950 l 964 979 l 709 979 l 709 956 q 775 937 753 951 q 804 893 797 924 q 813 804 812 862 l 826 174 l 836 174 l 256 979 m 488 -133 q 443 -151 461 -133 q 424 -195 424 -170 q 443 -240 424 -221 q 488 -258 461 -258 q 534 -240 515 -258 q 553 -195 553 -221 q 534 -151 553 -170 q 488 -133 515 -133 z "},"Ņ":{"ha":980,"x_min":12,"x_max":964,"o":"m 256 979 l 29 979 l 29 956 q 85 937 65 949 q 113 904 105 925 q 121 846 121 883 l 114 176 q 107 88 114 119 q 78 43 100 57 q 12 23 56 29 l 12 0 l 269 0 l 269 23 q 202 42 224 28 q 172 87 180 56 q 164 176 165 118 l 152 890 l 142 890 l 786 0 l 857 0 l 863 804 q 870 891 863 861 q 899 936 878 922 q 964 956 921 950 l 964 979 l 709 979 l 709 956 q 775 937 753 951 q 804 893 797 924 q 813 804 812 862 l 826 174 l 836 174 l 256 979 m 485 -305 q 588 -275 548 -305 q 627 -195 627 -244 q 592 -115 627 -144 q 501 -85 556 -85 q 435 -101 462 -85 q 395 -136 409 -117 l 395 -157 q 419 -150 404 -153 q 450 -146 433 -146 q 503 -161 481 -146 q 524 -201 524 -175 q 503 -241 524 -227 q 449 -256 481 -256 q 397 -247 421 -256 q 357 -225 374 -238 l 357 -248 q 408 -289 373 -272 q 485 -305 442 -305 z "},"O":{"ha":1103,"x_min":64,"x_max":1039,"o":"m 64 490 q 105 279 64 372 q 215 120 146 186 q 372 20 285 55 q 553 -14 460 -14 q 752 25 663 -14 q 906 134 842 64 q 1004 294 970 203 q 1039 490 1039 386 q 998 701 1039 608 q 888 859 958 793 q 731 959 819 924 q 551 994 644 994 q 351 955 440 994 q 197 846 261 916 q 99 686 133 777 q 64 490 64 594 m 229 500 q 261 734 229 631 q 363 899 293 838 q 545 960 433 960 q 682 923 621 960 q 786 822 743 887 q 852 670 829 757 q 875 480 875 583 q 843 245 875 350 q 741 80 810 141 q 559 20 671 20 q 422 56 483 20 q 317 157 361 92 q 251 310 274 222 q 229 500 229 397 z "},"Ó":{"ha":1103,"x_min":64,"x_max":1039,"o":"m 64 490 q 105 279 64 372 q 215 120 146 186 q 372 20 285 55 q 553 -14 460 -14 q 752 25 663 -14 q 906 134 842 64 q 1004 294 970 203 q 1039 490 1039 386 q 998 701 1039 608 q 888 859 958 793 q 731 959 819 924 q 551 994 644 994 q 351 955 440 994 q 197 846 261 916 q 99 686 133 777 q 64 490 64 594 m 229 500 q 261 734 229 631 q 363 899 293 838 q 545 960 433 960 q 682 923 621 960 q 786 822 743 887 q 852 670 829 757 q 875 480 875 583 q 843 245 875 350 q 741 80 810 141 q 559 20 671 20 q 422 56 483 20 q 317 157 361 92 q 251 310 274 222 q 229 500 229 397 m 516 1042 l 720 1221 l 720 1225 l 578 1225 l 487 1043 l 516 1042 z "},"Ò":{"ha":1103,"x_min":64,"x_max":1039,"o":"m 64 490 q 105 279 64 372 q 215 120 146 186 q 372 20 285 55 q 553 -14 460 -14 q 752 25 663 -14 q 906 134 842 64 q 1004 294 970 203 q 1039 490 1039 386 q 998 701 1039 608 q 888 859 958 793 q 731 959 819 924 q 551 994 644 994 q 351 955 440 994 q 197 846 261 916 q 99 686 133 777 q 64 490 64 594 m 229 500 q 261 734 229 631 q 363 899 293 838 q 545 960 433 960 q 682 923 621 960 q 786 822 743 887 q 852 670 829 757 q 875 480 875 583 q 843 245 875 350 q 741 80 810 141 q 559 20 671 20 q 422 56 483 20 q 317 157 361 92 q 251 310 274 222 q 229 500 229 397 m 592 1042 l 621 1042 l 533 1224 l 387 1224 l 387 1221 l 592 1042 z "},"Ő":{"ha":1103,"x_min":64,"x_max":1039,"o":"m 64 490 q 105 279 64 372 q 215 120 146 186 q 372 20 285 55 q 553 -14 460 -14 q 752 25 663 -14 q 906 134 842 64 q 1004 294 970 203 q 1039 490 1039 386 q 998 701 1039 608 q 888 859 958 793 q 731 959 819 924 q 551 994 644 994 q 351 955 440 994 q 197 846 261 916 q 99 686 133 777 q 64 490 64 594 m 229 500 q 261 734 229 631 q 363 899 293 838 q 545 960 433 960 q 682 923 621 960 q 786 822 743 887 q 852 670 829 757 q 875 480 875 583 q 843 245 875 350 q 741 80 810 141 q 559 20 671 20 q 422 56 483 20 q 317 157 361 92 q 251 310 274 222 q 229 500 229 397 m 486 1224 l 434 1042 l 463 1042 l 607 1221 l 607 1225 l 486 1224 m 696 1224 l 605 1042 l 635 1042 l 825 1221 l 825 1225 l 696 1224 z "},"Ȍ":{"ha":1103,"x_min":64,"x_max":1039,"o":"m 64 490 q 105 279 64 372 q 215 120 146 186 q 372 20 285 55 q 553 -14 460 -14 q 752 25 663 -14 q 906 134 842 64 q 1004 294 970 203 q 1039 490 1039 386 q 998 701 1039 608 q 888 859 958 793 q 731 959 819 924 q 551 994 644 994 q 351 955 440 994 q 197 846 261 916 q 99 686 133 777 q 64 490 64 594 m 229 500 q 261 734 229 631 q 363 899 293 838 q 545 960 433 960 q 682 923 621 960 q 786 822 743 887 q 852 670 829 757 q 875 480 875 583 q 843 245 875 350 q 741 80 810 141 q 559 20 671 20 q 422 56 483 20 q 317 157 361 92 q 251 310 274 222 q 229 500 229 397 m 413 1224 l 285 1224 l 285 1221 l 475 1042 l 505 1042 l 413 1224 m 624 1224 l 503 1224 l 503 1221 l 647 1042 l 675 1042 l 624 1224 z "},"Ô":{"ha":1103,"x_min":64,"x_max":1039,"o":"m 64 490 q 105 279 64 372 q 215 120 146 186 q 372 20 285 55 q 553 -14 460 -14 q 752 25 663 -14 q 906 134 842 64 q 1004 294 970 203 q 1039 490 1039 386 q 998 701 1039 608 q 888 859 958 793 q 731 959 819 924 q 551 994 644 994 q 351 955 440 994 q 197 846 261 916 q 99 686 133 777 q 64 490 64 594 m 229 500 q 261 734 229 631 q 363 899 293 838 q 545 960 433 960 q 682 923 621 960 q 786 822 743 887 q 852 670 829 757 q 875 480 875 583 q 843 245 875 350 q 741 80 810 141 q 559 20 671 20 q 422 56 483 20 q 317 157 361 92 q 251 310 274 222 q 229 500 229 397 m 414 1042 l 581 1160 l 528 1160 l 694 1042 l 724 1042 l 587 1224 l 522 1224 l 386 1042 l 414 1042 z "},"Ố":{"ha":1103,"x_min":64,"x_max":1039,"o":"m 64 490 q 105 279 64 372 q 215 120 146 186 q 372 20 285 55 q 553 -14 460 -14 q 752 25 663 -14 q 906 134 842 64 q 1004 294 970 203 q 1039 490 1039 386 q 998 701 1039 608 q 888 859 958 793 q 731 959 819 924 q 551 994 644 994 q 351 955 440 994 q 197 846 261 916 q 99 686 133 777 q 64 490 64 594 m 229 500 q 261 734 229 631 q 363 899 293 838 q 545 960 433 960 q 682 923 621 960 q 786 822 743 887 q 852 670 829 757 q 875 480 875 583 q 843 245 875 350 q 741 80 810 141 q 559 20 671 20 q 422 56 483 20 q 317 157 361 92 q 251 310 274 222 q 229 500 229 397 m 379 1020 l 558 1084 l 538 1084 l 718 1020 l 718 1042 l 559 1155 l 537 1155 l 379 1042 l 379 1020 m 717 1229 l 717 1305 l 378 1200 l 378 1178 l 717 1229 z "},"Ồ":{"ha":1103,"x_min":64,"x_max":1039,"o":"m 64 490 q 105 279 64 372 q 215 120 146 186 q 372 20 285 55 q 553 -14 460 -14 q 752 25 663 -14 q 906 134 842 64 q 1004 294 970 203 q 1039 490 1039 386 q 998 701 1039 608 q 888 859 958 793 q 731 959 819 924 q 551 994 644 994 q 351 955 440 994 q 197 846 261 916 q 99 686 133 777 q 64 490 64 594 m 229 500 q 261 734 229 631 q 363 899 293 838 q 545 960 433 960 q 682 923 621 960 q 786 822 743 887 q 852 670 829 757 q 875 480 875 583 q 843 245 875 350 q 741 80 810 141 q 559 20 671 20 q 422 56 483 20 q 317 157 361 92 q 251 310 274 222 q 229 500 229 397 m 379 1020 l 558 1084 l 538 1084 l 718 1020 l 718 1042 l 559 1155 l 537 1155 l 379 1042 l 379 1020 m 379 1229 l 718 1178 l 718 1200 l 379 1305 l 379 1229 z "},"Ỗ":{"ha":1103,"x_min":64,"x_max":1039,"o":"m 64 490 q 105 279 64 372 q 215 120 146 186 q 372 20 285 55 q 553 -14 460 -14 q 752 25 663 -14 q 906 134 842 64 q 1004 294 970 203 q 1039 490 1039 386 q 998 701 1039 608 q 888 859 958 793 q 731 959 819 924 q 551 994 644 994 q 351 955 440 994 q 197 846 261 916 q 99 686 133 777 q 64 490 64 594 m 229 500 q 261 734 229 631 q 363 899 293 838 q 545 960 433 960 q 682 923 621 960 q 786 822 743 887 q 852 670 829 757 q 875 480 875 583 q 843 245 875 350 q 741 80 810 141 q 559 20 671 20 q 422 56 483 20 q 317 157 361 92 q 251 310 274 222 q 229 500 229 397 m 379 1020 l 558 1084 l 538 1084 l 718 1020 l 718 1042 l 559 1155 l 537 1155 l 379 1042 l 379 1020 m 623 1196 q 691 1221 665 1196 q 718 1297 718 1246 l 692 1297 q 678 1263 692 1273 q 642 1253 664 1253 q 613 1256 628 1253 q 578 1265 598 1259 l 558 1272 q 517 1282 537 1278 q 473 1286 496 1286 q 405 1261 432 1286 q 379 1186 378 1236 l 404 1186 q 418 1220 405 1210 q 455 1230 432 1230 q 484 1227 469 1230 q 519 1217 498 1224 l 538 1211 q 579 1200 559 1204 q 623 1196 600 1196 z "},"Ổ":{"ha":1103,"x_min":64,"x_max":1039,"o":"m 64 490 q 105 279 64 372 q 215 120 146 186 q 372 20 285 55 q 553 -14 460 -14 q 752 25 663 -14 q 906 134 842 64 q 1004 294 970 203 q 1039 490 1039 386 q 998 701 1039 608 q 888 859 958 793 q 731 959 819 924 q 551 994 644 994 q 351 955 440 994 q 197 846 261 916 q 99 686 133 777 q 64 490 64 594 m 229 500 q 261 734 229 631 q 363 899 293 838 q 545 960 433 960 q 682 923 621 960 q 786 822 743 887 q 852 670 829 757 q 875 480 875 583 q 843 245 875 350 q 741 80 810 141 q 559 20 671 20 q 422 56 483 20 q 317 157 361 92 q 251 310 274 222 q 229 500 229 397 m 379 1020 l 558 1084 l 538 1084 l 718 1020 l 718 1042 l 559 1155 l 537 1155 l 379 1042 l 379 1020 m 692 1282 q 629 1268 654 1282 q 591 1240 604 1255 l 591 1221 q 617 1233 600 1228 q 655 1237 634 1237 q 699 1226 683 1237 q 715 1198 715 1216 q 701 1168 715 1181 q 656 1147 686 1156 l 676 1134 q 763 1163 732 1145 q 793 1214 793 1181 q 762 1264 793 1246 q 692 1282 731 1282 z "},"Ộ":{"ha":1103,"x_min":64,"x_max":1039,"o":"m 64 490 q 105 279 64 372 q 215 120 146 186 q 372 20 285 55 q 553 -14 460 -14 q 752 25 663 -14 q 906 134 842 64 q 1004 294 970 203 q 1039 490 1039 386 q 998 701 1039 608 q 888 859 958 793 q 731 959 819 924 q 551 994 644 994 q 351 955 440 994 q 197 846 261 916 q 99 686 133 777 q 64 490 64 594 m 229 500 q 261 734 229 631 q 363 899 293 838 q 545 960 433 960 q 682 923 621 960 q 786 822 743 887 q 852 670 829 757 q 875 480 875 583 q 843 245 875 350 q 741 80 810 141 q 559 20 671 20 q 422 56 483 20 q 317 157 361 92 q 251 310 274 222 q 229 500 229 397 m 414 1042 l 581 1160 l 528 1160 l 694 1042 l 724 1042 l 587 1224 l 522 1224 l 386 1042 l 414 1042 m 557 -133 q 511 -151 530 -133 q 492 -195 492 -170 q 511 -240 492 -221 q 557 -258 530 -258 q 603 -240 584 -258 q 621 -195 621 -221 q 603 -151 621 -170 q 557 -133 584 -133 z "},"Ǒ":{"ha":1103,"x_min":64,"x_max":1039,"o":"m 64 490 q 105 279 64 372 q 215 120 146 186 q 372 20 285 55 q 553 -14 460 -14 q 752 25 663 -14 q 906 134 842 64 q 1004 294 970 203 q 1039 490 1039 386 q 998 701 1039 608 q 888 859 958 793 q 731 959 819 924 q 551 994 644 994 q 351 955 440 994 q 197 846 261 916 q 99 686 133 777 q 64 490 64 594 m 229 500 q 261 734 229 631 q 363 899 293 838 q 545 960 433 960 q 682 923 621 960 q 786 822 743 887 q 852 670 829 757 q 875 480 875 583 q 843 245 875 350 q 741 80 810 141 q 559 20 671 20 q 422 56 483 20 q 317 157 361 92 q 251 310 274 222 q 229 500 229 397 m 694 1236 l 527 1120 l 581 1120 l 414 1236 l 385 1236 l 521 1055 l 586 1055 l 722 1236 l 694 1236 z "},"Ŏ":{"ha":1103,"x_min":64,"x_max":1039,"o":"m 64 490 q 105 279 64 372 q 215 120 146 186 q 372 20 285 55 q 553 -14 460 -14 q 752 25 663 -14 q 906 134 842 64 q 1004 294 970 203 q 1039 490 1039 386 q 998 701 1039 608 q 888 859 958 793 q 731 959 819 924 q 551 994 644 994 q 351 955 440 994 q 197 846 261 916 q 99 686 133 777 q 64 490 64 594 m 229 500 q 261 734 229 631 q 363 899 293 838 q 545 960 433 960 q 682 923 621 960 q 786 822 743 887 q 852 670 829 757 q 875 480 875 583 q 843 245 875 350 q 741 80 810 141 q 559 20 671 20 q 422 56 483 20 q 317 157 361 92 q 251 310 274 222 q 229 500 229 397 m 548 1077 q 634 1100 599 1077 q 688 1160 669 1123 q 707 1237 707 1197 q 705 1267 707 1253 l 681 1267 q 681 1266 681 1267 q 681 1264 681 1265 q 644 1186 681 1217 q 547 1156 607 1156 q 451 1186 488 1156 q 414 1264 414 1217 q 414 1266 414 1265 q 414 1267 414 1267 l 391 1267 q 389 1237 389 1253 q 407 1160 389 1197 q 462 1100 426 1123 q 548 1077 498 1077 z "},"Ȏ":{"ha":1103,"x_min":64,"x_max":1039,"o":"m 64 490 q 105 279 64 372 q 215 120 146 186 q 372 20 285 55 q 553 -14 460 -14 q 752 25 663 -14 q 906 134 842 64 q 1004 294 970 203 q 1039 490 1039 386 q 998 701 1039 608 q 888 859 958 793 q 731 959 819 924 q 551 994 644 994 q 351 955 440 994 q 197 846 261 916 q 99 686 133 777 q 64 490 64 594 m 229 500 q 261 734 229 631 q 363 899 293 838 q 545 960 433 960 q 682 923 621 960 q 786 822 743 887 q 852 670 829 757 q 875 480 875 583 q 843 245 875 350 q 741 80 810 141 q 559 20 671 20 q 422 56 483 20 q 317 157 361 92 q 251 310 274 222 q 229 500 229 397 m 547 1267 q 461 1244 496 1267 q 407 1185 426 1221 q 389 1107 389 1148 q 391 1077 389 1091 l 414 1077 q 414 1079 414 1078 q 414 1080 414 1080 q 451 1159 414 1128 q 547 1189 488 1189 q 644 1159 607 1189 q 681 1080 681 1128 q 681 1079 681 1080 q 681 1077 681 1078 l 705 1077 q 707 1107 707 1091 q 688 1185 707 1148 q 634 1244 669 1221 q 547 1267 598 1267 z "},"Ö":{"ha":1103,"x_min":64,"x_max":1039,"o":"m 64 490 q 105 279 64 372 q 215 120 146 186 q 372 20 285 55 q 553 -14 460 -14 q 752 25 663 -14 q 906 134 842 64 q 1004 294 970 203 q 1039 490 1039 386 q 998 701 1039 608 q 888 859 958 793 q 731 959 819 924 q 551 994 644 994 q 351 955 440 994 q 197 846 261 916 q 99 686 133 777 q 64 490 64 594 m 229 500 q 261 734 229 631 q 363 899 293 838 q 545 960 433 960 q 682 923 621 960 q 786 822 743 887 q 852 670 829 757 q 875 480 875 583 q 843 245 875 350 q 741 80 810 141 q 559 20 671 20 q 422 56 483 20 q 317 157 361 92 q 251 310 274 222 q 229 500 229 397 z "},"Ȫ":{"ha":1103,"x_min":64,"x_max":1039,"o":"m 64 490 q 105 279 64 372 q 215 120 146 186 q 372 20 285 55 q 553 -14 460 -14 q 752 25 663 -14 q 906 134 842 64 q 1004 294 970 203 q 1039 490 1039 386 q 998 701 1039 608 q 888 859 958 793 q 731 959 819 924 q 551 994 644 994 q 351 955 440 994 q 197 846 261 916 q 99 686 133 777 q 64 490 64 594 m 229 500 q 261 734 229 631 q 363 899 293 838 q 545 960 433 960 q 682 923 621 960 q 786 822 743 887 q 852 670 829 757 q 875 480 875 583 q 843 245 875 350 q 741 80 810 141 q 559 20 671 20 q 422 56 483 20 q 317 157 361 92 q 251 310 274 222 q 229 500 229 397 m 454 1062 q 492 1076 477 1062 q 507 1109 507 1089 q 492 1143 507 1129 q 454 1157 477 1157 l 450 1157 q 412 1143 427 1157 q 397 1109 397 1129 q 412 1076 397 1089 q 450 1062 427 1062 l 454 1062 m 646 1062 q 684 1076 669 1062 q 699 1109 699 1089 q 684 1143 699 1129 q 646 1157 669 1157 l 642 1157 q 604 1143 619 1157 q 589 1109 589 1129 q 604 1076 589 1089 q 642 1062 619 1062 l 646 1062 m 378 1228 l 718 1228 l 718 1284 l 378 1284 l 378 1228 z "},"Õ":{"ha":1103,"x_min":64,"x_max":1039,"o":"m 64 490 q 105 279 64 372 q 215 120 146 186 q 372 20 285 55 q 553 -14 460 -14 q 752 25 663 -14 q 906 134 842 64 q 1004 294 970 203 q 1039 490 1039 386 q 998 701 1039 608 q 888 859 958 793 q 731 959 819 924 q 551 994 644 994 q 351 955 440 994 q 197 846 261 916 q 99 686 133 777 q 64 490 64 594 m 229 500 q 261 734 229 631 q 363 899 293 838 q 545 960 433 960 q 682 923 621 960 q 786 822 743 887 q 852 670 829 757 q 875 480 875 583 q 843 245 875 350 q 741 80 810 141 q 559 20 671 20 q 422 56 483 20 q 317 157 361 92 q 251 310 274 222 q 229 500 229 397 m 619 1058 q 692 1093 663 1058 q 718 1215 721 1128 l 692 1215 q 677 1151 689 1168 q 646 1134 665 1134 q 619 1140 631 1134 q 589 1158 606 1145 l 569 1171 q 523 1199 545 1189 q 476 1209 502 1209 q 404 1174 433 1209 q 378 1053 375 1139 l 404 1053 q 419 1117 407 1099 q 450 1134 431 1134 q 477 1128 465 1134 q 507 1109 490 1122 l 527 1096 q 573 1068 551 1079 q 619 1058 594 1058 z "},"Ṍ":{"ha":1103,"x_min":64,"x_max":1039,"o":"m 64 490 q 105 279 64 372 q 215 120 146 186 q 372 20 285 55 q 553 -14 460 -14 q 752 25 663 -14 q 906 134 842 64 q 1004 294 970 203 q 1039 490 1039 386 q 998 701 1039 608 q 888 859 958 793 q 731 959 819 924 q 551 994 644 994 q 351 955 440 994 q 197 846 261 916 q 99 686 133 777 q 64 490 64 594 m 229 500 q 261 734 229 631 q 363 899 293 838 q 545 960 433 960 q 682 923 621 960 q 786 822 743 887 q 852 670 829 757 q 875 480 875 583 q 843 245 875 350 q 741 80 810 141 q 559 20 671 20 q 422 56 483 20 q 317 157 361 92 q 251 310 274 222 q 229 500 229 397 m 623 1065 q 691 1090 665 1065 q 718 1165 718 1115 l 692 1165 q 678 1131 692 1141 q 642 1121 664 1121 q 613 1124 628 1121 q 578 1134 598 1128 l 558 1141 q 517 1151 537 1147 q 473 1155 496 1155 q 405 1130 432 1155 q 379 1055 378 1105 l 404 1055 q 418 1088 405 1078 q 455 1099 432 1099 q 484 1096 469 1099 q 519 1086 498 1093 l 538 1080 q 579 1069 559 1073 q 623 1065 600 1065 m 717 1243 l 717 1320 l 378 1214 l 378 1192 l 717 1243 z "},"Ṏ":{"ha":1103,"x_min":64,"x_max":1039,"o":"m 64 490 q 105 279 64 372 q 215 120 146 186 q 372 20 285 55 q 553 -14 460 -14 q 752 25 663 -14 q 906 134 842 64 q 1004 294 970 203 q 1039 490 1039 386 q 998 701 1039 608 q 888 859 958 793 q 731 959 819 924 q 551 994 644 994 q 351 955 440 994 q 197 846 261 916 q 99 686 133 777 q 64 490 64 594 m 229 500 q 261 734 229 631 q 363 899 293 838 q 545 960 433 960 q 682 923 621 960 q 786 822 743 887 q 852 670 829 757 q 875 480 875 583 q 843 245 875 350 q 741 80 810 141 q 559 20 671 20 q 422 56 483 20 q 317 157 361 92 q 251 310 274 222 q 229 500 229 397 m 623 1065 q 691 1090 665 1065 q 718 1165 718 1115 l 692 1165 q 678 1131 692 1141 q 642 1121 664 1121 q 613 1124 628 1121 q 578 1134 598 1128 l 558 1141 q 517 1151 537 1147 q 473 1155 496 1155 q 405 1130 432 1155 q 379 1055 378 1105 l 404 1055 q 418 1088 405 1078 q 455 1099 432 1099 q 484 1096 469 1099 q 519 1086 498 1093 l 538 1080 q 579 1069 559 1073 q 623 1065 600 1065 m 454 1208 q 492 1222 477 1208 q 507 1256 507 1236 q 492 1290 507 1276 q 454 1303 477 1303 l 450 1303 q 412 1290 427 1303 q 397 1256 397 1276 q 412 1222 397 1236 q 450 1208 427 1208 l 454 1208 m 646 1208 q 684 1222 669 1208 q 699 1256 699 1236 q 684 1290 699 1276 q 646 1303 669 1303 l 642 1303 q 604 1290 619 1303 q 589 1256 589 1276 q 604 1222 589 1236 q 642 1208 619 1208 l 646 1208 z "},"Ȭ":{"ha":1103,"x_min":64,"x_max":1039,"o":"m 64 490 q 105 279 64 372 q 215 120 146 186 q 372 20 285 55 q 553 -14 460 -14 q 752 25 663 -14 q 906 134 842 64 q 1004 294 970 203 q 1039 490 1039 386 q 998 701 1039 608 q 888 859 958 793 q 731 959 819 924 q 551 994 644 994 q 351 955 440 994 q 197 846 261 916 q 99 686 133 777 q 64 490 64 594 m 229 500 q 261 734 229 631 q 363 899 293 838 q 545 960 433 960 q 682 923 621 960 q 786 822 743 887 q 852 670 829 757 q 875 480 875 583 q 843 245 875 350 q 741 80 810 141 q 559 20 671 20 q 422 56 483 20 q 317 157 361 92 q 251 310 274 222 q 229 500 229 397 m 623 1065 q 691 1090 665 1065 q 718 1165 718 1115 l 692 1165 q 678 1131 692 1141 q 642 1121 664 1121 q 613 1124 628 1121 q 578 1134 598 1128 l 558 1141 q 517 1151 537 1147 q 473 1155 496 1155 q 405 1130 432 1155 q 379 1055 378 1105 l 404 1055 q 418 1088 405 1078 q 455 1099 432 1099 q 484 1096 469 1099 q 519 1086 498 1093 l 538 1080 q 579 1069 559 1073 q 623 1065 600 1065 m 378 1228 l 718 1228 l 718 1284 l 378 1284 l 378 1228 z "},"Ō":{"ha":1103,"x_min":64,"x_max":1039,"o":"m 64 490 q 105 279 64 372 q 215 120 146 186 q 372 20 285 55 q 553 -14 460 -14 q 752 25 663 -14 q 906 134 842 64 q 1004 294 970 203 q 1039 490 1039 386 q 998 701 1039 608 q 888 859 958 793 q 731 959 819 924 q 551 994 644 994 q 351 955 440 994 q 197 846 261 916 q 99 686 133 777 q 64 490 64 594 m 229 500 q 261 734 229 631 q 363 899 293 838 q 545 960 433 960 q 682 923 621 960 q 786 822 743 887 q 852 670 829 757 q 875 480 875 583 q 843 245 875 350 q 741 80 810 141 q 559 20 671 20 q 422 56 483 20 q 317 157 361 92 q 251 310 274 222 q 229 500 229 397 m 389 1087 l 708 1087 l 708 1156 l 389 1156 l 389 1087 z "},"Ṓ":{"ha":1103,"x_min":64,"x_max":1039,"o":"m 64 490 q 105 279 64 372 q 215 120 146 186 q 372 20 285 55 q 553 -14 460 -14 q 752 25 663 -14 q 906 134 842 64 q 1004 294 970 203 q 1039 490 1039 386 q 998 701 1039 608 q 888 859 958 793 q 731 959 819 924 q 551 994 644 994 q 351 955 440 994 q 197 846 261 916 q 99 686 133 777 q 64 490 64 594 m 229 500 q 261 734 229 631 q 363 899 293 838 q 545 960 433 960 q 682 923 621 960 q 786 822 743 887 q 852 670 829 757 q 875 480 875 583 q 843 245 875 350 q 741 80 810 141 q 559 20 671 20 q 422 56 483 20 q 317 157 361 92 q 251 310 274 222 q 229 500 229 397 m 378 1082 l 718 1082 l 718 1138 l 378 1138 l 378 1082 m 717 1244 l 717 1320 l 378 1215 l 378 1193 l 717 1244 z "},"Ṑ":{"ha":1103,"x_min":64,"x_max":1039,"o":"m 64 490 q 105 279 64 372 q 215 120 146 186 q 372 20 285 55 q 553 -14 460 -14 q 752 25 663 -14 q 906 134 842 64 q 1004 294 970 203 q 1039 490 1039 386 q 998 701 1039 608 q 888 859 958 793 q 731 959 819 924 q 551 994 644 994 q 351 955 440 994 q 197 846 261 916 q 99 686 133 777 q 64 490 64 594 m 229 500 q 261 734 229 631 q 363 899 293 838 q 545 960 433 960 q 682 923 621 960 q 786 822 743 887 q 852 670 829 757 q 875 480 875 583 q 843 245 875 350 q 741 80 810 141 q 559 20 671 20 q 422 56 483 20 q 317 157 361 92 q 251 310 274 222 q 229 500 229 397 m 378 1082 l 718 1082 l 718 1138 l 378 1138 l 378 1082 m 379 1244 l 718 1193 l 718 1215 l 379 1320 l 379 1244 z "},"Ỏ":{"ha":1103,"x_min":64,"x_max":1039,"o":"m 64 490 q 105 279 64 372 q 215 120 146 186 q 372 20 285 55 q 553 -14 460 -14 q 752 25 663 -14 q 906 134 842 64 q 1004 294 970 203 q 1039 490 1039 386 q 998 701 1039 608 q 888 859 958 793 q 731 959 819 924 q 551 994 644 994 q 351 955 440 994 q 197 846 261 916 q 99 686 133 777 q 64 490 64 594 m 229 500 q 261 734 229 631 q 363 899 293 838 q 545 960 433 960 q 682 923 621 960 q 786 822 743 887 q 852 670 829 757 q 875 480 875 583 q 843 245 875 350 q 741 80 810 141 q 559 20 671 20 q 422 56 483 20 q 317 157 361 92 q 251 310 274 222 q 229 500 229 397 m 562 1254 q 488 1235 519 1254 q 442 1189 458 1216 l 442 1170 q 475 1190 455 1182 q 518 1198 494 1198 q 568 1184 550 1198 q 586 1147 586 1170 q 566 1099 586 1122 q 508 1051 545 1076 l 533 1051 q 636 1112 607 1082 q 665 1175 665 1141 q 637 1232 665 1210 q 562 1254 608 1254 z "},"Ȯ":{"ha":1103,"x_min":64,"x_max":1039,"o":"m 64 490 q 105 279 64 372 q 215 120 146 186 q 372 20 285 55 q 553 -14 460 -14 q 752 25 663 -14 q 906 134 842 64 q 1004 294 970 203 q 1039 490 1039 386 q 998 701 1039 608 q 888 859 958 793 q 731 959 819 924 q 551 994 644 994 q 351 955 440 994 q 197 846 261 916 q 99 686 133 777 q 64 490 64 594 m 229 500 q 261 734 229 631 q 363 899 293 838 q 545 960 433 960 q 682 923 621 960 q 786 822 743 887 q 852 670 829 757 q 875 480 875 583 q 843 245 875 350 q 741 80 810 141 q 559 20 671 20 q 422 56 483 20 q 317 157 361 92 q 251 310 274 222 q 229 500 229 397 m 548 1071 q 594 1089 575 1071 q 612 1134 612 1108 q 594 1178 612 1160 q 548 1196 575 1196 q 502 1178 521 1196 q 484 1134 484 1160 q 502 1089 484 1108 q 548 1071 521 1071 z "},"Ȱ":{"ha":1103,"x_min":64,"x_max":1039,"o":"m 64 490 q 105 279 64 372 q 215 120 146 186 q 372 20 285 55 q 553 -14 460 -14 q 752 25 663 -14 q 906 134 842 64 q 1004 294 970 203 q 1039 490 1039 386 q 998 701 1039 608 q 888 859 958 793 q 731 959 819 924 q 551 994 644 994 q 351 955 440 994 q 197 846 261 916 q 99 686 133 777 q 64 490 64 594 m 229 500 q 261 734 229 631 q 363 899 293 838 q 545 960 433 960 q 682 923 621 960 q 786 822 743 887 q 852 670 829 757 q 875 480 875 583 q 843 245 875 350 q 741 80 810 141 q 559 20 671 20 q 422 56 483 20 q 317 157 361 92 q 251 310 274 222 q 229 500 229 397 m 548 1059 q 589 1074 572 1059 q 606 1109 606 1088 q 589 1145 606 1131 q 548 1160 572 1160 q 507 1145 524 1160 q 490 1109 490 1131 q 507 1074 490 1088 q 548 1059 524 1059 m 378 1213 l 718 1213 l 718 1270 l 378 1270 l 378 1213 z "},"Ọ":{"ha":1103,"x_min":64,"x_max":1039,"o":"m 64 490 q 105 279 64 372 q 215 120 146 186 q 372 20 285 55 q 553 -14 460 -14 q 752 25 663 -14 q 906 134 842 64 q 1004 294 970 203 q 1039 490 1039 386 q 998 701 1039 608 q 888 859 958 793 q 731 959 819 924 q 551 994 644 994 q 351 955 440 994 q 197 846 261 916 q 99 686 133 777 q 64 490 64 594 m 229 500 q 261 734 229 631 q 363 899 293 838 q 545 960 433 960 q 682 923 621 960 q 786 822 743 887 q 852 670 829 757 q 875 480 875 583 q 843 245 875 350 q 741 80 810 141 q 559 20 671 20 q 422 56 483 20 q 317 157 361 92 q 251 310 274 222 q 229 500 229 397 m 557 -133 q 511 -151 530 -133 q 492 -195 492 -170 q 511 -240 492 -221 q 557 -258 530 -258 q 603 -240 584 -258 q 621 -195 621 -221 q 603 -151 621 -170 q 557 -133 584 -133 z "},"Ǫ":{"ha":1103,"x_min":64,"x_max":1039,"o":"m 64 490 q 105 279 64 372 q 215 120 146 186 q 372 20 285 55 q 553 -14 460 -14 q 752 25 663 -14 q 906 134 842 64 q 1004 294 970 203 q 1039 490 1039 386 q 998 701 1039 608 q 888 859 958 793 q 731 959 819 924 q 551 994 644 994 q 351 955 440 994 q 197 846 261 916 q 99 686 133 777 q 64 490 64 594 m 229 500 q 261 734 229 631 q 363 899 293 838 q 545 960 433 960 q 682 923 621 960 q 786 822 743 887 q 852 670 829 757 q 875 480 875 583 q 843 245 875 350 q 741 80 810 141 q 559 20 671 20 q 421 56 482 20 q 317 157 360 92 q 251 310 274 222 q 229 500 229 397 m 572 -324 q 643 -306 611 -324 q 687 -259 674 -288 l 687 -236 q 664 -253 678 -246 q 633 -260 650 -260 q 571 -224 595 -260 q 546 -134 546 -187 q 555 -63 546 -96 q 581 -8 564 -30 l 557 -8 q 476 -101 507 -51 q 446 -203 446 -151 q 482 -291 446 -257 q 572 -324 518 -324 z "},"Ǭ":{"ha":1103,"x_min":64,"x_max":1039,"o":"m 64 490 q 105 279 64 372 q 215 120 146 186 q 372 20 285 55 q 553 -14 460 -14 q 752 25 663 -14 q 906 134 842 64 q 1004 294 970 203 q 1039 490 1039 386 q 998 701 1039 608 q 888 859 958 793 q 731 959 819 924 q 551 994 644 994 q 351 955 440 994 q 197 846 261 916 q 99 686 133 777 q 64 490 64 594 m 229 500 q 261 734 229 631 q 363 899 293 838 q 545 960 433 960 q 682 923 621 960 q 786 822 743 887 q 852 670 829 757 q 875 480 875 583 q 843 245 875 350 q 741 80 810 141 q 559 20 671 20 q 421 56 482 20 q 317 157 360 92 q 251 310 274 222 q 229 500 229 397 m 572 -324 q 643 -306 611 -324 q 687 -259 674 -288 l 687 -236 q 664 -253 678 -246 q 633 -260 650 -260 q 571 -224 595 -260 q 546 -134 546 -187 q 555 -63 546 -96 q 581 -8 564 -30 l 557 -8 q 476 -101 507 -51 q 446 -203 446 -151 q 482 -291 446 -257 q 572 -324 518 -324 m 389 1087 l 708 1087 l 708 1156 l 389 1156 l 389 1087 z "},"Ơ":{"ha":1110,"x_min":64,"x_max":1039,"o":"m 64 490 q 105 279 64 372 q 215 120 146 186 q 372 20 285 55 q 553 -14 460 -14 q 752 25 663 -14 q 906 134 842 64 q 1004 294 970 203 q 1039 490 1039 386 q 994 709 1039 612 q 873 871 949 805 q 703 969 798 938 l 703 964 q 750 954 722 959 q 807 949 777 949 q 950 979 895 949 q 1006 1069 1006 1008 q 977 1150 1006 1114 q 905 1205 948 1186 l 881 1205 q 898 1168 891 1193 q 905 1118 905 1144 q 863 1017 905 1056 q 737 977 821 977 q 652 985 696 977 q 551 994 607 994 q 351 955 440 994 q 197 846 261 916 q 99 686 133 777 q 64 490 64 594 m 229 500 q 261 734 229 631 q 363 899 293 838 q 545 960 433 960 q 682 923 621 960 q 786 822 743 887 q 852 670 829 757 q 875 480 875 583 q 843 245 875 350 q 741 80 810 141 q 559 20 671 20 q 422 56 483 20 q 317 157 361 92 q 251 310 274 222 q 229 500 229 397 z "},"Ớ":{"ha":1110,"x_min":64,"x_max":1039,"o":"m 64 490 q 105 279 64 372 q 215 120 146 186 q 372 20 285 55 q 553 -14 460 -14 q 752 25 663 -14 q 906 134 842 64 q 1004 294 970 203 q 1039 490 1039 386 q 994 709 1039 612 q 873 871 949 805 q 703 969 798 938 l 703 964 q 750 954 722 959 q 807 949 777 949 q 950 979 895 949 q 1006 1069 1006 1008 q 977 1150 1006 1114 q 905 1205 948 1186 l 881 1205 q 898 1168 891 1193 q 905 1118 905 1144 q 863 1017 905 1056 q 737 977 821 977 q 652 985 696 977 q 551 994 607 994 q 351 955 440 994 q 197 846 261 916 q 99 686 133 777 q 64 490 64 594 m 229 500 q 261 734 229 631 q 363 899 293 838 q 545 960 433 960 q 682 923 621 960 q 786 822 743 887 q 852 670 829 757 q 875 480 875 583 q 843 245 875 350 q 741 80 810 141 q 559 20 671 20 q 422 56 483 20 q 317 157 361 92 q 251 310 274 222 q 229 500 229 397 m 515 1042 l 719 1221 l 719 1225 l 578 1225 l 486 1043 l 515 1042 z "},"Ờ":{"ha":1110,"x_min":64,"x_max":1039,"o":"m 64 490 q 105 279 64 372 q 215 120 146 186 q 372 20 285 55 q 553 -14 460 -14 q 752 25 663 -14 q 906 134 842 64 q 1004 294 970 203 q 1039 490 1039 386 q 994 709 1039 612 q 873 871 949 805 q 703 969 798 938 l 703 964 q 750 954 722 959 q 807 949 777 949 q 950 979 895 949 q 1006 1069 1006 1008 q 977 1150 1006 1114 q 905 1205 948 1186 l 881 1205 q 898 1168 891 1193 q 905 1118 905 1144 q 863 1017 905 1056 q 737 977 821 977 q 652 985 696 977 q 551 994 607 994 q 351 955 440 994 q 197 846 261 916 q 99 686 133 777 q 64 490 64 594 m 229 500 q 261 734 229 631 q 363 899 293 838 q 545 960 433 960 q 682 923 621 960 q 786 822 743 887 q 852 670 829 757 q 875 480 875 583 q 843 245 875 350 q 741 80 810 141 q 559 20 671 20 q 422 56 483 20 q 317 157 361 92 q 251 310 274 222 q 229 500 229 397 m 591 1042 l 620 1042 l 532 1224 l 386 1224 l 386 1221 l 591 1042 z "},"Ỡ":{"ha":1110,"x_min":64,"x_max":1039,"o":"m 64 490 q 105 279 64 372 q 215 120 146 186 q 372 20 285 55 q 553 -14 460 -14 q 752 25 663 -14 q 906 134 842 64 q 1004 294 970 203 q 1039 490 1039 386 q 994 709 1039 612 q 873 871 949 805 q 703 969 798 938 l 703 964 q 750 954 722 959 q 807 949 777 949 q 950 979 895 949 q 1006 1069 1006 1008 q 977 1150 1006 1114 q 905 1205 948 1186 l 881 1205 q 898 1168 891 1193 q 905 1118 905 1144 q 863 1017 905 1056 q 737 977 821 977 q 652 985 696 977 q 551 994 607 994 q 351 955 440 994 q 197 846 261 916 q 99 686 133 777 q 64 490 64 594 m 229 500 q 261 734 229 631 q 363 899 293 838 q 545 960 433 960 q 682 923 621 960 q 786 822 743 887 q 852 670 829 757 q 875 480 875 583 q 843 245 875 350 q 741 80 810 141 q 559 20 671 20 q 422 56 483 20 q 317 157 361 92 q 251 310 274 222 q 229 500 229 397 m 618 1058 q 691 1093 662 1058 q 717 1215 720 1128 l 691 1215 q 676 1151 688 1168 q 645 1134 665 1134 q 618 1140 631 1134 q 588 1158 606 1145 l 568 1171 q 523 1199 544 1189 q 475 1209 501 1209 q 403 1174 432 1209 q 377 1053 374 1139 l 404 1053 q 418 1117 406 1099 q 450 1134 431 1134 q 477 1128 464 1134 q 507 1109 490 1122 l 526 1096 q 572 1068 551 1079 q 618 1058 593 1058 z "},"Ở":{"ha":1110,"x_min":64,"x_max":1039,"o":"m 64 490 q 105 279 64 372 q 215 120 146 186 q 372 20 285 55 q 553 -14 460 -14 q 752 25 663 -14 q 906 134 842 64 q 1004 294 970 203 q 1039 490 1039 386 q 994 709 1039 612 q 873 871 949 805 q 703 969 798 938 l 703 964 q 750 954 722 959 q 807 949 777 949 q 950 979 895 949 q 1006 1069 1006 1008 q 977 1150 1006 1114 q 905 1205 948 1186 l 881 1205 q 898 1168 891 1193 q 905 1118 905 1144 q 863 1017 905 1056 q 737 977 821 977 q 652 985 696 977 q 551 994 607 994 q 351 955 440 994 q 197 846 261 916 q 99 686 133 777 q 64 490 64 594 m 229 500 q 261 734 229 631 q 363 899 293 838 q 545 960 433 960 q 682 923 621 960 q 786 822 743 887 q 852 670 829 757 q 875 480 875 583 q 843 245 875 350 q 741 80 810 141 q 559 20 671 20 q 422 56 483 20 q 317 157 361 92 q 251 310 274 222 q 229 500 229 397 m 562 1254 q 488 1235 518 1254 q 441 1189 457 1216 l 441 1170 q 474 1190 454 1182 q 517 1198 494 1198 q 567 1184 549 1198 q 585 1147 585 1170 q 565 1099 585 1122 q 507 1051 545 1076 l 532 1051 q 635 1112 606 1082 q 665 1175 665 1141 q 636 1232 665 1210 q 562 1254 608 1254 z "},"Ợ":{"ha":1110,"x_min":64,"x_max":1039,"o":"m 64 490 q 105 279 64 372 q 215 120 146 186 q 372 20 285 55 q 553 -14 460 -14 q 752 25 663 -14 q 906 134 842 64 q 1004 294 970 203 q 1039 490 1039 386 q 994 709 1039 612 q 873 871 949 805 q 703 969 798 938 l 703 964 q 750 954 722 959 q 807 949 777 949 q 950 979 895 949 q 1006 1069 1006 1008 q 977 1150 1006 1114 q 905 1205 948 1186 l 881 1205 q 898 1168 891 1193 q 905 1118 905 1144 q 863 1017 905 1056 q 737 977 821 977 q 652 985 696 977 q 551 994 607 994 q 351 955 440 994 q 197 846 261 916 q 99 686 133 777 q 64 490 64 594 m 229 500 q 261 734 229 631 q 363 899 293 838 q 545 960 433 960 q 682 923 621 960 q 786 822 743 887 q 852 670 829 757 q 875 480 875 583 q 843 245 875 350 q 741 80 810 141 q 559 20 671 20 q 422 56 483 20 q 317 157 361 92 q 251 310 274 222 q 229 500 229 397 m 555 -133 q 510 -151 528 -133 q 491 -195 491 -170 q 510 -240 491 -221 q 555 -258 528 -258 q 601 -240 583 -258 q 620 -195 620 -221 q 601 -151 620 -170 q 555 -133 583 -133 z "},"Ø":{"ha":1103,"x_min":64,"x_max":1039,"o":"m 64 490 q 105 279 64 372 q 215 120 146 186 q 372 20 285 55 q 553 -14 460 -14 q 752 25 663 -14 q 906 134 842 64 q 1004 294 970 203 q 1039 490 1039 386 q 998 701 1039 608 q 888 859 958 793 q 731 959 819 924 q 551 994 644 994 q 351 955 440 994 q 197 846 261 916 q 99 686 133 777 q 64 490 64 594 m 229 500 q 261 734 229 631 q 363 899 293 838 q 545 960 433 960 q 682 923 621 960 q 786 822 743 887 q 852 670 829 757 q 875 480 875 583 q 843 245 875 350 q 741 80 810 141 q 559 20 671 20 q 421 56 482 20 q 317 157 360 92 q 251 310 274 222 q 229 500 229 397 m 954 978 l 125 23 l 150 1 l 978 956 l 954 978 z "},"Ǿ":{"ha":1103,"x_min":64,"x_max":1039,"o":"m 64 490 q 105 279 64 372 q 215 120 146 186 q 372 20 285 55 q 553 -14 460 -14 q 752 25 663 -14 q 906 134 842 64 q 1004 294 970 203 q 1039 490 1039 386 q 998 701 1039 608 q 888 859 958 793 q 731 959 819 924 q 551 994 644 994 q 351 955 440 994 q 197 846 261 916 q 99 686 133 777 q 64 490 64 594 m 229 500 q 261 734 229 631 q 363 899 293 838 q 545 960 433 960 q 682 923 621 960 q 786 822 743 887 q 852 670 829 757 q 875 480 875 583 q 843 245 875 350 q 741 80 810 141 q 559 20 671 20 q 421 56 482 20 q 317 157 360 92 q 251 310 274 222 q 229 500 229 397 m 954 978 l 125 23 l 150 1 l 978 956 l 954 978 m 516 1042 l 720 1221 l 720 1225 l 578 1225 l 487 1043 l 516 1042 z "},"P":{"ha":842,"x_min":38,"x_max":784,"o":"m 784 699 q 676 907 784 835 q 373 979 569 979 l 38 979 l 38 956 q 100 942 80 950 q 127 917 121 933 q 134 870 134 900 l 134 109 q 127 63 134 79 q 100 38 121 46 q 38 23 80 29 l 38 0 l 385 0 l 385 23 q 317 39 340 29 q 288 67 295 48 q 281 119 281 85 l 281 401 l 373 401 q 580 433 487 401 q 729 532 673 466 q 784 699 784 599 m 627 691 q 558 507 627 578 q 345 430 490 435 l 281 428 l 281 952 l 345 950 q 559 873 491 945 q 627 691 627 802 z "},"Ṕ":{"ha":842,"x_min":38,"x_max":784,"o":"m 784 699 q 676 907 784 835 q 373 979 569 979 l 38 979 l 38 956 q 100 942 80 950 q 127 917 121 933 q 134 870 134 900 l 134 109 q 127 63 134 79 q 100 38 121 46 q 38 23 80 29 l 38 0 l 385 0 l 385 23 q 317 39 340 29 q 288 67 295 48 q 281 119 281 85 l 281 401 l 373 401 q 580 433 487 401 q 729 532 673 466 q 784 699 784 599 m 627 691 q 558 507 627 578 q 345 430 490 435 l 281 428 l 281 952 l 345 950 q 559 873 491 945 q 627 691 627 802 m 355 1042 l 559 1221 l 559 1225 l 418 1225 l 326 1043 l 355 1042 z "},"Ṗ":{"ha":842,"x_min":38,"x_max":784,"o":"m 784 699 q 676 907 784 835 q 373 979 569 979 l 38 979 l 38 956 q 100 942 80 950 q 127 917 121 933 q 134 870 134 900 l 134 109 q 127 63 134 79 q 100 38 121 46 q 38 23 80 29 l 38 0 l 385 0 l 385 23 q 317 39 340 29 q 288 67 295 48 q 281 119 281 85 l 281 401 l 373 401 q 580 433 487 401 q 729 532 673 466 q 784 699 784 599 m 627 691 q 558 507 627 578 q 345 430 490 435 l 281 428 l 281 952 l 345 950 q 559 873 491 945 q 627 691 627 802 m 387 1071 q 433 1089 414 1071 q 452 1134 452 1108 q 433 1178 452 1160 q 387 1196 414 1196 q 341 1178 360 1196 q 323 1134 323 1160 q 341 1089 323 1108 q 387 1071 360 1071 z "},"Q":{"ha":1103,"x_min":64,"x_max":1039,"o":"m 64 490 q 105 279 64 372 q 215 120 146 186 q 372 20 285 55 q 553 -14 460 -14 q 752 25 663 -14 q 906 134 842 64 q 1004 294 970 203 q 1039 490 1039 386 q 998 701 1039 608 q 888 859 958 793 q 731 959 819 924 q 551 994 644 994 q 351 955 440 994 q 197 846 261 916 q 99 686 133 777 q 64 490 64 594 m 229 500 q 261 734 229 631 q 362 899 293 838 q 545 960 432 960 q 682 923 621 960 q 786 822 743 887 q 852 670 829 757 q 875 480 875 583 q 843 245 875 350 q 741 80 810 141 q 559 20 671 20 q 422 56 483 20 q 317 157 361 92 q 251 310 274 222 q 229 500 229 397 m 874 -238 q 962 -223 920 -238 q 1039 -187 1004 -208 l 1039 -166 q 958 -163 998 -172 q 868 -127 917 -155 q 754 -49 819 -100 l 667 20 q 618 7 649 12 q 562 3 588 3 q 522 5 543 3 q 484 12 502 7 l 619 -104 q 727 -190 684 -161 q 805 -228 771 -218 q 874 -238 839 -238 z "},"R":{"ha":874,"x_min":38,"x_max":866,"o":"m 774 717 q 730 857 774 798 q 599 947 686 916 q 382 979 511 979 l 38 979 l 38 956 q 100 943 80 951 q 127 918 121 935 q 134 870 134 901 l 134 109 q 127 64 134 80 q 100 39 121 47 q 38 23 80 31 l 38 0 l 373 0 l 373 23 q 314 38 334 30 q 288 62 294 47 q 281 105 281 77 l 281 452 l 433 452 l 672 0 l 866 0 l 866 22 q 827 42 846 28 q 782 95 808 57 q 715 209 755 134 l 562 503 l 562 481 q 715 564 655 501 q 774 717 774 626 m 623 707 q 593 586 623 635 q 506 511 562 536 q 372 482 450 485 l 281 479 l 281 952 l 353 950 q 510 915 451 947 q 596 829 570 882 q 623 707 623 775 z "},"Ŕ":{"ha":874,"x_min":38,"x_max":866,"o":"m 774 717 q 730 857 774 798 q 599 947 686 916 q 382 979 511 979 l 38 979 l 38 956 q 100 943 80 951 q 127 918 121 935 q 134 870 134 901 l 134 109 q 127 64 134 80 q 100 39 121 47 q 38 23 80 31 l 38 0 l 373 0 l 373 23 q 314 38 334 30 q 288 62 294 47 q 281 105 281 77 l 281 452 l 433 452 l 672 0 l 866 0 l 866 22 q 827 42 846 28 q 782 95 808 57 q 715 209 755 134 l 562 503 l 562 481 q 715 564 655 501 q 774 717 774 626 m 623 707 q 593 586 623 635 q 506 511 562 536 q 372 482 450 485 l 281 479 l 281 952 l 353 950 q 510 915 451 947 q 596 829 570 882 q 623 707 623 775 m 378 1042 l 582 1221 l 582 1225 l 441 1225 l 349 1043 l 378 1042 z "},"Ȑ":{"ha":874,"x_min":38,"x_max":866,"o":"m 774 717 q 730 857 774 798 q 599 947 686 916 q 382 979 511 979 l 38 979 l 38 956 q 100 943 80 951 q 127 918 121 935 q 134 870 134 901 l 134 109 q 127 64 134 80 q 100 39 121 47 q 38 23 80 31 l 38 0 l 373 0 l 373 23 q 314 38 334 30 q 288 62 294 47 q 281 105 281 77 l 281 452 l 433 452 l 672 0 l 866 0 l 866 22 q 827 42 846 28 q 782 95 808 57 q 715 209 755 134 l 562 503 l 562 481 q 715 564 655 501 q 774 717 774 626 m 623 707 q 593 586 623 635 q 506 511 562 536 q 372 482 450 485 l 281 479 l 281 952 l 353 950 q 510 915 451 947 q 596 829 570 882 q 623 707 623 775 m 275 1224 l 147 1224 l 147 1221 l 337 1042 l 367 1042 l 275 1224 m 486 1224 l 366 1224 l 366 1221 l 509 1042 l 538 1042 l 486 1224 z "},"Ř":{"ha":874,"x_min":38,"x_max":866,"o":"m 774 717 q 730 857 774 798 q 599 947 686 916 q 382 979 511 979 l 38 979 l 38 956 q 100 943 80 951 q 127 918 121 935 q 134 870 134 901 l 134 109 q 127 64 134 80 q 100 39 121 47 q 38 23 80 31 l 38 0 l 373 0 l 373 23 q 314 38 334 30 q 288 62 294 47 q 281 105 281 77 l 281 452 l 433 452 l 672 0 l 866 0 l 866 22 q 827 42 846 28 q 782 95 808 57 q 715 209 755 134 l 562 503 l 562 481 q 715 564 655 501 q 774 717 774 626 m 623 707 q 593 586 623 635 q 506 511 562 536 q 372 482 450 485 l 281 479 l 281 952 l 353 950 q 510 915 451 947 q 596 829 570 882 q 623 707 623 775 m 557 1236 l 389 1120 l 443 1120 l 277 1236 l 247 1236 l 383 1055 l 448 1055 l 585 1236 l 557 1236 z "},"Ȓ":{"ha":874,"x_min":38,"x_max":866,"o":"m 774 717 q 730 857 774 798 q 599 947 686 916 q 382 979 511 979 l 38 979 l 38 956 q 100 943 80 951 q 127 918 121 935 q 134 870 134 901 l 134 109 q 127 64 134 80 q 100 39 121 47 q 38 23 80 31 l 38 0 l 373 0 l 373 23 q 314 38 334 30 q 288 62 294 47 q 281 105 281 77 l 281 452 l 433 452 l 672 0 l 866 0 l 866 22 q 827 42 846 28 q 782 95 808 57 q 715 209 755 134 l 562 503 l 562 481 q 715 564 655 501 q 774 717 774 626 m 623 707 q 593 586 623 635 q 506 511 562 536 q 372 482 450 485 l 281 479 l 281 952 l 353 950 q 510 915 451 947 q 596 829 570 882 q 623 707 623 775 m 410 1267 q 323 1244 359 1267 q 270 1185 288 1221 q 251 1107 251 1148 q 253 1077 251 1091 l 277 1077 q 277 1079 277 1078 q 277 1080 277 1080 q 314 1159 277 1128 q 410 1189 351 1189 q 506 1159 469 1189 q 543 1080 543 1128 q 543 1079 543 1080 q 543 1077 543 1078 l 567 1077 q 569 1107 569 1091 q 550 1185 569 1148 q 496 1244 532 1221 q 410 1267 460 1267 z "},"Ṟ":{"ha":874,"x_min":38,"x_max":866,"o":"m 774 717 q 730 857 774 798 q 599 947 686 916 q 382 979 511 979 l 38 979 l 38 956 q 100 943 80 951 q 127 918 121 935 q 134 870 134 901 l 134 109 q 127 64 134 80 q 100 39 121 47 q 38 23 80 31 l 38 0 l 373 0 l 373 23 q 314 38 334 30 q 288 62 294 47 q 281 105 281 77 l 281 452 l 433 452 l 672 0 l 866 0 l 866 22 q 827 42 846 28 q 782 95 808 57 q 715 209 755 134 l 562 503 l 562 481 q 715 564 655 501 q 774 717 774 626 m 623 707 q 593 586 623 635 q 506 511 562 536 q 372 482 450 485 l 281 479 l 281 952 l 353 950 q 510 915 451 947 q 596 829 570 882 q 623 707 623 775 z "},"Ṙ":{"ha":874,"x_min":38,"x_max":866,"o":"m 774 717 q 730 857 774 798 q 599 947 686 916 q 382 979 511 979 l 38 979 l 38 956 q 100 943 80 951 q 127 918 121 935 q 134 870 134 901 l 134 109 q 127 64 134 80 q 100 39 121 47 q 38 23 80 31 l 38 0 l 373 0 l 373 23 q 314 38 334 30 q 288 62 294 47 q 281 105 281 77 l 281 452 l 433 452 l 672 0 l 866 0 l 866 22 q 827 42 846 28 q 782 95 808 57 q 715 209 755 134 l 562 503 l 562 481 q 715 564 655 501 q 774 717 774 626 m 623 707 q 593 586 623 635 q 506 511 562 536 q 372 482 450 485 l 281 479 l 281 952 l 353 950 q 510 915 451 947 q 596 829 570 882 q 623 707 623 775 m 410 1071 q 456 1089 437 1071 q 475 1134 475 1108 q 456 1178 475 1160 q 410 1196 437 1196 q 365 1178 383 1196 q 346 1134 346 1160 q 365 1089 346 1108 q 410 1071 383 1071 z "},"Ṛ":{"ha":874,"x_min":38,"x_max":866,"o":"m 774 717 q 730 857 774 798 q 599 947 686 916 q 382 979 511 979 l 38 979 l 38 956 q 100 943 80 951 q 127 918 121 935 q 134 870 134 901 l 134 109 q 127 64 134 80 q 100 39 121 47 q 38 23 80 31 l 38 0 l 373 0 l 373 23 q 314 38 334 30 q 288 62 294 47 q 281 105 281 77 l 281 452 l 433 452 l 672 0 l 866 0 l 866 22 q 827 42 846 28 q 782 95 808 57 q 715 209 755 134 l 562 503 l 562 481 q 715 564 655 501 q 774 717 774 626 m 623 707 q 593 586 623 635 q 506 511 562 536 q 372 482 450 485 l 281 479 l 281 952 l 353 950 q 510 915 451 947 q 596 829 570 882 q 623 707 623 775 m 443 -133 q 397 -151 416 -133 q 378 -195 378 -170 q 397 -240 378 -221 q 443 -258 416 -258 q 489 -240 470 -258 q 507 -195 507 -221 q 489 -151 507 -170 q 443 -133 470 -133 z "},"Ṝ":{"ha":874,"x_min":38,"x_max":866,"o":"m 774 717 q 730 857 774 798 q 599 947 686 916 q 382 979 511 979 l 38 979 l 38 956 q 100 943 80 951 q 127 918 121 935 q 134 870 134 901 l 134 109 q 127 64 134 80 q 100 39 121 47 q 38 23 80 31 l 38 0 l 373 0 l 373 23 q 314 38 334 30 q 288 62 294 47 q 281 105 281 77 l 281 452 l 433 452 l 672 0 l 866 0 l 866 22 q 827 42 846 28 q 782 95 808 57 q 715 209 755 134 l 562 503 l 562 481 q 715 564 655 501 q 774 717 774 626 m 623 707 q 593 586 623 635 q 506 511 562 536 q 372 482 450 485 l 281 479 l 281 952 l 353 950 q 510 915 451 947 q 596 829 570 882 q 623 707 623 775 m 443 -133 q 397 -151 416 -133 q 378 -195 378 -170 q 397 -240 378 -221 q 443 -258 416 -258 q 489 -240 470 -258 q 507 -195 507 -221 q 489 -151 507 -170 q 443 -133 470 -133 m 251 1087 l 570 1087 l 570 1156 l 251 1156 l 251 1087 z "},"Ŗ":{"ha":874,"x_min":38,"x_max":866,"o":"m 774 717 q 730 857 774 798 q 599 947 686 916 q 382 979 511 979 l 38 979 l 38 956 q 100 943 80 951 q 127 918 121 935 q 134 870 134 901 l 134 109 q 127 64 134 80 q 100 39 121 47 q 38 23 80 31 l 38 0 l 373 0 l 373 23 q 314 38 334 30 q 288 62 294 47 q 281 105 281 77 l 281 452 l 433 452 l 672 0 l 866 0 l 866 22 q 827 42 846 28 q 782 95 808 57 q 715 209 755 134 l 562 503 l 562 481 q 715 564 655 501 q 774 717 774 626 m 623 707 q 593 586 623 635 q 506 511 562 536 q 372 482 450 485 l 281 479 l 281 952 l 353 950 q 510 915 451 947 q 596 829 570 882 q 623 707 623 775 m 439 -305 q 542 -275 503 -305 q 582 -195 582 -244 q 546 -115 582 -144 q 456 -85 511 -85 q 390 -101 416 -85 q 350 -136 363 -117 l 350 -157 q 373 -150 359 -153 q 404 -146 388 -146 q 457 -161 436 -146 q 478 -201 478 -175 q 457 -241 478 -227 q 404 -256 436 -256 q 352 -247 376 -256 q 312 -225 328 -238 l 312 -248 q 362 -289 328 -272 q 439 -305 397 -305 z "},"S":{"ha":771,"x_min":64,"x_max":710,"o":"m 378 -14 q 506 6 446 -14 q 612 63 566 26 q 684 154 658 101 q 710 271 710 206 q 649 443 710 372 q 465 557 587 513 l 389 586 q 247 666 298 620 q 195 789 195 713 q 246 912 195 864 q 395 960 297 960 q 506 933 457 960 q 588 853 554 906 q 640 724 623 801 l 662 724 l 653 931 q 557 974 623 955 q 398 994 492 994 q 234 963 308 994 q 116 875 159 933 q 72 733 72 817 q 135 564 72 633 q 315 452 198 494 l 393 424 q 539 337 492 388 q 587 210 587 286 q 529 71 587 123 q 381 20 472 20 q 251 48 311 20 q 149 134 191 77 q 86 280 106 192 l 64 280 l 74 60 q 148 22 104 39 q 251 -4 193 5 q 378 -14 309 -14 z "},"Ś":{"ha":771,"x_min":64,"x_max":710,"o":"m 378 -14 q 506 6 446 -14 q 612 63 566 26 q 684 154 658 101 q 710 271 710 206 q 649 443 710 372 q 465 557 587 513 l 389 586 q 247 666 298 620 q 195 789 195 713 q 246 912 195 864 q 395 960 297 960 q 506 933 457 960 q 588 853 554 906 q 640 724 623 801 l 662 724 l 653 931 q 557 974 623 955 q 398 994 492 994 q 234 963 308 994 q 116 875 159 933 q 72 733 72 817 q 135 564 72 633 q 315 452 198 494 l 393 424 q 539 337 492 388 q 587 210 587 286 q 529 71 587 123 q 381 20 472 20 q 251 48 311 20 q 149 134 191 77 q 86 280 106 192 l 64 280 l 74 60 q 148 22 104 39 q 251 -4 193 5 q 378 -14 309 -14 m 364 1042 l 568 1221 l 568 1225 l 427 1225 l 335 1043 l 364 1042 z "},"Ṥ":{"ha":771,"x_min":64,"x_max":710,"o":"m 378 -14 q 506 6 446 -14 q 612 63 566 26 q 684 154 658 101 q 710 271 710 206 q 649 443 710 372 q 465 557 587 513 l 389 586 q 247 666 298 620 q 195 789 195 713 q 246 912 195 864 q 395 960 297 960 q 506 933 457 960 q 588 853 554 906 q 640 724 623 801 l 662 724 l 653 931 q 557 974 623 955 q 398 994 492 994 q 234 963 308 994 q 116 875 159 933 q 72 733 72 817 q 135 564 72 633 q 315 452 198 494 l 393 424 q 539 337 492 388 q 587 210 587 286 q 529 71 587 123 q 381 20 472 20 q 251 48 311 20 q 149 134 191 77 q 86 280 106 192 l 64 280 l 74 60 q 148 22 104 39 q 251 -4 193 5 q 378 -14 309 -14 m 565 1103 l 565 1179 l 227 1074 l 227 1052 l 565 1103 m 396 1190 q 437 1204 420 1190 q 454 1240 454 1219 q 437 1276 454 1261 q 396 1290 420 1290 q 355 1276 372 1290 q 338 1240 338 1261 q 355 1204 338 1219 q 396 1190 372 1190 z "},"Ŝ":{"ha":771,"x_min":64,"x_max":710,"o":"m 378 -14 q 506 6 446 -14 q 612 63 566 26 q 684 154 658 101 q 710 271 710 206 q 649 443 710 372 q 465 557 587 513 l 389 586 q 247 666 298 620 q 195 789 195 713 q 246 912 195 864 q 395 960 297 960 q 506 933 457 960 q 588 853 554 906 q 640 724 623 801 l 662 724 l 653 931 q 557 974 623 955 q 398 994 492 994 q 234 963 308 994 q 116 875 159 933 q 72 733 72 817 q 135 564 72 633 q 315 452 198 494 l 393 424 q 539 337 492 388 q 587 210 587 286 q 529 71 587 123 q 381 20 472 20 q 251 48 311 20 q 149 134 191 77 q 86 280 106 192 l 64 280 l 74 60 q 148 22 104 39 q 251 -4 193 5 q 378 -14 309 -14 m 262 1042 l 429 1160 l 376 1160 l 542 1042 l 572 1042 l 435 1224 l 370 1224 l 234 1042 l 262 1042 z "},"Š":{"ha":771,"x_min":64,"x_max":710,"o":"m 378 -14 q 506 6 446 -14 q 612 63 566 26 q 684 154 658 101 q 710 271 710 206 q 649 443 710 372 q 465 557 587 513 l 389 586 q 247 666 298 620 q 195 789 195 713 q 246 912 195 864 q 395 960 297 960 q 506 933 457 960 q 588 853 554 906 q 640 724 623 801 l 662 724 l 653 931 q 557 974 623 955 q 398 994 492 994 q 234 963 308 994 q 116 875 159 933 q 72 733 72 817 q 135 564 72 633 q 315 452 198 494 l 393 424 q 539 337 492 388 q 587 210 587 286 q 529 71 587 123 q 381 20 472 20 q 251 48 311 20 q 149 134 191 77 q 86 280 106 192 l 64 280 l 74 60 q 148 22 104 39 q 251 -4 193 5 q 378 -14 309 -14 m 543 1236 l 375 1120 l 429 1120 l 262 1236 l 233 1236 l 369 1055 l 434 1055 l 570 1236 l 543 1236 z "},"Ṧ":{"ha":771,"x_min":64,"x_max":710,"o":"m 378 -14 q 506 6 446 -14 q 612 63 566 26 q 684 154 658 101 q 710 271 710 206 q 649 443 710 372 q 465 557 587 513 l 389 586 q 247 666 298 620 q 195 789 195 713 q 246 912 195 864 q 395 960 297 960 q 506 933 457 960 q 588 853 554 906 q 640 724 623 801 l 662 724 l 653 931 q 557 974 623 955 q 398 994 492 994 q 234 963 308 994 q 116 875 159 933 q 72 733 72 817 q 135 564 72 633 q 315 452 198 494 l 393 424 q 539 337 492 388 q 587 210 587 286 q 529 71 587 123 q 381 20 472 20 q 251 48 311 20 q 149 134 191 77 q 86 280 106 192 l 64 280 l 74 60 q 148 22 104 39 q 251 -4 193 5 q 378 -14 309 -14 m 570 1188 l 386 1124 l 406 1124 l 222 1188 l 222 1166 l 386 1053 l 408 1053 l 570 1166 l 570 1188 m 396 1202 q 437 1217 420 1202 q 454 1253 454 1232 q 437 1288 454 1274 q 396 1303 420 1303 q 355 1288 372 1303 q 338 1253 338 1274 q 355 1217 338 1232 q 396 1202 372 1202 z "},"Ṡ":{"ha":771,"x_min":64,"x_max":710,"o":"m 378 -14 q 506 6 446 -14 q 612 63 566 26 q 684 154 658 101 q 710 271 710 206 q 649 443 710 372 q 465 557 587 513 l 389 586 q 247 666 298 620 q 195 789 195 713 q 246 912 195 864 q 395 960 297 960 q 506 933 457 960 q 588 853 554 906 q 640 724 623 801 l 662 724 l 653 931 q 557 974 623 955 q 398 994 492 994 q 234 963 308 994 q 116 875 159 933 q 72 733 72 817 q 135 564 72 633 q 315 452 198 494 l 393 424 q 539 337 492 388 q 587 210 587 286 q 529 71 587 123 q 381 20 472 20 q 251 48 311 20 q 149 134 191 77 q 86 280 106 192 l 64 280 l 74 60 q 148 22 104 39 q 251 -4 193 5 q 378 -14 309 -14 m 396 1071 q 442 1089 423 1071 q 460 1134 460 1108 q 442 1178 460 1160 q 396 1196 423 1196 q 350 1178 369 1196 q 332 1134 332 1160 q 350 1089 332 1108 q 396 1071 369 1071 z "},"Ṣ":{"ha":771,"x_min":64,"x_max":710,"o":"m 378 -14 q 506 6 446 -14 q 612 63 566 26 q 684 154 658 101 q 710 271 710 206 q 649 443 710 372 q 465 557 587 513 l 389 586 q 247 666 298 620 q 195 789 195 713 q 246 912 195 864 q 395 960 297 960 q 506 933 457 960 q 588 853 554 906 q 640 724 623 801 l 662 724 l 653 931 q 557 974 623 955 q 398 994 492 994 q 234 963 308 994 q 116 875 159 933 q 72 733 72 817 q 135 564 72 633 q 315 452 198 494 l 393 424 q 539 337 492 388 q 587 210 587 286 q 529 71 587 123 q 381 20 472 20 q 251 48 311 20 q 149 134 191 77 q 86 280 106 192 l 64 280 l 74 60 q 148 22 104 39 q 251 -4 193 5 q 378 -14 309 -14 m 380 -133 q 335 -151 353 -133 q 316 -195 316 -170 q 335 -240 316 -221 q 380 -258 353 -258 q 426 -240 408 -258 q 445 -195 445 -221 q 426 -151 445 -170 q 380 -133 408 -133 z "},"Ṩ":{"ha":771,"x_min":64,"x_max":710,"o":"m 378 -14 q 506 6 446 -14 q 612 63 566 26 q 684 154 658 101 q 710 271 710 206 q 649 443 710 372 q 465 557 587 513 l 389 586 q 247 666 298 620 q 195 789 195 713 q 246 912 195 864 q 395 960 297 960 q 506 933 457 960 q 588 853 554 906 q 640 724 623 801 l 662 724 l 653 931 q 557 974 623 955 q 398 994 492 994 q 234 963 308 994 q 116 875 159 933 q 72 733 72 817 q 135 564 72 633 q 315 452 198 494 l 393 424 q 539 337 492 388 q 587 210 587 286 q 529 71 587 123 q 381 20 472 20 q 251 48 311 20 q 149 134 191 77 q 86 280 106 192 l 64 280 l 74 60 q 148 22 104 39 q 251 -4 193 5 q 378 -14 309 -14 m 396 1071 q 442 1089 423 1071 q 460 1134 460 1108 q 442 1178 460 1160 q 396 1196 423 1196 q 350 1178 369 1196 q 332 1134 332 1160 q 350 1089 332 1108 q 396 1071 369 1071 m 380 -133 q 335 -151 353 -133 q 316 -195 316 -170 q 335 -240 316 -221 q 380 -258 353 -258 q 426 -240 408 -258 q 445 -195 445 -221 q 426 -151 445 -170 q 380 -133 408 -133 z "},"Ș":{"ha":771,"x_min":64,"x_max":710,"o":"m 378 -14 q 506 6 446 -14 q 612 63 566 26 q 684 154 658 101 q 710 271 710 206 q 649 443 710 372 q 465 557 587 513 l 389 586 q 247 666 298 620 q 195 789 195 713 q 246 912 195 864 q 395 960 297 960 q 506 933 457 960 q 588 853 554 906 q 640 724 623 801 l 662 724 l 653 931 q 557 974 623 955 q 398 994 492 994 q 234 963 308 994 q 116 875 159 933 q 72 733 72 817 q 135 564 72 633 q 315 452 198 494 l 393 424 q 539 337 492 388 q 587 210 587 286 q 529 71 587 123 q 381 20 472 20 q 251 48 311 20 q 149 134 191 77 q 86 280 106 192 l 64 280 l 74 60 q 148 22 104 39 q 251 -4 193 5 q 378 -14 309 -14 m 377 -305 q 480 -275 440 -305 q 519 -195 519 -244 q 484 -115 519 -144 q 393 -85 448 -85 q 328 -101 354 -85 q 288 -136 301 -117 l 288 -157 q 311 -150 296 -153 q 342 -146 326 -146 q 395 -161 374 -146 q 416 -201 416 -175 q 395 -241 416 -227 q 341 -256 374 -256 q 290 -247 313 -256 q 250 -225 266 -238 l 250 -248 q 300 -289 265 -272 q 377 -305 334 -305 z "},"Ş":{"ha":771,"x_min":64,"x_max":710,"o":"m 378 -14 q 506 6 446 -14 q 612 63 566 26 q 684 154 658 101 q 710 271 710 206 q 649 443 710 372 q 465 557 587 513 l 389 586 q 247 666 298 620 q 195 789 195 713 q 246 912 195 864 q 395 960 297 960 q 506 933 457 960 q 588 853 554 906 q 640 724 623 801 l 662 724 l 653 931 q 557 974 623 955 q 398 994 492 994 q 234 963 308 994 q 116 875 159 933 q 72 733 72 817 q 135 564 72 633 q 315 452 198 494 l 393 424 q 539 337 492 388 q 587 210 587 286 q 529 71 587 123 q 381 20 472 20 q 251 48 311 20 q 149 134 191 77 q 86 280 106 192 l 64 280 l 74 60 q 148 22 104 39 q 251 -4 193 5 q 378 -14 309 -14 m 361 -305 q 429 -292 397 -305 q 480 -253 460 -279 q 500 -191 500 -227 q 483 -131 500 -156 q 437 -91 466 -105 q 374 -77 408 -77 q 347 -80 360 -77 q 326 -87 334 -82 l 323 -113 l 401 -5 l 401 7 l 379 7 l 281 -121 l 282 -144 q 317 -138 296 -138 q 371 -152 349 -138 q 393 -194 393 -167 q 372 -236 393 -221 q 319 -252 351 -252 q 271 -245 295 -252 q 234 -227 248 -238 l 233 -250 q 283 -290 249 -274 q 361 -305 317 -305 z "},"T":{"ha":869,"x_min":28,"x_max":841,"o":"m 831 979 l 39 979 l 28 748 l 50 748 q 95 868 66 827 q 177 928 123 910 q 322 950 231 945 l 361 952 l 361 119 q 354 67 361 85 q 325 39 347 48 q 258 23 303 29 l 258 0 l 612 0 l 612 23 q 545 39 567 29 q 515 67 522 48 q 508 119 508 85 l 508 952 l 547 950 q 692 928 639 945 q 775 868 746 910 q 819 748 804 826 l 841 748 l 831 979 z "},"Ṱ":{"ha":869,"x_min":28,"x_max":841,"o":"m 831 979 l 39 979 l 28 748 l 50 748 q 95 868 66 827 q 177 928 123 910 q 322 950 231 945 l 361 952 l 361 119 q 354 67 361 85 q 325 39 347 48 q 258 23 303 29 l 258 0 l 612 0 l 612 23 q 545 39 567 29 q 515 67 522 48 q 508 119 508 85 l 508 952 l 547 950 q 692 928 639 945 q 775 868 746 910 q 819 748 804 826 l 841 748 l 831 979 z "},"Ť":{"ha":869,"x_min":28,"x_max":841,"o":"m 831 979 l 39 979 l 28 748 l 50 748 q 95 868 66 827 q 177 928 123 910 q 322 950 231 945 l 361 952 l 361 119 q 354 67 361 85 q 325 39 347 48 q 258 23 303 29 l 258 0 l 612 0 l 612 23 q 545 39 567 29 q 515 67 522 48 q 508 119 508 85 l 508 952 l 547 950 q 692 928 639 945 q 775 868 746 910 q 819 748 804 826 l 841 748 l 831 979 m 581 1236 l 414 1120 l 467 1120 l 301 1236 l 271 1236 l 408 1055 l 473 1055 l 609 1236 l 581 1236 z "},"Ṯ":{"ha":869,"x_min":28,"x_max":841,"o":"m 831 979 l 39 979 l 28 748 l 50 748 q 95 868 66 827 q 177 928 123 910 q 322 950 231 945 l 361 952 l 361 119 q 354 67 361 85 q 325 39 347 48 q 258 23 303 29 l 258 0 l 612 0 l 612 23 q 545 39 567 29 q 515 67 522 48 q 508 119 508 85 l 508 952 l 547 950 q 692 928 639 945 q 775 868 746 910 q 819 748 804 826 l 841 748 l 831 979 z "},"Ṫ":{"ha":869,"x_min":28,"x_max":841,"o":"m 831 979 l 39 979 l 28 748 l 50 748 q 95 868 66 827 q 177 928 123 910 q 322 950 231 945 l 361 952 l 361 119 q 354 67 361 85 q 325 39 347 48 q 258 23 303 29 l 258 0 l 612 0 l 612 23 q 545 39 567 29 q 515 67 522 48 q 508 119 508 85 l 508 952 l 547 950 q 692 928 639 945 q 775 868 746 910 q 819 748 804 826 l 841 748 l 831 979 m 435 1071 q 480 1089 462 1071 q 499 1134 499 1108 q 480 1178 499 1160 q 435 1196 462 1196 q 389 1178 408 1196 q 370 1134 370 1160 q 389 1089 370 1108 q 435 1071 408 1071 z "},"Ṭ":{"ha":869,"x_min":28,"x_max":841,"o":"m 831 979 l 39 979 l 28 748 l 50 748 q 95 868 66 827 q 177 928 123 910 q 322 950 231 945 l 361 952 l 361 119 q 354 67 361 85 q 325 39 347 48 q 258 23 303 29 l 258 0 l 612 0 l 612 23 q 545 39 567 29 q 515 67 522 48 q 508 119 508 85 l 508 952 l 547 950 q 692 928 639 945 q 775 868 746 910 q 819 748 804 826 l 841 748 l 831 979 m 435 -133 q 389 -151 408 -133 q 370 -195 370 -170 q 389 -240 370 -221 q 435 -258 408 -258 q 480 -240 462 -258 q 499 -195 499 -221 q 480 -151 499 -170 q 435 -133 462 -133 z "},"Ț":{"ha":869,"x_min":28,"x_max":841,"o":"m 831 979 l 39 979 l 28 748 l 50 748 q 95 868 66 827 q 177 928 123 910 q 322 950 231 945 l 361 952 l 361 119 q 354 67 361 85 q 325 39 347 48 q 258 23 303 29 l 258 0 l 612 0 l 612 23 q 545 39 567 29 q 515 67 522 48 q 508 119 508 85 l 508 952 l 547 950 q 692 928 639 945 q 775 868 746 910 q 819 748 804 826 l 841 748 l 831 979 m 431 -305 q 534 -275 494 -305 q 574 -195 574 -244 q 538 -115 574 -144 q 448 -85 503 -85 q 382 -101 408 -85 q 342 -136 355 -117 l 342 -157 q 365 -150 351 -153 q 396 -146 380 -146 q 449 -161 428 -146 q 470 -201 470 -175 q 449 -241 470 -227 q 395 -256 428 -256 q 344 -247 368 -256 q 304 -225 320 -238 l 304 -248 q 354 -289 319 -272 q 431 -305 389 -305 z "},"Ţ":{"ha":869,"x_min":28,"x_max":841,"o":"m 415 -305 q 483 -292 451 -305 q 535 -253 515 -279 q 555 -191 555 -227 q 537 -131 555 -156 q 491 -91 520 -105 q 428 -77 463 -77 q 401 -80 414 -77 q 380 -87 388 -82 l 378 -113 l 456 0 l 456 12 l 433 12 l 336 -121 l 336 -144 q 371 -138 350 -138 q 425 -152 403 -138 q 448 -194 448 -167 q 426 -236 448 -221 q 373 -252 405 -252 q 326 -245 349 -252 q 288 -227 302 -238 l 288 -250 q 337 -290 303 -274 q 415 -305 372 -305 m 831 979 l 39 979 l 28 748 l 50 748 q 95 868 66 827 q 177 928 123 910 q 322 950 231 945 l 361 952 l 361 119 q 354 67 361 85 q 325 39 347 48 q 258 23 303 29 l 258 0 l 612 0 l 612 23 q 545 39 567 29 q 515 67 522 48 q 508 119 508 85 l 508 952 l 547 950 q 692 928 639 945 q 775 868 746 910 q 819 748 804 826 l 841 748 l 831 979 z "},"Ŧ":{"ha":869,"x_min":28,"x_max":841,"o":"m 831 979 l 39 979 l 28 748 l 50 748 q 95 868 66 827 q 177 928 123 910 q 322 950 231 945 l 361 952 l 361 119 q 354 67 361 85 q 325 39 347 48 q 258 23 303 29 l 258 0 l 612 0 l 612 23 q 545 39 567 29 q 515 67 522 48 q 508 119 508 85 l 508 952 l 547 950 q 692 928 639 945 q 775 868 746 910 q 819 748 804 826 l 841 748 l 831 979 m 178 486 l 691 486 l 691 517 l 178 517 l 178 486 z "},"U":{"ha":992,"x_min":20,"x_max":980,"o":"m 113 874 l 113 383 q 144 200 113 275 q 231 77 176 124 q 355 8 286 30 q 498 -14 424 -14 q 705 34 621 -14 q 831 169 788 82 q 876 372 875 256 l 882 805 q 890 892 883 862 q 918 937 897 923 q 980 956 939 950 l 980 979 l 728 979 l 728 956 q 795 936 773 950 q 825 892 818 922 q 833 804 833 861 l 839 378 q 761 128 841 218 q 549 37 682 37 q 399 74 465 37 q 296 187 334 111 q 259 383 259 264 l 259 870 q 266 917 259 900 q 293 942 273 933 q 355 956 314 950 l 355 979 l 20 979 l 20 956 q 79 942 60 950 q 106 919 99 934 q 113 874 113 903 z "},"Ú":{"ha":992,"x_min":20,"x_max":980,"o":"m 113 874 l 113 383 q 144 200 113 275 q 231 77 176 124 q 355 8 286 30 q 498 -14 424 -14 q 705 34 621 -14 q 831 169 788 82 q 876 372 875 256 l 882 805 q 890 892 883 862 q 918 937 897 923 q 980 956 939 950 l 980 979 l 728 979 l 728 956 q 795 936 773 950 q 825 892 818 922 q 833 804 833 861 l 839 378 q 761 128 841 218 q 549 37 682 37 q 399 74 465 37 q 296 187 334 111 q 259 383 259 264 l 259 870 q 266 917 259 900 q 293 942 273 933 q 355 956 314 950 l 355 979 l 20 979 l 20 956 q 79 942 60 950 q 106 919 99 934 q 113 874 113 903 m 509 1042 l 712 1221 l 712 1225 l 571 1225 l 479 1043 l 509 1042 z "},"Ù":{"ha":992,"x_min":20,"x_max":980,"o":"m 113 874 l 113 383 q 144 200 113 275 q 231 77 176 124 q 355 8 286 30 q 498 -14 424 -14 q 705 34 621 -14 q 831 169 788 82 q 876 372 875 256 l 882 805 q 890 892 883 862 q 918 937 897 923 q 980 956 939 950 l 980 979 l 728 979 l 728 956 q 795 936 773 950 q 825 892 818 922 q 833 804 833 861 l 839 378 q 761 128 841 218 q 549 37 682 37 q 399 74 465 37 q 296 187 334 111 q 259 383 259 264 l 259 870 q 266 917 259 900 q 293 942 273 933 q 355 956 314 950 l 355 979 l 20 979 l 20 956 q 79 942 60 950 q 106 919 99 934 q 113 874 113 903 m 585 1042 l 613 1042 l 526 1224 l 379 1224 l 379 1221 l 585 1042 z "},"Ű":{"ha":992,"x_min":20,"x_max":980,"o":"m 113 874 l 113 383 q 144 200 113 275 q 231 77 176 124 q 355 8 286 30 q 498 -14 424 -14 q 705 34 621 -14 q 831 169 788 82 q 876 372 875 256 l 882 805 q 890 892 883 862 q 918 937 897 923 q 980 956 939 950 l 980 979 l 728 979 l 728 956 q 795 936 773 950 q 825 892 818 922 q 833 804 833 861 l 839 378 q 761 128 841 218 q 549 37 682 37 q 399 74 465 37 q 296 187 334 111 q 259 383 259 264 l 259 870 q 266 917 259 900 q 293 942 273 933 q 355 956 314 950 l 355 979 l 20 979 l 20 956 q 79 942 60 950 q 106 919 99 934 q 113 874 113 903 m 478 1224 l 427 1042 l 456 1042 l 600 1221 l 600 1225 l 478 1224 m 689 1224 l 597 1042 l 627 1042 l 818 1221 l 818 1225 l 689 1224 z "},"Ȕ":{"ha":992,"x_min":20,"x_max":980,"o":"m 113 874 l 113 383 q 144 200 113 275 q 231 77 176 124 q 355 8 286 30 q 498 -14 424 -14 q 705 34 621 -14 q 831 169 788 82 q 876 372 875 256 l 882 805 q 890 892 883 862 q 918 937 897 923 q 980 956 939 950 l 980 979 l 728 979 l 728 956 q 795 936 773 950 q 825 892 818 922 q 833 804 833 861 l 839 378 q 761 128 841 218 q 549 37 682 37 q 399 74 465 37 q 296 187 334 111 q 259 383 259 264 l 259 870 q 266 917 259 900 q 293 942 273 933 q 355 956 314 950 l 355 979 l 20 979 l 20 956 q 79 942 60 950 q 106 919 99 934 q 113 874 113 903 m 406 1224 l 277 1224 l 277 1221 l 467 1042 l 497 1042 l 406 1224 m 616 1224 l 496 1224 l 496 1221 l 640 1042 l 668 1042 l 616 1224 z "},"Û":{"ha":992,"x_min":20,"x_max":980,"o":"m 113 874 l 113 383 q 144 200 113 275 q 231 77 176 124 q 355 8 286 30 q 498 -14 424 -14 q 705 34 621 -14 q 831 169 788 82 q 876 372 875 256 l 882 805 q 890 892 883 862 q 918 937 897 923 q 980 956 939 950 l 980 979 l 728 979 l 728 956 q 795 936 773 950 q 825 892 818 922 q 833 804 833 861 l 839 378 q 761 128 841 218 q 549 37 682 37 q 399 74 465 37 q 296 187 334 111 q 259 383 259 264 l 259 870 q 266 917 259 900 q 293 942 273 933 q 355 956 314 950 l 355 979 l 20 979 l 20 956 q 79 942 60 950 q 106 919 99 934 q 113 874 113 903 m 406 1042 l 574 1160 l 520 1160 l 686 1042 l 716 1042 l 580 1224 l 515 1224 l 378 1042 l 406 1042 z "},"Ṷ":{"ha":992,"x_min":20,"x_max":980,"o":"m 113 874 l 113 383 q 144 200 113 275 q 231 77 176 124 q 355 8 286 30 q 498 -14 424 -14 q 705 34 621 -14 q 831 169 788 82 q 876 372 875 256 l 882 805 q 890 892 883 862 q 918 937 897 923 q 980 956 939 950 l 980 979 l 728 979 l 728 956 q 795 936 773 950 q 825 892 818 922 q 833 804 833 861 l 839 378 q 761 128 841 218 q 549 37 682 37 q 399 74 465 37 q 296 187 334 111 q 259 383 259 264 l 259 870 q 266 917 259 900 q 293 942 273 933 q 355 956 314 950 l 355 979 l 20 979 l 20 956 q 79 942 60 950 q 106 919 99 934 q 113 874 113 903 z "},"Ǔ":{"ha":992,"x_min":20,"x_max":980,"o":"m 113 874 l 113 383 q 144 200 113 275 q 231 77 176 124 q 355 8 286 30 q 498 -14 424 -14 q 705 34 621 -14 q 831 169 788 82 q 876 372 875 256 l 882 805 q 890 892 883 862 q 918 937 897 923 q 980 956 939 950 l 980 979 l 728 979 l 728 956 q 795 936 773 950 q 825 892 818 922 q 833 804 833 861 l 839 378 q 761 128 841 218 q 549 37 682 37 q 399 74 465 37 q 296 187 334 111 q 259 383 259 264 l 259 870 q 266 917 259 900 q 293 942 273 933 q 355 956 314 950 l 355 979 l 20 979 l 20 956 q 79 942 60 950 q 106 919 99 934 q 113 874 113 903 m 687 1236 l 519 1120 l 573 1120 l 407 1236 l 377 1236 l 513 1055 l 578 1055 l 715 1236 l 687 1236 z "},"Ŭ":{"ha":992,"x_min":20,"x_max":980,"o":"m 113 874 l 113 383 q 144 200 113 275 q 231 77 176 124 q 355 8 286 30 q 498 -14 424 -14 q 705 34 621 -14 q 831 169 788 82 q 876 372 875 256 l 882 805 q 890 892 883 862 q 918 937 897 923 q 980 956 939 950 l 980 979 l 728 979 l 728 956 q 795 936 773 950 q 825 892 818 922 q 833 804 833 861 l 839 378 q 761 128 841 218 q 549 37 682 37 q 399 74 465 37 q 296 187 334 111 q 259 383 259 264 l 259 870 q 266 917 259 900 q 293 942 273 933 q 355 956 314 950 l 355 979 l 20 979 l 20 956 q 79 942 60 950 q 106 919 99 934 q 113 874 113 903 m 541 1077 q 627 1100 591 1077 q 681 1160 662 1123 q 699 1237 699 1197 q 697 1267 699 1253 l 673 1267 q 673 1266 673 1267 q 673 1264 673 1265 q 636 1186 673 1217 q 540 1156 600 1156 q 444 1186 481 1156 q 407 1264 407 1217 q 407 1266 407 1265 q 407 1267 407 1267 l 383 1267 q 381 1237 381 1253 q 400 1160 381 1197 q 454 1100 418 1123 q 541 1077 490 1077 z "},"Ȗ":{"ha":992,"x_min":20,"x_max":980,"o":"m 113 874 l 113 383 q 144 200 113 275 q 231 77 176 124 q 355 8 286 30 q 498 -14 424 -14 q 705 34 621 -14 q 831 169 788 82 q 876 372 875 256 l 882 805 q 890 892 883 862 q 918 937 897 923 q 980 956 939 950 l 980 979 l 728 979 l 728 956 q 795 936 773 950 q 825 892 818 922 q 833 804 833 861 l 839 378 q 761 128 841 218 q 549 37 682 37 q 399 74 465 37 q 296 187 334 111 q 259 383 259 264 l 259 870 q 266 917 259 900 q 293 942 273 933 q 355 956 314 950 l 355 979 l 20 979 l 20 956 q 79 942 60 950 q 106 919 99 934 q 113 874 113 903 m 540 1267 q 454 1244 489 1267 q 400 1185 418 1221 q 381 1107 381 1148 q 383 1077 381 1091 l 407 1077 q 407 1079 407 1078 q 407 1080 407 1080 q 444 1159 407 1128 q 540 1189 481 1189 q 636 1159 600 1189 q 673 1080 673 1128 q 673 1079 673 1080 q 673 1077 673 1078 l 697 1077 q 699 1107 699 1091 q 681 1185 699 1148 q 626 1244 662 1221 q 540 1267 591 1267 z "},"Ü":{"ha":992,"x_min":20,"x_max":980,"o":"m 113 874 l 113 383 q 144 200 113 275 q 231 77 176 124 q 355 8 286 30 q 498 -14 424 -14 q 705 34 621 -14 q 831 169 788 82 q 876 372 875 256 l 882 805 q 890 892 883 862 q 918 937 897 923 q 980 956 939 950 l 980 979 l 728 979 l 728 956 q 795 936 773 950 q 825 892 818 922 q 833 804 833 861 l 839 378 q 761 128 841 218 q 549 37 682 37 q 399 74 465 37 q 296 187 334 111 q 259 383 259 264 l 259 870 q 266 917 259 900 q 293 942 273 933 q 355 956 314 950 l 355 979 l 20 979 l 20 956 q 79 942 60 950 q 106 919 99 934 q 113 874 113 903 z "},"Ǘ":{"ha":992,"x_min":20,"x_max":980,"o":"m 113 874 l 113 383 q 144 200 113 275 q 231 77 176 124 q 355 8 286 30 q 498 -14 424 -14 q 705 34 621 -14 q 831 169 788 82 q 876 372 875 256 l 882 805 q 890 892 883 862 q 918 937 897 923 q 980 956 939 950 l 980 979 l 728 979 l 728 956 q 795 936 773 950 q 825 892 818 922 q 833 804 833 861 l 839 378 q 761 128 841 218 q 549 37 682 37 q 399 74 465 37 q 296 187 334 111 q 259 383 259 264 l 259 870 q 266 917 259 900 q 293 942 273 933 q 355 956 314 950 l 355 979 l 20 979 l 20 956 q 79 942 60 950 q 106 919 99 934 q 113 874 113 903 m 446 1062 q 485 1076 469 1062 q 500 1109 500 1089 q 485 1143 500 1129 q 446 1157 469 1157 l 443 1157 q 405 1143 420 1157 q 389 1109 389 1129 q 405 1076 389 1089 q 443 1062 420 1062 l 446 1062 m 638 1062 q 676 1076 661 1062 q 692 1109 692 1089 q 676 1143 692 1129 q 638 1157 661 1157 l 635 1157 q 596 1143 612 1157 q 581 1109 581 1129 q 596 1076 581 1089 q 635 1062 612 1062 l 638 1062 m 709 1243 l 709 1320 l 371 1214 l 371 1192 l 709 1243 z "},"Ǜ":{"ha":992,"x_min":20,"x_max":980,"o":"m 113 874 l 113 383 q 144 200 113 275 q 231 77 176 124 q 355 8 286 30 q 498 -14 424 -14 q 705 34 621 -14 q 831 169 788 82 q 876 372 875 256 l 882 805 q 890 892 883 862 q 918 937 897 923 q 980 956 939 950 l 980 979 l 728 979 l 728 956 q 795 936 773 950 q 825 892 818 922 q 833 804 833 861 l 839 378 q 761 128 841 218 q 549 37 682 37 q 399 74 465 37 q 296 187 334 111 q 259 383 259 264 l 259 870 q 266 917 259 900 q 293 942 273 933 q 355 956 314 950 l 355 979 l 20 979 l 20 956 q 79 942 60 950 q 106 919 99 934 q 113 874 113 903 m 446 1062 q 485 1076 469 1062 q 500 1109 500 1089 q 485 1143 500 1129 q 446 1157 469 1157 l 443 1157 q 405 1143 420 1157 q 389 1109 389 1129 q 405 1076 389 1089 q 443 1062 420 1062 l 446 1062 m 638 1062 q 676 1076 661 1062 q 692 1109 692 1089 q 676 1143 692 1129 q 638 1157 661 1157 l 635 1157 q 596 1143 612 1157 q 581 1109 581 1129 q 596 1076 581 1089 q 635 1062 612 1062 l 638 1062 m 372 1243 l 710 1192 l 710 1214 l 372 1320 l 372 1243 z "},"Ǚ":{"ha":992,"x_min":20,"x_max":980,"o":"m 113 874 l 113 383 q 144 200 113 275 q 231 77 176 124 q 355 8 286 30 q 498 -14 424 -14 q 705 34 621 -14 q 831 169 788 82 q 876 372 875 256 l 882 805 q 890 892 883 862 q 918 937 897 923 q 980 956 939 950 l 980 979 l 728 979 l 728 956 q 795 936 773 950 q 825 892 818 922 q 833 804 833 861 l 839 378 q 761 128 841 218 q 549 37 682 37 q 399 74 465 37 q 296 187 334 111 q 259 383 259 264 l 259 870 q 266 917 259 900 q 293 942 273 933 q 355 956 314 950 l 355 979 l 20 979 l 20 956 q 79 942 60 950 q 106 919 99 934 q 113 874 113 903 m 446 1062 q 485 1076 469 1062 q 500 1109 500 1089 q 485 1143 500 1129 q 446 1157 469 1157 l 443 1157 q 405 1143 420 1157 q 389 1109 389 1129 q 405 1076 389 1089 q 443 1062 420 1062 l 446 1062 m 638 1062 q 676 1076 661 1062 q 692 1109 692 1089 q 676 1143 692 1129 q 638 1157 661 1157 l 635 1157 q 596 1143 612 1157 q 581 1109 581 1129 q 596 1076 581 1089 q 635 1062 612 1062 l 638 1062 m 709 1321 l 530 1259 l 550 1259 l 371 1321 l 371 1300 l 530 1191 l 551 1191 l 709 1300 l 709 1321 z "},"Ǖ":{"ha":992,"x_min":20,"x_max":980,"o":"m 113 874 l 113 383 q 144 200 113 275 q 231 77 176 124 q 355 8 286 30 q 498 -14 424 -14 q 705 34 621 -14 q 831 169 788 82 q 876 372 875 256 l 882 805 q 890 892 883 862 q 918 937 897 923 q 980 956 939 950 l 980 979 l 728 979 l 728 956 q 795 936 773 950 q 825 892 818 922 q 833 804 833 861 l 839 378 q 761 128 841 218 q 549 37 682 37 q 399 74 465 37 q 296 187 334 111 q 259 383 259 264 l 259 870 q 266 917 259 900 q 293 942 273 933 q 355 956 314 950 l 355 979 l 20 979 l 20 956 q 79 942 60 950 q 106 919 99 934 q 113 874 113 903 m 446 1062 q 485 1076 469 1062 q 500 1109 500 1089 q 485 1143 500 1129 q 446 1157 469 1157 l 443 1157 q 405 1143 420 1157 q 389 1109 389 1129 q 405 1076 389 1089 q 443 1062 420 1062 l 446 1062 m 638 1062 q 676 1076 661 1062 q 692 1109 692 1089 q 676 1143 692 1129 q 638 1157 661 1157 l 635 1157 q 596 1143 612 1157 q 581 1109 581 1129 q 596 1076 581 1089 q 635 1062 612 1062 l 638 1062 m 371 1228 l 710 1228 l 710 1284 l 371 1284 l 371 1228 z "},"Ṳ":{"ha":992,"x_min":20,"x_max":980,"o":"m 113 874 l 113 383 q 144 200 113 275 q 231 77 176 124 q 355 8 286 30 q 498 -14 424 -14 q 705 34 621 -14 q 831 169 788 82 q 876 372 875 256 l 882 805 q 890 892 883 862 q 918 937 897 923 q 980 956 939 950 l 980 979 l 728 979 l 728 956 q 795 936 773 950 q 825 892 818 922 q 833 804 833 861 l 839 378 q 761 128 841 218 q 549 37 682 37 q 399 74 465 37 q 296 187 334 111 q 259 383 259 264 l 259 870 q 266 917 259 900 q 293 942 273 933 q 355 956 314 950 l 355 979 l 20 979 l 20 956 q 79 942 60 950 q 106 919 99 934 q 113 874 113 903 z "},"Ũ":{"ha":992,"x_min":20,"x_max":980,"o":"m 113 874 l 113 383 q 144 200 113 275 q 231 77 176 124 q 355 8 286 30 q 498 -14 424 -14 q 705 34 621 -14 q 831 169 788 82 q 876 372 875 256 l 882 805 q 890 892 883 862 q 918 937 897 923 q 980 956 939 950 l 980 979 l 728 979 l 728 956 q 795 936 773 950 q 825 892 818 922 q 833 804 833 861 l 839 378 q 761 128 841 218 q 549 37 682 37 q 399 74 465 37 q 296 187 334 111 q 259 383 259 264 l 259 870 q 266 917 259 900 q 293 942 273 933 q 355 956 314 950 l 355 979 l 20 979 l 20 956 q 79 942 60 950 q 106 919 99 934 q 113 874 113 903 m 612 1058 q 684 1093 655 1058 q 710 1215 713 1128 l 684 1215 q 670 1151 682 1168 q 638 1134 658 1134 q 611 1140 624 1134 q 581 1158 599 1145 l 562 1171 q 516 1199 537 1189 q 469 1209 494 1209 q 396 1174 425 1209 q 370 1053 368 1139 l 397 1053 q 412 1117 399 1099 q 443 1134 424 1134 q 470 1128 457 1134 q 500 1109 483 1122 l 519 1096 q 565 1068 544 1079 q 612 1058 587 1058 z "},"Ṹ":{"ha":992,"x_min":20,"x_max":980,"o":"m 113 874 l 113 383 q 144 200 113 275 q 231 77 176 124 q 355 8 286 30 q 498 -14 424 -14 q 705 34 621 -14 q 831 169 788 82 q 876 372 875 256 l 882 805 q 890 892 883 862 q 918 937 897 923 q 980 956 939 950 l 980 979 l 728 979 l 728 956 q 795 936 773 950 q 825 892 818 922 q 833 804 833 861 l 839 378 q 761 128 841 218 q 549 37 682 37 q 399 74 465 37 q 296 187 334 111 q 259 383 259 264 l 259 870 q 266 917 259 900 q 293 942 273 933 q 355 956 314 950 l 355 979 l 20 979 l 20 956 q 79 942 60 950 q 106 919 99 934 q 113 874 113 903 m 615 1065 q 684 1090 657 1065 q 710 1165 710 1115 l 685 1165 q 670 1131 684 1141 q 634 1121 656 1121 q 606 1124 621 1121 q 570 1134 591 1128 l 551 1141 q 509 1151 530 1147 q 466 1155 489 1155 q 398 1130 425 1155 q 372 1055 371 1105 l 397 1055 q 411 1088 397 1078 q 448 1099 425 1099 q 476 1096 461 1099 q 511 1086 491 1093 l 531 1080 q 572 1069 551 1073 q 615 1065 592 1065 m 709 1243 l 709 1320 l 371 1214 l 371 1192 l 709 1243 z "},"Ṵ":{"ha":992,"x_min":20,"x_max":980,"o":"m 113 874 l 113 383 q 144 200 113 275 q 231 77 176 124 q 355 8 286 30 q 498 -14 424 -14 q 705 34 621 -14 q 831 169 788 82 q 876 372 875 256 l 882 805 q 890 892 883 862 q 918 937 897 923 q 980 956 939 950 l 980 979 l 728 979 l 728 956 q 795 936 773 950 q 825 892 818 922 q 833 804 833 861 l 839 378 q 761 128 841 218 q 549 37 682 37 q 399 74 465 37 q 296 187 334 111 q 259 383 259 264 l 259 870 q 266 917 259 900 q 293 942 273 933 q 355 956 314 950 l 355 979 l 20 979 l 20 956 q 79 942 60 950 q 106 919 99 934 q 113 874 113 903 z "},"Ū":{"ha":992,"x_min":20,"x_max":980,"o":"m 113 874 l 113 383 q 144 200 113 275 q 231 77 176 124 q 355 8 286 30 q 498 -14 424 -14 q 705 34 621 -14 q 831 169 788 82 q 876 372 875 256 l 882 805 q 890 892 883 862 q 918 937 897 923 q 980 956 939 950 l 980 979 l 728 979 l 728 956 q 795 936 773 950 q 825 892 818 922 q 833 804 833 861 l 839 378 q 761 128 841 218 q 549 37 682 37 q 399 74 465 37 q 296 187 334 111 q 259 383 259 264 l 259 870 q 266 917 259 900 q 293 942 273 933 q 355 956 314 950 l 355 979 l 20 979 l 20 956 q 79 942 60 950 q 106 919 99 934 q 113 874 113 903 m 381 1087 l 701 1087 l 701 1156 l 381 1156 l 381 1087 z "},"Ṻ":{"ha":992,"x_min":20,"x_max":980,"o":"m 113 874 l 113 383 q 144 200 113 275 q 231 77 176 124 q 355 8 286 30 q 498 -14 424 -14 q 705 34 621 -14 q 831 169 788 82 q 876 372 875 256 l 882 805 q 890 892 883 862 q 918 937 897 923 q 980 956 939 950 l 980 979 l 728 979 l 728 956 q 795 936 773 950 q 825 892 818 922 q 833 804 833 861 l 839 378 q 761 128 841 218 q 549 37 682 37 q 399 74 465 37 q 296 187 334 111 q 259 383 259 264 l 259 870 q 266 917 259 900 q 293 942 273 933 q 355 956 314 950 l 355 979 l 20 979 l 20 956 q 79 942 60 950 q 106 919 99 934 q 113 874 113 903 m 384 1082 l 697 1082 l 697 1138 l 384 1138 l 384 1082 m 446 1208 q 485 1222 469 1208 q 500 1256 500 1236 q 485 1290 500 1276 q 446 1303 469 1303 l 443 1303 q 405 1290 420 1303 q 389 1256 389 1276 q 405 1222 389 1236 q 443 1208 420 1208 l 446 1208 m 638 1208 q 676 1222 661 1208 q 692 1256 692 1236 q 676 1290 692 1276 q 638 1303 661 1303 l 635 1303 q 596 1290 612 1303 q 581 1256 581 1276 q 596 1222 581 1236 q 635 1208 612 1208 l 638 1208 z "},"Ủ":{"ha":992,"x_min":20,"x_max":980,"o":"m 113 874 l 113 383 q 144 200 113 275 q 231 77 176 124 q 355 8 286 30 q 498 -14 424 -14 q 705 34 621 -14 q 831 169 788 82 q 876 372 875 256 l 882 805 q 890 892 883 862 q 918 937 897 923 q 980 956 939 950 l 980 979 l 728 979 l 728 956 q 795 936 773 950 q 825 892 818 922 q 833 804 833 861 l 839 378 q 761 128 841 218 q 549 37 682 37 q 399 74 465 37 q 296 187 334 111 q 259 383 259 264 l 259 870 q 266 917 259 900 q 293 942 273 933 q 355 956 314 950 l 355 979 l 20 979 l 20 956 q 79 942 60 950 q 106 919 99 934 q 113 874 113 903 m 555 1254 q 481 1235 511 1254 q 435 1189 450 1216 l 435 1170 q 467 1190 448 1182 q 511 1198 487 1198 q 561 1184 543 1198 q 578 1147 578 1170 q 558 1099 578 1122 q 500 1051 538 1076 l 526 1051 q 629 1112 600 1082 q 658 1175 658 1141 q 629 1232 658 1210 q 555 1254 601 1254 z "},"Ů":{"ha":992,"x_min":20,"x_max":980,"o":"m 113 874 l 113 383 q 144 200 113 275 q 231 77 176 124 q 355 8 286 30 q 498 -14 424 -14 q 705 34 621 -14 q 831 169 788 82 q 876 372 875 256 l 882 805 q 890 892 883 862 q 918 937 897 923 q 980 956 939 950 l 980 979 l 728 979 l 728 956 q 795 936 773 950 q 825 892 818 922 q 833 804 833 861 l 839 378 q 761 128 841 218 q 549 37 682 37 q 399 74 465 37 q 296 187 334 111 q 259 383 259 264 l 259 870 q 266 917 259 900 q 293 942 273 933 q 355 956 314 950 l 355 979 l 20 979 l 20 956 q 79 942 60 950 q 106 919 99 934 q 113 874 113 903 m 392 1167 q 437 1087 392 1116 q 541 1059 482 1059 q 644 1087 599 1059 q 689 1167 689 1116 q 644 1247 689 1217 q 541 1276 600 1276 q 437 1247 481 1276 q 392 1167 392 1217 m 481 1167 q 497 1227 481 1204 q 541 1251 513 1251 q 584 1227 567 1251 q 600 1167 600 1203 q 584 1106 600 1130 q 541 1083 567 1083 q 497 1106 513 1083 q 481 1167 481 1130 z "},"Ụ":{"ha":992,"x_min":20,"x_max":980,"o":"m 113 874 l 113 383 q 144 200 113 275 q 231 77 176 124 q 355 8 286 30 q 498 -14 424 -14 q 705 34 621 -14 q 831 169 788 82 q 876 372 875 256 l 882 805 q 890 892 883 862 q 918 937 897 923 q 980 956 939 950 l 980 979 l 728 979 l 728 956 q 795 936 773 950 q 825 892 818 922 q 833 804 833 861 l 839 378 q 761 128 841 218 q 549 37 682 37 q 399 74 465 37 q 296 187 334 111 q 259 383 259 264 l 259 870 q 266 917 259 900 q 293 942 273 933 q 355 956 314 950 l 355 979 l 20 979 l 20 956 q 79 942 60 950 q 106 919 99 934 q 113 874 113 903 m 522 -133 q 476 -151 495 -133 q 458 -195 458 -170 q 476 -240 458 -221 q 522 -258 495 -258 q 568 -240 549 -258 q 587 -195 587 -221 q 568 -151 587 -170 q 522 -133 549 -133 z "},"Ų":{"ha":992,"x_min":20,"x_max":980,"o":"m 113 874 l 113 383 q 144 200 113 275 q 231 77 176 124 q 355 8 286 30 q 498 -14 424 -14 q 705 34 621 -14 q 831 169 788 82 q 876 372 875 256 l 882 805 q 890 892 883 862 q 918 937 897 923 q 980 956 939 950 l 980 979 l 728 979 l 728 956 q 795 936 773 950 q 825 892 818 922 q 833 804 833 861 l 839 378 q 761 128 841 218 q 549 37 682 37 q 399 74 465 37 q 296 187 334 111 q 259 383 259 264 l 259 870 q 266 917 259 900 q 293 942 273 933 q 355 956 314 950 l 355 979 l 20 979 l 20 956 q 79 942 60 950 q 106 919 99 934 q 113 874 113 903 m 536 -324 q 608 -306 576 -324 q 652 -259 640 -288 l 652 -236 q 629 -253 644 -246 q 597 -260 615 -260 q 536 -224 561 -260 q 511 -134 511 -187 q 520 -63 511 -96 q 545 -8 529 -30 l 523 -8 q 441 -101 471 -51 q 412 -203 412 -151 q 447 -291 412 -257 q 536 -324 483 -324 z "},"Ư":{"ha":1060,"x_min":19,"x_max":1074,"o":"m 121 373 q 153 195 121 269 q 239 75 184 121 q 363 7 294 28 q 507 -14 433 -14 q 713 33 629 -14 q 841 164 797 79 q 885 361 884 249 l 889 974 l 857 974 q 887 967 869 970 q 924 964 905 964 q 1035 992 996 964 q 1074 1071 1074 1021 q 1047 1149 1074 1113 q 977 1205 1019 1186 l 954 1205 q 971 1169 964 1193 q 978 1118 978 1145 q 958 1047 978 1079 q 897 998 938 1016 q 792 979 856 979 l 732 979 l 732 956 q 806 940 783 949 q 837 909 830 930 q 844 847 844 888 l 848 367 q 770 124 849 212 q 557 37 691 37 q 408 73 473 37 q 304 183 342 109 q 267 374 267 258 l 267 866 q 275 915 267 898 q 306 941 282 932 q 379 956 330 949 l 379 979 l 19 979 l 19 956 q 85 941 63 949 q 114 915 106 932 q 121 866 121 898 l 121 373 z "},"Ứ":{"ha":1060,"x_min":19,"x_max":1074,"o":"m 121 373 q 153 195 121 269 q 239 75 184 121 q 363 7 294 28 q 507 -14 433 -14 q 713 33 629 -14 q 841 164 797 79 q 885 361 884 249 l 889 974 l 857 974 q 887 967 869 970 q 924 964 905 964 q 1035 992 996 964 q 1074 1071 1074 1021 q 1047 1149 1074 1113 q 977 1205 1019 1186 l 954 1205 q 971 1169 964 1193 q 978 1118 978 1145 q 958 1047 978 1079 q 897 998 938 1016 q 792 979 856 979 l 732 979 l 732 956 q 806 940 783 949 q 837 909 830 930 q 844 847 844 888 l 848 367 q 770 124 849 212 q 557 37 691 37 q 408 73 473 37 q 304 183 342 109 q 267 374 267 258 l 267 866 q 275 915 267 898 q 306 941 282 932 q 379 956 330 949 l 379 979 l 19 979 l 19 956 q 85 941 63 949 q 114 915 106 932 q 121 866 121 898 l 121 373 m 528 1042 l 731 1221 l 731 1225 l 590 1225 l 498 1043 l 528 1042 z "},"Ừ":{"ha":1060,"x_min":19,"x_max":1074,"o":"m 121 373 q 153 195 121 269 q 239 75 184 121 q 363 7 294 28 q 507 -14 433 -14 q 713 33 629 -14 q 841 164 797 79 q 885 361 884 249 l 889 974 l 857 974 q 887 967 869 970 q 924 964 905 964 q 1035 992 996 964 q 1074 1071 1074 1021 q 1047 1149 1074 1113 q 977 1205 1019 1186 l 954 1205 q 971 1169 964 1193 q 978 1118 978 1145 q 958 1047 978 1079 q 897 998 938 1016 q 792 979 856 979 l 732 979 l 732 956 q 806 940 783 949 q 837 909 830 930 q 844 847 844 888 l 848 367 q 770 124 849 212 q 557 37 691 37 q 408 73 473 37 q 304 183 342 109 q 267 374 267 258 l 267 866 q 275 915 267 898 q 306 941 282 932 q 379 956 330 949 l 379 979 l 19 979 l 19 956 q 85 941 63 949 q 114 915 106 932 q 121 866 121 898 l 121 373 m 604 1042 l 632 1042 l 545 1224 l 398 1224 l 398 1221 l 604 1042 z "},"Ữ":{"ha":1060,"x_min":19,"x_max":1074,"o":"m 121 373 q 153 195 121 269 q 239 75 184 121 q 363 7 294 28 q 507 -14 433 -14 q 713 33 629 -14 q 841 164 797 79 q 885 361 884 249 l 889 974 l 857 974 q 887 967 869 970 q 924 964 905 964 q 1035 992 996 964 q 1074 1071 1074 1021 q 1047 1149 1074 1113 q 977 1205 1019 1186 l 954 1205 q 971 1169 964 1193 q 978 1118 978 1145 q 958 1047 978 1079 q 897 998 938 1016 q 792 979 856 979 l 732 979 l 732 956 q 806 940 783 949 q 837 909 830 930 q 844 847 844 888 l 848 367 q 770 124 849 212 q 557 37 691 37 q 408 73 473 37 q 304 183 342 109 q 267 374 267 258 l 267 866 q 275 915 267 898 q 306 941 282 932 q 379 956 330 949 l 379 979 l 19 979 l 19 956 q 85 941 63 949 q 114 915 106 932 q 121 866 121 898 l 121 373 m 631 1058 q 703 1093 674 1058 q 729 1215 732 1128 l 703 1215 q 689 1151 701 1168 q 657 1134 677 1134 q 630 1140 643 1134 q 600 1158 618 1145 l 581 1171 q 535 1199 556 1189 q 488 1209 513 1209 q 415 1174 444 1209 q 389 1053 387 1139 l 416 1053 q 431 1117 418 1099 q 462 1134 443 1134 q 489 1128 476 1134 q 519 1109 502 1122 l 538 1096 q 584 1068 563 1079 q 631 1058 606 1058 z "},"Ử":{"ha":1060,"x_min":19,"x_max":1074,"o":"m 121 373 q 153 195 121 269 q 239 75 184 121 q 363 7 294 28 q 507 -14 433 -14 q 713 33 629 -14 q 841 164 797 79 q 885 361 884 249 l 889 974 l 857 974 q 887 967 869 970 q 924 964 905 964 q 1035 992 996 964 q 1074 1071 1074 1021 q 1047 1149 1074 1113 q 977 1205 1019 1186 l 954 1205 q 971 1169 964 1193 q 978 1118 978 1145 q 958 1047 978 1079 q 897 998 938 1016 q 792 979 856 979 l 732 979 l 732 956 q 806 940 783 949 q 837 909 830 930 q 844 847 844 888 l 848 367 q 770 124 849 212 q 557 37 691 37 q 408 73 473 37 q 304 183 342 109 q 267 374 267 258 l 267 866 q 275 915 267 898 q 306 941 282 932 q 379 956 330 949 l 379 979 l 19 979 l 19 956 q 85 941 63 949 q 114 915 106 932 q 121 866 121 898 l 121 373 m 574 1254 q 500 1235 530 1254 q 454 1189 469 1216 l 454 1170 q 486 1190 467 1182 q 530 1198 506 1198 q 579 1184 562 1198 q 597 1147 597 1170 q 577 1099 597 1122 q 519 1051 557 1076 l 545 1051 q 648 1112 618 1082 q 677 1175 677 1141 q 648 1232 677 1210 q 574 1254 620 1254 z "},"Ự":{"ha":1060,"x_min":19,"x_max":1074,"o":"m 121 373 q 153 195 121 269 q 239 75 184 121 q 363 7 294 28 q 507 -14 433 -14 q 713 33 629 -14 q 841 164 797 79 q 885 361 884 249 l 889 974 l 857 974 q 887 967 869 970 q 924 964 905 964 q 1035 992 996 964 q 1074 1071 1074 1021 q 1047 1149 1074 1113 q 977 1205 1019 1186 l 954 1205 q 971 1169 964 1193 q 978 1118 978 1145 q 958 1047 978 1079 q 897 998 938 1016 q 792 979 856 979 l 732 979 l 732 956 q 806 940 783 949 q 837 909 830 930 q 844 847 844 888 l 848 367 q 770 124 849 212 q 557 37 691 37 q 408 73 473 37 q 304 183 342 109 q 267 374 267 258 l 267 866 q 275 915 267 898 q 306 941 282 932 q 379 956 330 949 l 379 979 l 19 979 l 19 956 q 85 941 63 949 q 114 915 106 932 q 121 866 121 898 l 121 373 m 551 -133 q 505 -151 524 -133 q 486 -195 486 -170 q 505 -240 486 -221 q 551 -258 524 -258 q 596 -240 578 -258 q 615 -195 615 -221 q 596 -151 615 -170 q 551 -133 578 -133 z "},"V":{"ha":909,"x_min":-8,"x_max":918,"o":"m 122 818 l 424 -4 l 483 -4 l 774 785 q 818 888 800 853 q 859 937 837 922 q 918 956 882 951 l 918 979 l 661 979 l 661 956 q 731 934 710 949 q 750 884 752 918 q 727 789 748 850 l 505 143 l 516 143 l 278 817 q 261 895 261 866 q 282 937 262 923 q 347 956 303 951 l 347 979 l -8 979 l -8 956 q 48 938 26 951 q 86 898 70 926 q 122 818 103 869 z "},"Ṽ":{"ha":909,"x_min":-8,"x_max":918,"o":"m 122 818 l 424 -4 l 483 -4 l 774 785 q 818 888 800 853 q 859 937 837 922 q 918 956 882 951 l 918 979 l 661 979 l 661 956 q 731 934 710 949 q 750 884 752 918 q 727 789 748 850 l 505 143 l 516 143 l 278 817 q 261 895 261 866 q 282 937 262 923 q 347 956 303 951 l 347 979 l -8 979 l -8 956 q 48 938 26 951 q 86 898 70 926 q 122 818 103 869 m 566 1058 q 638 1093 609 1058 q 664 1215 667 1128 l 638 1215 q 624 1151 635 1168 q 592 1134 612 1134 q 565 1140 578 1134 q 535 1158 553 1145 l 515 1171 q 470 1199 491 1189 q 422 1209 448 1209 q 350 1174 379 1209 q 324 1053 321 1139 l 351 1053 q 366 1117 353 1099 q 397 1134 378 1134 q 424 1128 411 1134 q 454 1109 437 1122 l 473 1096 q 519 1068 498 1079 q 566 1058 541 1058 z "},"Ṿ":{"ha":909,"x_min":-8,"x_max":918,"o":"m 122 818 l 424 -4 l 483 -4 l 774 785 q 818 888 800 853 q 859 937 837 922 q 918 956 882 951 l 918 979 l 661 979 l 661 956 q 731 934 710 949 q 750 884 752 918 q 727 789 748 850 l 505 143 l 516 143 l 278 817 q 261 895 261 866 q 282 937 262 923 q 347 956 303 951 l 347 979 l -8 979 l -8 956 q 48 938 26 951 q 86 898 70 926 q 122 818 103 869 m 455 -133 q 409 -151 428 -133 q 391 -195 391 -170 q 409 -240 391 -221 q 455 -258 428 -258 q 501 -240 482 -258 q 519 -195 519 -221 q 501 -151 519 -170 q 455 -133 482 -133 z "},"W":{"ha":1419,"x_min":-8,"x_max":1428,"o":"m 121 818 l 389 -4 l 448 -4 l 726 863 l 699 863 l 969 -4 l 1027 -4 l 1287 785 q 1328 888 1310 853 q 1369 937 1345 922 q 1428 956 1392 951 l 1428 979 l 1171 979 l 1171 956 q 1241 934 1220 949 q 1260 885 1261 918 q 1239 789 1258 851 l 1053 163 l 1055 163 l 863 817 q 846 899 848 871 q 863 939 845 927 q 924 956 882 951 l 924 979 l 589 979 l 589 956 q 656 936 635 949 q 677 894 677 924 q 660 806 677 864 l 471 163 l 474 163 l 275 818 q 261 895 260 867 q 281 937 261 923 q 345 956 301 951 l 345 979 l -8 979 l -8 956 q 46 941 24 952 q 86 901 68 929 q 121 818 104 873 z "},"Ẃ":{"ha":1419,"x_min":-8,"x_max":1428,"o":"m 121 818 l 389 -4 l 448 -4 l 726 863 l 699 863 l 969 -4 l 1027 -4 l 1287 785 q 1328 888 1310 853 q 1369 937 1345 922 q 1428 956 1392 951 l 1428 979 l 1171 979 l 1171 956 q 1241 934 1220 949 q 1260 885 1261 918 q 1239 789 1258 851 l 1053 163 l 1055 163 l 863 817 q 846 899 848 871 q 863 939 845 927 q 924 956 882 951 l 924 979 l 589 979 l 589 956 q 656 936 635 949 q 677 894 677 924 q 660 806 677 864 l 471 163 l 474 163 l 275 818 q 261 895 260 867 q 281 937 261 923 q 345 956 301 951 l 345 979 l -8 979 l -8 956 q 46 941 24 952 q 86 901 68 929 q 121 818 104 873 m 713 1042 l 917 1221 l 917 1225 l 776 1225 l 684 1043 l 713 1042 z "},"Ẁ":{"ha":1419,"x_min":-8,"x_max":1428,"o":"m 121 818 l 389 -4 l 448 -4 l 726 863 l 699 863 l 969 -4 l 1027 -4 l 1287 785 q 1328 888 1310 853 q 1369 937 1345 922 q 1428 956 1392 951 l 1428 979 l 1171 979 l 1171 956 q 1241 934 1220 949 q 1260 885 1261 918 q 1239 789 1258 851 l 1053 163 l 1055 163 l 863 817 q 846 899 848 871 q 863 939 845 927 q 924 956 882 951 l 924 979 l 589 979 l 589 956 q 656 936 635 949 q 677 894 677 924 q 660 806 677 864 l 471 163 l 474 163 l 275 818 q 261 895 260 867 q 281 937 261 923 q 345 956 301 951 l 345 979 l -8 979 l -8 956 q 46 941 24 952 q 86 901 68 929 q 121 818 104 873 m 789 1042 l 818 1042 l 730 1224 l 584 1224 l 584 1221 l 789 1042 z "},"Ŵ":{"ha":1419,"x_min":-8,"x_max":1428,"o":"m 121 818 l 389 -4 l 448 -4 l 726 863 l 699 863 l 969 -4 l 1027 -4 l 1287 785 q 1328 888 1310 853 q 1369 937 1345 922 q 1428 956 1392 951 l 1428 979 l 1171 979 l 1171 956 q 1241 934 1220 949 q 1260 885 1261 918 q 1239 789 1258 851 l 1053 163 l 1055 163 l 863 817 q 846 899 848 871 q 863 939 845 927 q 924 956 882 951 l 924 979 l 589 979 l 589 956 q 656 936 635 949 q 677 894 677 924 q 660 806 677 864 l 471 163 l 474 163 l 275 818 q 261 895 260 867 q 281 937 261 923 q 345 956 301 951 l 345 979 l -8 979 l -8 956 q 46 941 24 952 q 86 901 68 929 q 121 818 104 873 m 611 1042 l 779 1160 l 725 1160 l 891 1042 l 921 1042 l 785 1224 l 720 1224 l 583 1042 l 611 1042 z "},"Ẅ":{"ha":1419,"x_min":-8,"x_max":1428,"o":"m 121 818 l 389 -4 l 448 -4 l 726 863 l 699 863 l 969 -4 l 1027 -4 l 1287 785 q 1328 888 1310 853 q 1369 937 1345 922 q 1428 956 1392 951 l 1428 979 l 1171 979 l 1171 956 q 1241 934 1220 949 q 1260 885 1261 918 q 1239 789 1258 851 l 1053 163 l 1055 163 l 863 817 q 846 899 848 871 q 863 939 845 927 q 924 956 882 951 l 924 979 l 589 979 l 589 956 q 656 936 635 949 q 677 894 677 924 q 660 806 677 864 l 471 163 l 474 163 l 275 818 q 261 895 260 867 q 281 937 261 923 q 345 956 301 951 l 345 979 l -8 979 l -8 956 q 46 941 24 952 q 86 901 68 929 q 121 818 104 873 z "},"Ẇ":{"ha":1419,"x_min":-8,"x_max":1428,"o":"m 121 818 l 389 -4 l 448 -4 l 726 863 l 699 863 l 969 -4 l 1027 -4 l 1287 785 q 1328 888 1310 853 q 1369 937 1345 922 q 1428 956 1392 951 l 1428 979 l 1171 979 l 1171 956 q 1241 934 1220 949 q 1260 885 1261 918 q 1239 789 1258 851 l 1053 163 l 1055 163 l 863 817 q 846 899 848 871 q 863 939 845 927 q 924 956 882 951 l 924 979 l 589 979 l 589 956 q 656 936 635 949 q 677 894 677 924 q 660 806 677 864 l 471 163 l 474 163 l 275 818 q 261 895 260 867 q 281 937 261 923 q 345 956 301 951 l 345 979 l -8 979 l -8 956 q 46 941 24 952 q 86 901 68 929 q 121 818 104 873 m 745 1071 q 791 1089 772 1071 q 810 1134 810 1108 q 791 1178 810 1160 q 745 1196 772 1196 q 700 1178 718 1196 q 681 1134 681 1160 q 700 1089 681 1108 q 745 1071 718 1071 z "},"Ẉ":{"ha":1419,"x_min":-8,"x_max":1428,"o":"m 121 818 l 389 -4 l 448 -4 l 726 863 l 699 863 l 969 -4 l 1027 -4 l 1287 785 q 1328 888 1310 853 q 1369 937 1345 922 q 1428 956 1392 951 l 1428 979 l 1171 979 l 1171 956 q 1241 934 1220 949 q 1260 885 1261 918 q 1239 789 1258 851 l 1053 163 l 1055 163 l 863 817 q 846 899 848 871 q 863 939 845 927 q 924 956 882 951 l 924 979 l 589 979 l 589 956 q 656 936 635 949 q 677 894 677 924 q 660 806 677 864 l 471 163 l 474 163 l 275 818 q 261 895 260 867 q 281 937 261 923 q 345 956 301 951 l 345 979 l -8 979 l -8 956 q 46 941 24 952 q 86 901 68 929 q 121 818 104 873 m 713 -133 q 667 -151 686 -133 q 648 -195 648 -170 q 667 -240 648 -221 q 713 -258 686 -258 q 759 -240 740 -258 q 777 -195 777 -221 q 759 -151 777 -170 q 713 -133 740 -133 z "},"X":{"ha":905,"x_min":1,"x_max":905,"o":"m 152 836 l 597 138 q 626 80 621 103 q 614 44 631 58 q 552 23 597 31 l 552 0 l 905 0 l 905 23 q 851 43 873 31 q 807 78 828 55 q 760 143 786 102 l 313 842 q 283 903 289 880 q 295 938 277 926 q 359 956 313 949 l 359 979 l 13 979 l 13 956 q 65 936 44 949 q 106 901 86 924 q 152 836 125 878 m 193 197 q 117 93 146 128 q 61 43 87 57 q 1 23 35 28 l 1 0 l 260 0 l 260 23 q 193 45 211 30 q 187 94 176 60 q 236 189 199 127 l 418 477 l 401 501 l 193 197 m 705 789 q 779 889 750 854 q 834 937 808 923 q 894 956 860 951 l 894 979 l 634 979 l 634 956 q 702 935 684 949 q 708 887 720 920 q 660 795 697 854 l 488 519 l 503 495 l 705 789 z "},"Ẍ":{"ha":905,"x_min":1,"x_max":905,"o":"m 152 836 l 597 138 q 626 80 621 103 q 614 44 631 58 q 552 23 597 31 l 552 0 l 905 0 l 905 23 q 851 43 873 31 q 807 78 828 55 q 760 143 786 102 l 313 842 q 283 903 289 880 q 295 938 277 926 q 359 956 313 949 l 359 979 l 13 979 l 13 956 q 65 936 44 949 q 106 901 86 924 q 152 836 125 878 m 193 197 q 117 93 146 128 q 61 43 87 57 q 1 23 35 28 l 1 0 l 260 0 l 260 23 q 193 45 211 30 q 187 94 176 60 q 236 189 199 127 l 418 477 l 401 501 l 193 197 m 705 789 q 779 889 750 854 q 834 937 808 923 q 894 956 860 951 l 894 979 l 634 979 l 634 956 q 702 935 684 949 q 708 887 720 920 q 660 795 697 854 l 488 519 l 503 495 l 705 789 z "},"Ẋ":{"ha":905,"x_min":1,"x_max":905,"o":"m 152 836 l 597 138 q 626 80 621 103 q 614 44 631 58 q 552 23 597 31 l 552 0 l 905 0 l 905 23 q 851 43 873 31 q 807 78 828 55 q 760 143 786 102 l 313 842 q 283 903 289 880 q 295 938 277 926 q 359 956 313 949 l 359 979 l 13 979 l 13 956 q 65 936 44 949 q 106 901 86 924 q 152 836 125 878 m 193 197 q 117 93 146 128 q 61 43 87 57 q 1 23 35 28 l 1 0 l 260 0 l 260 23 q 193 45 211 30 q 187 94 176 60 q 236 189 199 127 l 418 477 l 401 501 l 193 197 m 705 789 q 779 889 750 854 q 834 937 808 923 q 894 956 860 951 l 894 979 l 634 979 l 634 956 q 702 935 684 949 q 708 887 720 920 q 660 795 697 854 l 488 519 l 503 495 l 705 789 m 494 1071 q 539 1089 521 1071 q 558 1134 558 1108 q 539 1178 558 1160 q 494 1196 521 1196 q 448 1178 467 1196 q 429 1134 429 1160 q 448 1089 429 1108 q 494 1071 467 1071 z "},"Y":{"ha":884,"x_min":-4,"x_max":888,"o":"m 151 816 l 369 455 l 369 119 q 362 67 369 85 q 333 39 355 48 q 265 23 311 29 l 265 0 l 620 0 l 620 23 q 552 39 574 29 q 523 67 530 48 q 515 119 515 85 l 515 464 l 713 785 q 782 887 755 852 q 832 936 808 922 q 888 956 856 951 l 888 979 l 636 979 l 636 956 q 703 935 684 950 q 713 885 722 919 q 669 790 704 852 l 496 481 l 507 481 l 309 816 q 276 919 266 890 q 349 956 286 947 l 349 979 l -4 979 l -4 956 q 48 940 27 951 q 93 901 70 929 q 151 816 116 873 z "},"Ý":{"ha":884,"x_min":-4,"x_max":888,"o":"m 151 816 l 369 455 l 369 119 q 362 67 369 85 q 333 39 355 48 q 265 23 311 29 l 265 0 l 620 0 l 620 23 q 552 39 574 29 q 523 67 530 48 q 515 119 515 85 l 515 464 l 713 785 q 782 887 755 852 q 832 936 808 922 q 888 956 856 951 l 888 979 l 636 979 l 636 956 q 703 935 684 950 q 713 885 722 919 q 669 790 704 852 l 496 481 l 507 481 l 309 816 q 276 919 266 890 q 349 956 286 947 l 349 979 l -4 979 l -4 956 q 48 940 27 951 q 93 901 70 929 q 151 816 116 873 m 457 1042 l 661 1221 l 661 1225 l 519 1225 l 428 1043 l 457 1042 z "},"Ỳ":{"ha":884,"x_min":-4,"x_max":888,"o":"m 151 816 l 369 455 l 369 119 q 362 67 369 85 q 333 39 355 48 q 265 23 311 29 l 265 0 l 620 0 l 620 23 q 552 39 574 29 q 523 67 530 48 q 515 119 515 85 l 515 464 l 713 785 q 782 887 755 852 q 832 936 808 922 q 888 956 856 951 l 888 979 l 636 979 l 636 956 q 703 935 684 950 q 713 885 722 919 q 669 790 704 852 l 496 481 l 507 481 l 309 816 q 276 919 266 890 q 349 956 286 947 l 349 979 l -4 979 l -4 956 q 48 940 27 951 q 93 901 70 929 q 151 816 116 873 m 533 1042 l 562 1042 l 474 1224 l 328 1224 l 328 1221 l 533 1042 z "},"Ŷ":{"ha":884,"x_min":-4,"x_max":888,"o":"m 151 816 l 369 455 l 369 119 q 362 67 369 85 q 333 39 355 48 q 265 23 311 29 l 265 0 l 620 0 l 620 23 q 552 39 574 29 q 523 67 530 48 q 515 119 515 85 l 515 464 l 713 785 q 782 887 755 852 q 832 936 808 922 q 888 956 856 951 l 888 979 l 636 979 l 636 956 q 703 935 684 950 q 713 885 722 919 q 669 790 704 852 l 496 481 l 507 481 l 309 816 q 276 919 266 890 q 349 956 286 947 l 349 979 l -4 979 l -4 956 q 48 940 27 951 q 93 901 70 929 q 151 816 116 873 m 355 1042 l 522 1160 l 469 1160 l 635 1042 l 665 1042 l 528 1224 l 463 1224 l 327 1042 l 355 1042 z "},"Ÿ":{"ha":884,"x_min":-4,"x_max":888,"o":"m 151 816 l 369 455 l 369 119 q 362 67 369 85 q 333 39 355 48 q 265 23 311 29 l 265 0 l 620 0 l 620 23 q 552 39 574 29 q 523 67 530 48 q 515 119 515 85 l 515 464 l 713 785 q 782 887 755 852 q 832 936 808 922 q 888 956 856 951 l 888 979 l 636 979 l 636 956 q 703 935 684 950 q 713 885 722 919 q 669 790 704 852 l 496 481 l 507 481 l 309 816 q 276 919 266 890 q 349 956 286 947 l 349 979 l -4 979 l -4 956 q 48 940 27 951 q 93 901 70 929 q 151 816 116 873 z "},"Ỹ":{"ha":884,"x_min":-4,"x_max":888,"o":"m 151 816 l 369 455 l 369 119 q 362 67 369 85 q 333 39 355 48 q 265 23 311 29 l 265 0 l 620 0 l 620 23 q 552 39 574 29 q 523 67 530 48 q 515 119 515 85 l 515 464 l 713 785 q 782 887 755 852 q 832 936 808 922 q 888 956 856 951 l 888 979 l 636 979 l 636 956 q 703 935 684 950 q 713 885 722 919 q 669 790 704 852 l 496 481 l 507 481 l 309 816 q 276 919 266 890 q 349 956 286 947 l 349 979 l -4 979 l -4 956 q 48 940 27 951 q 93 901 70 929 q 151 816 116 873 m 560 1058 q 633 1093 604 1058 q 659 1215 662 1128 l 633 1215 q 618 1151 630 1168 q 587 1134 606 1134 q 560 1140 572 1134 q 530 1158 547 1145 l 510 1171 q 464 1199 486 1189 q 417 1209 443 1209 q 345 1174 374 1209 q 319 1053 316 1139 l 345 1053 q 360 1117 348 1099 q 391 1134 372 1134 q 418 1128 406 1134 q 448 1109 431 1122 l 468 1096 q 514 1068 492 1079 q 560 1058 535 1058 z "},"Ȳ":{"ha":884,"x_min":-4,"x_max":888,"o":"m 151 816 l 369 455 l 369 119 q 362 67 369 85 q 333 39 355 48 q 265 23 311 29 l 265 0 l 620 0 l 620 23 q 552 39 574 29 q 523 67 530 48 q 515 119 515 85 l 515 464 l 713 785 q 782 887 755 852 q 832 936 808 922 q 888 956 856 951 l 888 979 l 636 979 l 636 956 q 703 935 684 950 q 713 885 722 919 q 669 790 704 852 l 496 481 l 507 481 l 309 816 q 276 919 266 890 q 349 956 286 947 l 349 979 l -4 979 l -4 956 q 48 940 27 951 q 93 901 70 929 q 151 816 116 873 m 330 1087 l 649 1087 l 649 1156 l 330 1156 l 330 1087 z "},"Ỷ":{"ha":884,"x_min":-4,"x_max":888,"o":"m 151 816 l 369 455 l 369 119 q 362 67 369 85 q 333 39 355 48 q 265 23 311 29 l 265 0 l 620 0 l 620 23 q 552 39 574 29 q 523 67 530 48 q 515 119 515 85 l 515 464 l 713 785 q 782 887 755 852 q 832 936 808 922 q 888 956 856 951 l 888 979 l 636 979 l 636 956 q 703 935 684 950 q 713 885 722 919 q 669 790 704 852 l 496 481 l 507 481 l 309 816 q 276 919 266 890 q 349 956 286 947 l 349 979 l -4 979 l -4 956 q 48 940 27 951 q 93 901 70 929 q 151 816 116 873 m 503 1254 q 429 1235 460 1254 q 383 1189 399 1216 l 383 1170 q 416 1190 396 1182 q 459 1198 435 1198 q 509 1184 491 1198 q 527 1147 527 1170 q 507 1099 527 1122 q 449 1051 486 1076 l 474 1051 q 577 1112 548 1082 q 606 1175 606 1141 q 578 1232 606 1210 q 503 1254 549 1254 z "},"Ẏ":{"ha":884,"x_min":-4,"x_max":888,"o":"m 151 816 l 369 455 l 369 119 q 362 67 369 85 q 333 39 355 48 q 265 23 311 29 l 265 0 l 620 0 l 620 23 q 552 39 574 29 q 523 67 530 48 q 515 119 515 85 l 515 464 l 713 785 q 782 887 755 852 q 832 936 808 922 q 888 956 856 951 l 888 979 l 636 979 l 636 956 q 703 935 684 950 q 713 885 722 919 q 669 790 704 852 l 496 481 l 507 481 l 309 816 q 276 919 266 890 q 349 956 286 947 l 349 979 l -4 979 l -4 956 q 48 940 27 951 q 93 901 70 929 q 151 816 116 873 m 489 1071 q 535 1089 516 1071 q 553 1134 553 1108 q 535 1178 553 1160 q 489 1196 516 1196 q 443 1178 462 1196 q 425 1134 425 1160 q 443 1089 425 1108 q 489 1071 462 1071 z "},"Ỵ":{"ha":884,"x_min":-4,"x_max":888,"o":"m 151 816 l 369 455 l 369 119 q 362 67 369 85 q 333 39 355 48 q 265 23 311 29 l 265 0 l 620 0 l 620 23 q 552 39 574 29 q 523 67 530 48 q 515 119 515 85 l 515 464 l 713 785 q 782 887 755 852 q 832 936 808 922 q 888 956 856 951 l 888 979 l 636 979 l 636 956 q 703 935 684 950 q 713 885 722 919 q 669 790 704 852 l 496 481 l 507 481 l 309 816 q 276 919 266 890 q 349 956 286 947 l 349 979 l -4 979 l -4 956 q 48 940 27 951 q 93 901 70 929 q 151 816 116 873 m 447 -133 q 401 -151 420 -133 q 382 -195 382 -170 q 401 -240 382 -221 q 447 -258 420 -258 q 493 -240 474 -258 q 511 -195 511 -221 q 493 -151 511 -170 q 447 -133 474 -133 z "},"Z":{"ha":840,"x_min":53,"x_max":789,"o":"m 777 0 l 789 258 l 768 258 q 731 147 753 189 q 672 81 709 104 q 578 48 636 58 q 433 35 520 38 l 218 27 l 774 958 l 774 979 l 78 979 l 65 748 l 86 748 q 119 842 100 805 q 173 901 138 879 q 265 932 207 922 q 414 946 323 943 l 608 952 l 53 22 l 53 0 l 777 0 z "},"Ź":{"ha":840,"x_min":53,"x_max":789,"o":"m 777 0 l 789 258 l 768 258 q 731 147 753 189 q 672 81 709 104 q 578 48 636 58 q 433 35 520 38 l 218 27 l 774 958 l 774 979 l 78 979 l 65 748 l 86 748 q 119 842 100 805 q 173 901 138 879 q 265 932 207 922 q 414 946 323 943 l 608 952 l 53 22 l 53 0 l 777 0 m 393 1042 l 596 1221 l 596 1225 l 455 1225 l 363 1043 l 393 1042 z "},"Ẑ":{"ha":840,"x_min":53,"x_max":789,"o":"m 777 0 l 789 258 l 768 258 q 731 147 753 189 q 672 81 709 104 q 578 48 636 58 q 433 35 520 38 l 218 27 l 774 958 l 774 979 l 78 979 l 65 748 l 86 748 q 119 842 100 805 q 173 901 138 879 q 265 932 207 922 q 414 946 323 943 l 608 952 l 53 22 l 53 0 l 777 0 m 290 1042 l 458 1160 l 404 1160 l 570 1042 l 600 1042 l 464 1224 l 399 1224 l 262 1042 l 290 1042 z "},"Ž":{"ha":840,"x_min":53,"x_max":789,"o":"m 777 0 l 789 258 l 768 258 q 731 147 753 189 q 672 81 709 104 q 578 48 636 58 q 433 35 520 38 l 218 27 l 774 958 l 774 979 l 78 979 l 65 748 l 86 748 q 119 842 100 805 q 173 901 138 879 q 265 932 207 922 q 414 946 323 943 l 608 952 l 53 22 l 53 0 l 777 0 m 571 1236 l 404 1120 l 457 1120 l 291 1236 l 261 1236 l 397 1055 l 463 1055 l 599 1236 l 571 1236 z "},"Ẕ":{"ha":840,"x_min":53,"x_max":789,"o":"m 777 0 l 789 258 l 768 258 q 731 147 753 189 q 672 81 709 104 q 578 48 636 58 q 433 35 520 38 l 218 27 l 774 958 l 774 979 l 78 979 l 65 748 l 86 748 q 119 842 100 805 q 173 901 138 879 q 265 932 207 922 q 414 946 323 943 l 608 952 l 53 22 l 53 0 l 777 0 z "},"Ż":{"ha":840,"x_min":53,"x_max":789,"o":"m 777 0 l 789 258 l 768 258 q 731 147 753 189 q 672 81 709 104 q 578 48 636 58 q 433 35 520 38 l 218 27 l 774 958 l 774 979 l 78 979 l 65 748 l 86 748 q 119 842 100 805 q 173 901 138 879 q 265 932 207 922 q 414 946 323 943 l 608 952 l 53 22 l 53 0 l 777 0 m 425 1071 q 470 1089 452 1071 q 489 1134 489 1108 q 470 1178 489 1160 q 425 1196 452 1196 q 379 1178 397 1196 q 360 1134 360 1160 q 379 1089 360 1108 q 425 1071 397 1071 z "},"Ẓ":{"ha":840,"x_min":53,"x_max":789,"o":"m 777 0 l 789 258 l 768 258 q 731 147 753 189 q 672 81 709 104 q 578 48 636 58 q 433 35 520 38 l 218 27 l 774 958 l 774 979 l 78 979 l 65 748 l 86 748 q 119 842 100 805 q 173 901 138 879 q 265 932 207 922 q 414 946 323 943 l 608 952 l 53 22 l 53 0 l 777 0 m 423 -137 q 377 -155 396 -137 q 359 -199 359 -174 q 377 -244 359 -225 q 423 -262 396 -262 q 469 -244 450 -262 q 488 -199 488 -225 q 469 -155 488 -174 q 423 -137 450 -137 z "},"Æ":{"ha":1291,"x_min":-9,"x_max":1248,"o":"m 1200 979 l 578 979 l 161 190 q 101 90 126 123 q 51 42 76 56 q -9 23 25 29 l -9 0 l 255 0 l 255 23 q 190 45 210 30 q 175 93 170 60 q 212 189 180 127 l 600 951 l 639 951 l 643 105 q 636 61 643 77 q 610 37 629 45 q 551 23 590 29 l 551 0 l 1236 0 l 1248 258 l 1226 258 q 1194 148 1213 191 q 1144 82 1175 106 q 1063 48 1113 58 q 939 34 1014 37 l 783 27 l 780 488 l 948 484 q 1013 470 990 483 q 1047 429 1035 458 q 1068 349 1059 400 l 1088 349 l 1086 654 l 1066 654 q 1045 574 1057 604 q 1011 533 1034 545 q 948 519 989 521 l 780 515 l 778 952 l 908 947 q 1025 933 978 943 q 1104 901 1073 923 q 1156 842 1136 880 q 1190 748 1175 805 l 1211 748 l 1200 979 m 318 437 l 710 437 l 710 470 l 336 470 l 318 437 z "}}}
